<ttFont>
          <CharString index="0">
            -56 -34 -37 -46 -56 -26 43 44 49 29 40 57 5 5 0 -1 6 vhcurveto
            113 vlineto
            -64 callsubr
            -127 -94 -78 -126 -113 77 -84 121 -78 callsubr
            return
          </CharString>
          <CharString index="1">
            -107 callsubr
            56 return
          </CharString>
          <CharString index="2">
            -106 callsubr
            34 37 return
          </CharString>
          <CharString index="3">
            -2 -15 -14 -1 -14 hhcurveto
            -109 -47 55 92 72 27 27 39 37 21 -23 -62 hvcurveto
            -67 143 65 vlineto
            return
          </CharString>
          <CharString index="4">
            -56 -61 -37 -49 -68 -35 36 62 55 41 33 50 22 18 -4 -5 19 vhcurveto
            -74 callgsubr
            return
          </CharString>
          <CharString index="5">
            202 callgsubr
            -82 callgsubr
            return
          </CharString>
          <CharString index="6">
            -189 -98 callgsubr
            90 hvcurveto
            return
          </CharString>
          <CharString index="7">
            vlineto
            61 39 32 50 46 26 -40 -44 -61 -29 -30 -57 -5 -5 0 1 -6 vhcurveto
            -113 vlineto
            -1 8 9 0 8 hhcurveto
            118 100 65 140 103 -64 92 -121 -49 -39 -16 -25 -29 hvcurveto
            return
          </CharString>
          <CharString index="8">
            193 -269 rlineto
            170 hlineto
            -187 251 rlineto
            -4 34 42 -4 49 hhcurveto
            return
          </CharString>
          <CharString index="9">
            -4 callgsubr
            56 26 -43 -44 -49 -29 -40 -57 -5 -5 0 1 -6 vhcurveto
            -113 vlineto
            -1 8 8 0 7 hhcurveto
            127 94 78 126 113 -77 84 -121 -62 callsubr
            109 vlineto
            endchar
          </CharString>
          <CharString index="10">
            -74 callsubr
            -112 -117 hlineto
            93 callsubr
            -25 6 -26 12 -23 vhcurveto
            return
          </CharString>
          <CharString index="11">
            vlineto
            -15 41 49 -6 40 hhcurveto
            119 84 64 111 47 -15 43 -43 28 hvcurveto
            return
          </CharString>
          <CharString index="12">
            3 10 12 2 13 hhcurveto
            21 27 -3 -7 21 0 callgsubr
            -22 -33 3 -26 hhcurveto
            return
          </CharString>
          <CharString index="13">
            27 25 20 33 48 vvcurveto
            101 -77 55 -116 -121 -69 -80 -91 -58 22 -43 35 -31 vhcurveto
            -64 -29 -61 -48 -94 vvcurveto
            -107 78 -68 115 60 55 25 31 22 vhcurveto
            -88 140 249 -138 vlineto
            -70 -11 -44 -30 -55 hhcurveto
            -50 -29 26 43 46 41 36 55 24 hvcurveto
            -8 34 38 -4 38 hhcurveto
            return
          </CharString>
          <CharString index="14">
            -90 callgsubr
            -131 109 -87 133 return
          </CharString>
          <CharString index="15">
            rmoveto
            -176 hlineto
            70 13 42 31 43 hhcurveto
            56 18 -40 -49 4 hvcurveto
            105 -161 rmoveto
            -24 -32 -42 -19 -60 hhcurveto
            -68 -53 31 57 -20 hvcurveto
            298 hlineto
            3 21 5 36 22 vvcurveto
            162 -89 75 -131 -126 -108 -90 -168 -147 92 -112 172 51 71 10 24 37 vhcurveto
            endchar
          </CharString>
          <CharString index="16">
            -88 callsubr
            6 5 0 -1 6 vhcurveto
            -376 143 -83 callsubr
          </CharString>
          <CharString index="17">
            -112 100 -82 callsubr
            return
          </CharString>
          <CharString index="18">
            141 -80 callgsubr
            return
          </CharString>
          <CharString index="19">
            115 vlineto
            -87 callgsubr
            return
          </CharString>
          <CharString index="20">
            -125 140 289 -138 vlineto
            -70 -11 -44 -30 -55 hhcurveto
            -58 -40 36 65 63 45 40 71 hvcurveto
            return
          </CharString>
          <CharString index="21">
            -21 callsubr
            hvcurveto
            -65 callsubr
            hlineto
            endchar
          </CharString>
          <CharString index="22">
            -61 -39 -32 -50 -48 -26 25 61 vhcurveto
            return
          </CharString>
          <CharString index="23">
            -63 callsubr
            -70 -87 -32 -171 -44 vhcurveto
            return
          </CharString>
          <CharString index="24">
            -80 callgsubr
            vlineto
            endchar
          </CharString>
          <CharString index="25">
            -76 callsubr
            112 return
          </CharString>
          <CharString index="26">
            vvcurveto
            -150 107 -91 180 51 68 15 20 39 vhcurveto
            127 vlineto
            -20 -30 -62 -21 -55 hhcurveto
            -90 -65 38 77 72 57 47 114 16 61 -3 -4 18 hvcurveto
            return
          </CharString>
          <CharString index="27">
            rmoveto
            161 87 116 148 144 -84 115 -164 -154 -95 -115 -153 -142 84 -113 165 hvcurveto
            -1 408 rmoveto
            73 24 -68 -81 -81 -27 -65 -68 -68 -30 67 81 81 29 66 67 hvcurveto
            return
          </CharString>
          <CharString index="28">
            6 20 33 4 21 hhcurveto
            59 33 -24 -43 37 hvcurveto
            95 -112 rlineto
            111 -130 -40 16 -69 hhcurveto
            -17 -25 -4 -5 -17 hvcurveto
            -100 vlineto
            4 15 23 3 18 hhcurveto
            return
          </CharString>
          <CharString index="29">
            45 35 15 23 26 hvcurveto
            109 callgsubr
            return
          </CharString>
          <CharString index="30">
            19 -19 10 -26 -34 vvcurveto
            return
          </CharString>
          <CharString index="31">
            -559 -89 callsubr
            return
          </CharString>
          <CharString index="32">
            156 callsubr
            -40 -111 -16 vhcurveto
            return
          </CharString>
          <CharString index="33">
            -11 21 -6 16 25 vvcurveto
            32 16 27 33 37 24 -24 -56 -82 -59 -47 -102 vhcurveto
            return
          </CharString>
          <CharString index="34">
            -15 -4 -14 -6 -13 vhcurveto
            -166 137 -10 callsubr
            return
          </CharString>
          <CharString index="35">
            rmoveto
            -12 -22 -26 -7 -30 hhcurveto
            -62 -45 40 64 23 5 19 10 16 hvcurveto
            return
          </CharString>
          <CharString index="36">
            rmoveto
            14 -35 -48 7 -47 hhcurveto
            -107 -90 -54 -102 -80 50 -40 51 -24 hvcurveto
            50 -23 52 -14 -32 vvcurveto
            -23 -21 -12 -34 -58 -55 25 23 -33 vhcurveto
            -130 vlineto
            -17 34 57 -14 63 hhcurveto
            115 82 54 103 73 -52 37 -50 26 hvcurveto
            -51 26 -51 14 32 vvcurveto
            21 18 16 36 47 46 -13 -18 31 vhcurveto
            return
          </CharString>
          <CharString index="37">
            14 25 7 31 35 vvcurveto
            114 return
          </CharString>
          <CharString index="38">
            23 callsubr
            -360 48 callsubr
            hlineto
            endchar
          </CharString>
          <CharString index="39">
            19 20 1 3 20 hvcurveto
            -91 callsubr
          </CharString>
          <CharString index="40">
            48 118 -40 hlineto
            -58 -31 18 43 47 33 24 64 hvcurveto
            3 112 return
          </CharString>
          <CharString index="41">
            -143 74 -61 114 -18 callgsubr
            vhcurveto
            -19 callgsubr
            return
          </CharString>
          <CharString index="42">
            60 callgsubr
            150 86 77 98 2 hvcurveto
            86 -50 67 -150 -70 -46 2 35 28 23 11 28 vhcurveto
            209 69 callgsubr
            return
          </CharString>
          <CharString index="43">
            1 -9 -7 0 -7 hhcurveto
            return
          </CharString>
          <CharString index="44">
            -34 callsubr
            -21 3 -23 8 -23 vhcurveto
            134 hlineto
            -7 16 -5 21 18 vvcurveto
            29 13 23 32 29 14 -22 -30 return
          </CharString>
          <CharString index="45">
            -45 -35 -16 -23 -26 hvcurveto
            return
          </CharString>
          <CharString index="46">
            154 279 hlineto
            119 -15 90 0 vhcurveto
            0 27 -87 71 -122 vhcurveto
            161 -279 rlineto
            169 674 -154 -279 hlineto
            -131 10 -74 0 vhcurveto
            0 -22 72 -75 133 vhcurveto
            -157 279 rlineto
            -169 hlineto
            return
          </CharString>
          <CharString index="47">
            rmoveto
            -26 -13 -24 -17 -33 -44 -25 35 -67 hhcurveto
            -52 -44 -40 -42 -20 hvcurveto
            65 -64 rlineto
            32 27 13 11 35 36 24 -35 60 hhcurveto
            63 47 33 52 26 hvcurveto
            return
          </CharString>
          <CharString index="48">
            92 callgsubr
            -51 callsubr
            return
          </CharString>
          <CharString index="49">
            -81 callsubr
            endchar
          </CharString>
          <CharString index="50">
            -36 callgsubr
            268 hmoveto
            91 callsubr
            47 36 36 46 45 -36 36 -47 -48 -35 -36 -45 vhcurveto
            return
          </CharString>
          <CharString index="51">
            rmoveto
            35 23 -23 -31 -41 -21 -25 -30 -16 hvcurveto
            -45 12 -22 24 40 vvcurveto
            36 23 24 37 vhcurveto
            return
          </CharString>
          <CharString index="52">
            rmoveto
            182 -184 rlineto
            -15 -25 -27 -8 -31 hhcurveto
            -55 -44 28 64 hvcurveto
            return
          </CharString>
          <CharString index="53">
            -45 -27 -32 -65 vhcurveto
            -71 -98 hlineto
            return
          </CharString>
          <CharString index="54">
            -96 callsubr
            141 -348 142 559 101 hlineto
            endchar
          </CharString>
          <CharString index="55">
            -44 callgsubr
            62 57 -27 -28 54 hvcurveto
            return
          </CharString>
          <CharString index="56">
            -115 vlineto
            -54 callsubr
            -99 callsubr
            return
          </CharString>
          <CharString index="57">
            132 callgsubr
            -43 -111 -116 100 -27 107 -22 callsubr
            return
          </CharString>
          <CharString index="58">
            -92 callgsubr
            122 return
          </CharString>
          <CharString index="59">
            -22 10 -27 19 -43 vhcurveto
            36 -80 43 callsubr
            return
          </CharString>
          <CharString index="60">
            rmoveto
            34 -55 -72 4 -48 hhcurveto
            -208 -140 -143 -205 -206 153 -137 194 48 73 4 34 55 hvcurveto
            151 vlineto
            -32 -45 -63 -16 -53 hhcurveto
            -114 -83 75 127 131 87 77 104 60 47 -9 -37 60 hvcurveto
            return
          </CharString>
          <CharString index="61">
            11 15 35 11 22 hhcurveto
            36 21 -17 -25 -40 -42 -18 -47 -82 -51 63 65 98 96 30 94 35 36 -4 -7 30 hvcurveto
            return
          </CharString>
          <CharString index="62">
            19 20 1 3 20 hvcurveto
            return
          </CharString>
          <CharString index="63">
            -29 callsubr
            -143 -41 callgsubr
            return
          </CharString>
          <CharString index="64">
            rmoveto
            -146 -507 146 268 hlineto
            88 43 38 50 49 31 -30 -62 vhcurveto
            -302 146 329 vlineto
            122 -65 61 -101 -75 -53 -36 -55 -25 vhcurveto
            endchar
          </CharString>
          <CharString index="65">
            -95 callgsubr
            90 hvcurveto
            return
          </CharString>
          <CharString index="66">
            vlineto
            -75 callsubr
            return
          </CharString>
          <CharString index="67">
            rmoveto
            121 195 callsubr
            -146 hlineto
            return
          </CharString>
          <CharString index="68">
            -112 95 -295 hlineto
            -166 120 -73 158 75 50 12 15 43 vhcurveto
            127 vlineto
            -19 -43 -52 -14 -62 hhcurveto
            -90 -58 39 78 hvcurveto
            296 187 -109 vlineto
            -52 -21 -17 -40 -14 -7 2 2 -14 vhcurveto
            -110 vlineto
            -7 28 13 0 26 hhcurveto
            91 77 51 119 hvcurveto
            121 75 vlineto
            endchar
          </CharString>
          <CharString index="69">
            rmoveto
            -13 -24 -28 -7 -26 hhcurveto
            -62 -45 40 64 23 5 19 10 16 hvcurveto
            return
          </CharString>
          <CharString index="70">
            -60 callgsubr
            -65 28 -56 60 -49 vhcurveto
            -182 -107 110 -85 195 120 return
          </CharString>
          <CharString index="71">
            -69 -20 hvcurveto
            47 -11 return
          </CharString>
          <CharString index="72">
            196 callsubr
            -67 53 -38 90 -2 vhcurveto
            return
          </CharString>
          <CharString index="73">
            112 -74 62 -100 -117 -61 -70 -87 return
          </CharString>
          <CharString index="74">
            rmoveto
            118 107 -118 120 -146 -120 -73 -107 73 -232 hlineto
            -112 57 -61 116 28 44 4 12 28 178 callsubr
            -14 -22 -26 -6 -23 hhcurveto
            -31 -25 17 38 hvcurveto
            return
          </CharString>
          <CharString index="75">
            rmoveto
            -60 -25 -35 -29 -60 hhcurveto
            -11 -11 1 3 -12 hvcurveto
            -116 vlineto
            -4 20 11 -1 25 hhcurveto
            106 81 68 145 54 hvcurveto
            183 492 rlineto
            -150 hlineto
            -50 -158 rlineto
            -43 -137 -11 -40 0 vvcurveto
            0 -6 40 -48 137 vhcurveto
            -55 158 rlineto
            -159 hlineto
            endchar
          </CharString>
          <CharString index="76">
            -124 -53 callsubr
          </CharString>
          <CharString index="77">
            559 50 callsubr
          </CharString>
          <CharString index="78">
            vlineto
            6 12 20 8 22 hhcurveto
            32 14 -18 -29 hvcurveto
            return
          </CharString>
          <CharString index="79">
            -112 90 -184 return
          </CharString>
          <CharString index="80">
            140 84 hlineto
            -19 33 41 -12 45 hhcurveto
            113 75 68 101 21 -2 20 -6 17 hvcurveto
            return
          </CharString>
          <CharString index="81">
            hhcurveto
            -75 -59 -28 -36 callsubr
            -48 42 -85 hhcurveto
            -117 -68 -78 -121 -6 hvcurveto
            -9 -13 -9 -12 -11 -12 -96 callgsubr
            78 65 27 45 48 hvcurveto
            -91 42 90 -54 124 hhcurveto
            -99 callgsubr
            70 26 31 64 return
          </CharString>
          <CharString index="82">
            185 callgsubr
            -599 -112 328 177 callsubr
            hvcurveto
            29 hlineto
            54 -2 23 -9 -33 vvcurveto
            -27 -31 -23 -66 -82 -70 25 40 -65 vhcurveto
            -130 vlineto
            25 -14 31 -14 41 -10 -128 -163 rcurveline
            134 callgsubr
            -134 171 73 29 41 57 1 67 rlinecurve
            80 -43 63 -127 9 vhcurveto
            1 -9 -10 0 -11 hhcurveto
            150 callgsubr
          </CharString>
          <CharString index="83">
            283 rmoveto
            -56 -34 -37 -46 -56 -26 43 44 49 29 40 57 5 5 0 -1 6 vhcurveto
            113 vlineto
            -64 callsubr
            return
          </CharString>
          <CharString index="84">
            373 rmoveto
            -158 186 158 hlineto
            return
          </CharString>
          <CharString index="85">
            47 40 -8 -46 -36 -27 -20 -40 -46 -42 31 49 -23 hvcurveto
            -130 -238 -27 callsubr
            return
          </CharString>
          <CharString index="86">
            75 31 -6 -38 -27 -31 -23 -66 -82 -70 25 40 -65 return
          </CharString>
          <CharString index="87">
            rmoveto
            -69 -72 24 67 63 67 26 75 66 74 -23 -67 -61 -66 -29 -75 hvcurveto
            -110 441 rmoveto
            195 -122 rlineto
            -20 -17 -27 -8 -34 hhcurveto
            -27 hlineto
            -55 1 -35 23 58 vvcurveto
            213 1 rmoveto
            -196 126 rlineto
            196 -120 hlineto
            return
          </CharString>
          <CharString index="88">
            -36 -33 8 17 -32 return
          </CharString>
          <CharString index="89">
            36 -80 rlineto
            119 return
          </CharString>
          <CharString index="90">
            -112 713 -276 hlineto
            95 callgsubr
            0 -224 vlineto
            -101 callsubr
            70 hlineto
            -11 -25 -6 -29 -31 vvcurveto
            14 callgsubr
            vhcurveto
            109 callgsubr
            return
          </CharString>
          <CharString index="91">
            -115 vlineto
            102 41 -27 -52 -44 -36 -20 -63 80 callgsubr
            109 94 64 94 40 -17 40 -40 25 hvcurveto
            return
          </CharString>
          <CharString index="92">
            hlineto
            -77 callsubr
            return
          </CharString>
          <CharString index="93">
            112 vlineto
            endchar
          </CharString>
          <CharString index="94">
            733 rmoveto
            123 110 156 callgsubr
            -38 -37 -59 -62 -39 37 52 vhcurveto
            -136 hlineto
            -126 98 -63 139 vhcurveto
            -71 244 rmoveto
            -39 31 -31 39 39 31 31 39 39 -31 31 -39 -39 -31 -31 -39 vhcurveto
            return
          </CharString>
          <CharString index="95">
            15 hlineto
            -30 -33 -17 -45 -56 vvcurveto
            -144 99 -82 125 197 callgsubr
            121 vlineto
            -1 -6 -6 0 -5 hhcurveto
            -63 -42 42 69 79 49 47 return
          </CharString>
          <CharString index="96">
            112 rmoveto
            return
          </CharString>
          <CharString index="97">
            rlineto
            -95 callsubr
            return
          </CharString>
          <CharString index="98">
            rmoveto
            -100 callgsubr
            -582 236 rmoveto
            -112 323 28 callgsubr
            152 252 140 callsubr
          </CharString>
          <CharString index="99">
            43 callsubr
            hlineto
            endchar
          </CharString>
          <CharString index="100">
            -134 101 -72 116 55 48 17 32 36 return
          </CharString>
          <CharString index="101">
            rmoveto
            124 112 -645 -112 379 -276 hlineto
            -56 -34 -37 -46 -56 -26 43 44 49 29 40 57 5 5 0 -1 6 vhcurveto
            113 vlineto
            -64 callsubr
            -127 -94 -78 -126 203 callsubr
            hvcurveto
            -118 -135 rlineto
            167 hlineto
            131 163 rlineto
            -118 103 callsubr
          </CharString>
          <CharString index="102">
            -105 callgsubr
            -403 109 callsubr
            126 -41 callsubr
            return
          </CharString>
          <CharString index="103">
            hhcurveto
            37 20 -16 -18 -53 -85 -22 -66 -16 hvcurveto
            -173 21 98 -77 128 202 callgsubr
            -100 141 559 119 vlineto
            endchar
          </CharString>
          <CharString index="104">
            140 -83 callsubr
          </CharString>
          <CharString index="105">
            671 rmoveto
            return
          </CharString>
          <CharString index="106">
            -28 callsubr
            hlineto
            187 callgsubr
            121 return
          </CharString>
          <CharString index="107">
            -112 363 -276 hlineto
            -106 callsubr
            38 37 49 27 19 -8 -14 12 vhcurveto
            -86 -55 callgsubr
            return
          </CharString>
          <CharString index="108">
            -35 -40 -31 -21 -43 -52 -44 41 43 -15 hvcurveto
            -130 -242 140 85 hlineto
            -20 33 39 -12 48 hhcurveto
            98 96 62 104 99 -65 return
          </CharString>
          <CharString index="109">
            -79 callsubr
            67 61 -31 -31 58 hvcurveto
            return
          </CharString>
          <CharString index="110">
            rmoveto
            26 -5 29 -12 19 vhcurveto
            -113 hlineto
            10 -13 16 -23 -26 vvcurveto
            -39 -26 -25 -49 vhcurveto
            -91 vlineto
            124 55 65 78 hvcurveto
            endchar
          </CharString>
          <CharString index="111">
            110 rmoveto
            -45 -41 37 109 -8 hvcurveto
            26 25 31 17 39 hhcurveto
            53 29 -37 -53 -60 -31 -39 -52 hvcurveto
            181 540 rmoveto
            8 -25 -40 8 -38 hhcurveto
            -183 -140 -139 -228 -187 77 -132 167 149 84 105 127 129 -77 81 -114 -52 -44 -18 -28 -33 hvcurveto
            92 20 59 68 99 hhcurveto
            34 29 -6 -15 28 hvcurveto
            endchar
          </CharString>
          <CharString index="112">
            rmoveto
            79 -96 187 callsubr
            -156 177 rlineto
            -124 hlineto
            -156 -177 187 callsubr
            return
          </CharString>
          <CharString index="113">
            -106 callgsubr
            -453 109 callsubr
            176 25 callgsubr
            return
          </CharString>
          <CharString index="114">
            41 callgsubr
            -99 vlineto
            -46 callsubr
            endchar
          </CharString>
          <CharString index="115">
            hhcurveto
            71 69 23 37 28 hvcurveto
            144 callsubr
            90 -14 callsubr
          </CharString>
          <CharString index="116">
            rmoveto
            108 hlineto
            131 177 rlineto
            -145 hlineto
            -281 -177 rmoveto
            108 195 callsubr
            -133 hlineto
            return
          </CharString>
          <CharString index="117">
            490 rmoveto
            21 34 56 22 49 hhcurveto
            53 37 -20 -49 -51 -56 -21 -65 hvcurveto
            -35 -120 35 hlineto
            105 30 -34 -39 -41 -36 -33 -68 -66 -52 18 26 -47 hvcurveto
            -140 vlineto
            -22 45 70 -12 62 hhcurveto
            155 86 76 109 80 -42 51 -72 17 hvcurveto
            65 27 36 54 72 vvcurveto
            106 -87 76 -143 -56 -57 -19 -18 -36 vhcurveto
            endchar
          </CharString>
          <CharString index="118">
            vvcurveto
            -202 196 -82 175 22 22 1 3 21 vhcurveto
            104 vlineto
            -3 -16 -23 0 -18 hhcurveto
            -160 -78 86 85 return
          </CharString>
          <CharString index="119">
            -33 25 -25 32 33 25 25 33 32 -25 25 -33 return
          </CharString>
          <CharString index="120">
            rmoveto
            -146 hlineto
            -86 -177 rlineto
            121 hlineto
            return
          </CharString>
          <CharString index="121">
            -112 510 -115 hlineto
            -40 -22 -30 -52 -6 vhcurveto
            27 -29 -54 33 -89 hhcurveto
            -104 hlineto
            -103 callgsubr
            28 hlineto
            60 24 -21 -21 13 hvcurveto
            -5 -55 callgsubr
            return
          </CharString>
          <CharString index="122">
            44 418 -1 rmoveto
            -17 -3 -15 -6 -14 vhcurveto
            -128 109 41 1 71 16 25 36 rlinecurve
            -42 -201 rmoveto
            -12 -18 -24 -7 -28 hhcurveto
            -59 -40 30 55 24 9 21 14 15 hvcurveto
            -260 631 rmoveto
            -112 445 -64 -113 vlineto
            -168 -95 -93 -124 -75 36 -64 60 -39 hvcurveto
            -44 -27 -27 -46 -64 vvcurveto
            return
          </CharString>
          <CharString index="123">
            rlineto
            170 hlineto
            -187 251 rlineto
            -4 34 42 -4 49 hhcurveto
            150 -243 -89 callsubr
            hlineto
            endchar
          </CharString>
          <CharString index="124">
            490 rmoveto
            10 -23 -26 6 -30 117 callgsubr
            24 22 36 51 30 -41 -60 -107 -105 -51 -94 -97 -90 52 95 -30 hvcurveto
            4 1 4 1 5 1 rrcurveto
            68 18 29 50 78 vvcurveto
            120 296 vlineto
            return
          </CharString>
          <CharString index="125">
            rmoveto
            -378 92 callgsubr
            hlineto
            -222 -290 rlineto
            -105 399 113 -234 vlineto
            222 293 rlineto
            return
          </CharString>
          <CharString index="126">
            45 callsubr
            -559 140 -80 callgsubr
            return
          </CharString>
          <CharString index="127">
            rmoveto
            120 -176 rlineto
            168 hlineto
            -145 176 rlineto
            return
          </CharString>
          <CharString index="128">
            rmoveto
            -112 389 21 callgsubr
            -98 54 -74 82 -31 hvcurveto
            83 callsubr
            208 68 callsubr
            hlineto
            endchar
          </CharString>
          <CharString index="129">
            165 289 126 rmoveto
            143 138 124 -138 154 55 callsubr
            -281 -66 -124 66 -269 42 callgsubr
          </CharString>
          <CharString index="130">
            -42 callsubr
            70 return
          </CharString>
          <CharString index="131">
            hhcurveto
            -18 callgsubr
            hvcurveto
            82 callgsubr
            return
          </CharString>
          <CharString index="132">
            140 44 87 70 104 vvcurveto
            return
          </CharString>
          <CharString index="133">
            137 callgsubr
            -30 -37 -10 -10 -19 vhcurveto
            -109 -29 callsubr
            return
          </CharString>
          <CharString index="134">
            -48 -24 32 38 33 14 27 28 22 hvcurveto
            return
          </CharString>
          <CharString index="135">
            -105 162 -44 68 -55 23 -78 1 rlinecurve
            68 callgsubr
            return
          </CharString>
          <CharString index="136">
            hhcurveto
            31 callgsubr
          </CharString>
          <CharString index="137">
            152 40 339 -83 callgsubr
            return
          </CharString>
          <CharString index="138">
            rmoveto
            -112 168 45 callsubr
            -260 vlineto
            -361 -319 rlineto
            189 hlineto
            172 149 rlineto
            -129 163 callsubr
          </CharString>
          <CharString index="139">
            -31 vvcurveto
            -58 53 -53 53 -28 vhcurveto
            80 49 rlineto
            -21 21 -21 23 25 vvcurveto
            13 5 15 13 11 vhcurveto
            return
          </CharString>
          <CharString index="140">
            -39 -46 -80 -97 100 callsubr
            vhcurveto
            115 return
          </CharString>
          <CharString index="141">
            45 callgsubr
            25 -22 -30 10 vhcurveto
            return
          </CharString>
          <CharString index="142">
            rlineto
            20 -28 -26 12 -34 hhcurveto
            -67 -44 -78 -72 -15 hvcurveto
            69 -61 rlineto
            28 19 34 35 32 hhcurveto
            11 10 -4 -8 10 hvcurveto
            96 -60 -192 -40 rlineto
            -60 -14 -28 -34 -44 vvcurveto
            -55 43 -67 23 -23 vhcurveto
            89 21 rlineto
            -4 18 -8 22 21 vvcurveto
            29 8 23 32 8 vhcurveto
            return
          </CharString>
          <CharString index="143">
            rmoveto
            -112 384 21 callgsubr
            122 callsubr
            hvcurveto
            87 callgsubr
          </CharString>
          <CharString index="144">
            -112 355 -43 -66 hlineto
            -109 -91 -45 166 callgsubr
            -45 -41 30 47 -24 hvcurveto
            -1 7 rlineto
            -130 -242 -27 callsubr
            return
          </CharString>
          <CharString index="145">
            293 116 rmoveto
            -60 -50 52 84 92 51 48 58 56 57 -43 -90 -88 -46 -55 -66 hvcurveto
            return
          </CharString>
          <CharString index="146">
            182 292 52 callgsubr
            return
          </CharString>
          <CharString index="147">
            47 callgsubr
            -34 callsubr
            return
          </CharString>
          <CharString index="148">
            -268 vlineto
            53 callsubr
          </CharString>
          <CharString index="149">
            rlineto
            170 hlineto
            84 129 80 -129 rlineto
            170 hlineto
            return
          </CharString>
          <CharString index="150">
            rlineto
            57 callgsubr
            return
          </CharString>
          <CharString index="151">
            186 callsubr
            -580 -112 343 -83 -10 hlineto
            3 callgsubr
            return
          </CharString>
          <CharString index="152">
            -198 vlineto
            -97 callgsubr
            111 return
          </CharString>
          <CharString index="153">
            27 -31 -50 30 -73 hhcurveto
            -125 -92 -82 -123 -124 92 -81 130 69 44 29 30 29 hvcurveto
            -27 34 48 -32 76 hhcurveto
            return
          </CharString>
          <CharString index="154">
            -28 callsubr
            hlineto
            -141 68 -64 122 return
          </CharString>
          <CharString index="155">
            142 -80 callgsubr
            return
          </CharString>
          <CharString index="156">
            -39 callgsubr
            hvcurveto
            -95 callgsubr
            73 hvcurveto
            16 hlineto
            24 29 -10 -28 11 hvcurveto
            -139 35 98 -77 114 -102 callsubr
            vlineto
            endchar
          </CharString>
          <CharString index="157">
            100 -14 callsubr
          </CharString>
          <CharString index="158">
            -17 284 -8 -80 callsubr
            return
          </CharString>
          <CharString index="159">
            -61 callsubr
            endchar
          </CharString>
          <CharString index="160">
            96 callgsubr
            -134 101 -72 116 -68 callgsubr
          </CharString>
          <CharString index="161">
            -270 rmoveto
            118 -37 vlineto
            194 callsubr
            -51 hlineto
            95 callsubr
            return
          </CharString>
          <CharString index="162">
            69 vlineto
            127 68 -83 -116 -141 -69 -81 -125 hvcurveto
            -228 548 rmoveto
            return
          </CharString>
          <CharString index="163">
            57 -35 -56 27 -60 hhcurveto
            -123 -96 -93 -165 -136 80 -125 138 59 57 25 60 36 hvcurveto
            -79 146 return
          </CharString>
          <CharString index="164">
            vlineto
            13 callgsubr
            return
          </CharString>
          <CharString index="165">
            -197 62 callgsubr
            4 return
          </CharString>
          <CharString index="166">
            vvcurveto
            -67 53 -38 90 -2 vhcurveto
            -96 -7 -61 return
          </CharString>
          <CharString index="167">
            -105 callgsubr
            -524 -182 rmoveto
            182 247 25 callgsubr
            -47 -43 -39 -106 -17 vhcurveto
            return
          </CharString>
          <CharString index="168">
            rrcurveto
            127 vlineto
            -33 -48 -66 -21 -82 hhcurveto
            -82 -74 13 67 68 79 17 122 16 61 -3 -4 18 hvcurveto
            endchar
          </CharString>
          <CharString index="169">
            hlineto
            -102 callgsubr
            141 -348 142 559 101 hlineto
            endchar
          </CharString>
          <CharString index="170">
            -52 -28 -37 -59 -62 -29 37 52 vhcurveto
            -136 hlineto
            -126 88 -63 139 return
          </CharString>
          <CharString index="171">
            103 hlineto
            67 callgsubr
            return
          </CharString>
          <CharString index="172">
            386 507 rmoveto
            -145 19 hlineto
            61 27 16 46 23 29 -7 -8 27 vhcurveto
            -5 -19 -2 -21 -22 vvcurveto
            return
          </CharString>
          <CharString index="173">
            rmoveto
            -484 -124 165 -550 155 550 164 hlineto
            endchar
          </CharString>
          <CharString index="174">
            483 101 callgsubr
            -611 -112 373 -48 -144 129 callgsubr
            return
          </CharString>
          <CharString index="175">
            176 112 112 return
          </CharString>
          <CharString index="176">
            rmoveto
            126 hlineto
            136 261 rlineto
            -161 hlineto
            endchar
          </CharString>
          <CharString index="177">
            rmoveto
            -86 177 rlineto
            -146 hlineto
            111 -177 rlineto
            return
          </CharString>
          <CharString index="178">
            -308 65 hmoveto
            198 callgsubr
            -146 hlineto
            return
          </CharString>
          <CharString index="179">
            hhcurveto
            -49 -39 -16 -25 -29 hvcurveto
            return
          </CharString>
          <CharString index="180">
            132 -101 57 -115 -114 -98 -58 -132 vhcurveto
            -30 142 25 vlineto
            161 callgsubr
            141 559 100 112 return
          </CharString>
          <CharString index="181">
            hlineto
            -146 3 107 -88 177 hhcurveto
            51 68 15 20 39 hvcurveto
            127 vlineto
            -20 -30 -62 -21 -55 hhcurveto
            -90 -65 38 77 72 57 47 114 16 61 -3 -4 18 hvcurveto
            endchar
          </CharString>
          <CharString index="182">
            -77 callgsubr
            509 hmoveto
            112 return
          </CharString>
          <CharString index="183">
            138 121 callgsubr
          </CharString>
          <CharString index="184">
            263 rmoveto
            144 296 rlineto
            -296 vlineto
            225 hmoveto
            -80 393 -232 hlineto
            -200 -393 rlineto
            -124 287 -139 145 139 80 vlineto
            endchar
          </CharString>
          <CharString index="185">
            rmoveto
            -152 hlineto
            146 -162 -146 -162 rlineto
            152 hlineto
            152 162 rlineto
            return
          </CharString>
          <CharString index="186">
            48 118 -40 hlineto
            207 callgsubr
            return
          </CharString>
          <CharString index="187">
            185 138 105 168 69 -28 52 -46 31 return
          </CharString>
          <CharString index="188">
            -12 hlineto
            8 4 12 5 14 3 rrcurveto
            return
          </CharString>
          <CharString index="189">
            rmoveto
            -75 61 -61 75 75 61 61 75 75 -61 61 -75 -75 -61 -61 -75 vhcurveto
            83 3 rmoveto
            29 21 27 32 32 21 -27 -29 -29 -21 -27 -32 -32 -21 27 29 vhcurveto
            return
          </CharString>
          <CharString index="190">
            -129 -130 rlineto
            181 hlineto
            161 170 rlineto
            -87 callsubr
            return
          </CharString>
          <CharString index="191">
            -52 -28 38 54 55 28 39 50 31 33 -17 -25 27 hvcurveto
            -46 -13 -16 -98 -60 hhcurveto
            return
          </CharString>
          <CharString index="192">
            4 callgsubr
            -127 -94 -78 -126 return
          </CharString>
          <CharString index="193">
            -268 hlineto
            -73 callsubr
            return
          </CharString>
          <CharString index="194">
            196 634 -196 hlineto
            236 -185 rmoveto
            196 185 -196 hlineto
            return
          </CharString>
          <CharString index="195">
            rmoveto
            -85 callsubr
            190 163 vlineto
            -458 hmoveto
            153 -75 hlineto
            3 -15 -15 2 -17 -14 callgsubr
            return
          </CharString>
          <CharString index="196">
            vlineto
            93 callsubr
            return
          </CharString>
          <CharString index="197">
            145 callgsubr
            95 107 -95 19 hlineto
            63 29 14 49 21 23 -4 -6 24 vhcurveto
            -593 146 657 vlineto
            37 -78 -70 26 -95 hhcurveto
            return
          </CharString>
          <CharString index="198">
            -46 35 -36 48 return
          </CharString>
          <CharString index="199">
            -1 callsubr
            83 59 28 42 47 vhcurveto
            -53 31 58 -26 80 hhcurveto
            123 77 66 131 hvcurveto
            205 return
          </CharString>
          <CharString index="200">
            221 -234 rlineto
            180 hlineto
            -237 239 rlineto
            121 7 127 72 161 vvcurveto
            115 -78 83 -124 -113 -70 -77 -87 return
          </CharString>
          <CharString index="201">
            rmoveto
            40 callsubr
            -12 return
          </CharString>
          <CharString index="202">
            -21 -1 -26 -3 -15 -4 rrcurveto
            -111 vlineto
            3 11 20 2 18 hhcurveto
            42 36 -27 -57 -89 -72 -56 -107 -65 -48 24 40 39 23 21 58 hvcurveto
            return
          </CharString>
          <CharString index="203">
            -89 140 524 -138 vlineto
            -72 -11 -55 -18 -60 hhcurveto
            -61 -51 38 63 63 45 40 81 hvcurveto
            250 176 140 callgsubr
          </CharString>
          <CharString index="204">
            rmoveto
            -105 85 -85 105 105 85 85 105 105 -85 85 -105 -105 -85 -85 -105 vhcurveto
            return
          </CharString>
          <CharString index="205">
            -75 -55 callsubr
            return
          </CharString>
          <CharString index="206">
            rmoveto
            114 callsubr
            return
          </CharString>
          <CharString index="207">
            -57 -36 24 45 64 62 22 103 return
          </CharString>
          <CharString index="208">
            122 vlineto
            5 return
          </CharString>
          <CharString index="209">
            13 callgsubr
            -91 -5 -52 -46 -75 vvcurveto
            -116 123 -57 131 185 138 105 168 return
          </CharString>
          <CharString index="210">
            -4 callgsubr
            43 26 -25 -32 9 vhcurveto
            101 103 rlineto
            41 -34 -53 25 -66 -14 callgsubr
            endchar
          </CharString>
          <CharString index="211">
            vvcurveto
            105 -65 68 -94 26 vhcurveto
            91 vlineto
            endchar
          </CharString>
          <CharString index="212">
            hlineto
            -189 -88 -107 -136 -134 92 -107 132 hvcurveto
            11 123 hlineto
            -56 5 -37 41 71 vvcurveto
            78 49 41 90 vhcurveto
            42 hlineto
            return
          </CharString>
          <CharString index="213">
            -43 -68 vlineto
            186 callgsubr
            115 callgsubr
            -21 callsubr
            hvcurveto
            -130 vlineto
            return
          </CharString>
          <CharString index="214">
            -49 39 -39 49 49 39 39 49 49 -39 39 -49 -49 -39 -39 -49 vhcurveto
            return
          </CharString>
          <CharString index="215">
            137 callgsubr
            -13 -15 -2 -3 -14 vhcurveto
            return
          </CharString>
          <CharString index="216">
            -11 callsubr
            -112 return
          </CharString>
          <CharString index="217">
            1123 -105 callgsubr
            return
          </CharString>
          <CharString index="218">
            -105 callgsubr
            -474 return
          </CharString>
          <CharString index="219">
            -208 vlineto
            121 callsubr
          </CharString>
          <CharString index="220">
            163 -269 rlineto
            160 hlineto
            -163 273 return
          </CharString>
          <CharString index="221">
            6 20 23 4 21 hhcurveto
            32 24 -11 -30 20 hvcurveto
            return
          </CharString>
          <CharString index="222">
            -112 95 -174 hlineto
            133 callgsubr
            return
          </CharString>
          <CharString index="223">
            -112 90 -184 vlineto
            -66 callsubr
            return
          </CharString>
          <CharString index="224">
            199 callsubr
            110 72 rlineto
            75 -35 -56 45 -89 72 callsubr
            endchar
          </CharString>
          <CharString index="225">
            rlineto
            -39 -23 -17 -28 -35 vvcurveto
            -56 49 -53 57 -30 vhcurveto
            80 51 rlineto
            -25 29 -23 30 22 vvcurveto
            12 6 11 12 9 vhcurveto
            return
          </CharString>
          <CharString index="226">
            rlineto
            -42 -20 -13 -33 -29 vvcurveto
            -57 49 -45 40 -18 vhcurveto
            75 46 rlineto
            -16 15 -14 18 23 vvcurveto
            12 6 13 12 7 vhcurveto
            return
          </CharString>
          <CharString index="227">
            132 callsubr
            27 59 return
          </CharString>
          <CharString index="228">
            -130 71 -64 125 123 77 66 131 vhcurveto
            205 117 91 callgsubr
          </CharString>
          <CharString index="229">
            -122 83 -94 133 40 67 15 38 26 return
          </CharString>
          <CharString index="230">
            -66 -107 66 145 callgsubr
            return
          </CharString>
          <CharString index="231">
            -10 478 404 rmoveto
            155 126 112 -634 -112 368 -43 -88 vlineto
            -92 -99 -39 -109 return
          </CharString>
          <CharString index="232">
            205 rmoveto
            308 -115 hlineto
            -25 -9 -22 -19 -13 vhcurveto
            78 -32 -80 27 -62 -14 callgsubr
            return
          </CharString>
          <CharString index="233">
            27 320 116 rmoveto
            -66 -48 55 88 90 58 43 56 59 49 -44 -96 -86 -45 -50 -63 hvcurveto
            -114 return
          </CharString>
          <CharString index="234">
            -179 264 176 243 rlineto
            -168 hlineto
            -160 -227 rlineto
            410 -146 -690 146 return
          </CharString>
          <CharString index="235">
            -2 callsubr
            -240 -329 201 callgsubr
            return
          </CharString>
          <CharString index="236">
            559 rmoveto
            112 return
          </CharString>
          <CharString index="237">
            vvcurveto
            -201 179 -110 170 17 18 2 2 17 vhcurveto
            114 vlineto
            -1 -7 -8 0 -7 hhcurveto
            return
          </CharString>
          <CharString index="238">
            vvcurveto
            143 callgsubr
            vhcurveto
            -132 -86 callgsubr
          </CharString>
          <CharString index="239">
            -52 -40 136 callgsubr
            return
          </CharString>
          <CharString index="240">
            rmoveto
            221 337 rlineto
            -183 hlineto
            -218 -339 226 -335 rlineto
            193 hlineto
            endchar
          </CharString>
          <CharString index="241">
            198 -256 rlineto
            170 hlineto
            return
          </CharString>
          <CharString index="242">
            48 callsubr
            112 return
          </CharString>
          <CharString index="243">
            -112 110 return
          </CharString>
          <CharString index="244">
            439 20 callgsubr
            return
          </CharString>
          <CharString index="245">
            398 rmoveto
            165 99 rlineto
            -497 145 654 -126 vlineto
            -184 -107 rlineto
            endchar
          </CharString>
          <CharString index="246">
            69 -28 52 -46 31 vhcurveto
            85 vlineto
            endchar
          </CharString>
          <CharString index="247">
            112 hlineto
            endchar
          </CharString>
          <CharString index="248">
            184 callsubr
            90 -66 121 return
          </CharString>
          <CharString index="249">
            47 38 38 47 47 -38 38 -47 -47 -38 -38 -47 return
          </CharString>
          <CharString index="250">
            160 callgsubr
            vhcurveto
            130 vlineto
            return
          </CharString>
          <CharString index="251">
            -150 142 559 return
          </CharString>
          <CharString index="252">
            hlineto
            -1 -3 0 -4 -3 -20 callgsubr
            126 return
          </CharString>
          <CharString index="253">
            69 callgsubr
            hlineto
            endchar
          </CharString>
          <CharString index="254">
            23 37 67 27 62 hhcurveto
            64 43 -26 -38 30 hvcurveto
            -282 -170 71 -108 return
          </CharString>
          <CharString index="255">
            hhcurveto
            -71 -37 24 52 -19 179 callgsubr
            return
          </CharString>
          <CharString index="256">
            -83 -10 vlineto
            -117 -3 -79 -50 -37 -69 rrcurveto
            383 205 186 callsubr
            return
          </CharString>
          <CharString index="257">
            36 -80 -8 callsubr
          </CharString>
          <CharString index="258">
            -115 hlineto
            183 callsubr
            return
          </CharString>
          <CharString index="259">
            rmoveto
            176 117 112 return
          </CharString>
          <CharString index="260">
            -49 -39 -16 -25 -29 hvcurveto
            100 return
          </CharString>
          <CharString index="261">
            -56 -40 22 49 -21 hvcurveto
            68 23 63 46 93 vvcurveto
            37 -10 32 -11 17 vhcurveto
            return
          </CharString>
          <CharString index="262">
            rmoveto
            -41 35 -35 41 41 35 35 41 41 -35 35 -41 -41 -35 -35 -41 vhcurveto
            return
          </CharString>
          <CharString index="263">
            -77 callsubr
            -48 -45 return
          </CharString>
          <CharString index="264">
            149 vhcurveto
            155 3 return
          </CharString>
          <CharString index="265">
            -30 -2 callsubr
            -112 return
          </CharString>
          <CharString index="266" raw="1">
            1ebbf70a 6306516c 9db60b 
          </CharString>
          <CharString index="267">
            130 vlineto
            19 -39 -38 6 -45 hhcurveto
            -102 -67 -68 -100 hvcurveto
            -87 vlineto
            return
          </CharString>
          <CharString index="268">
            hhcurveto
            -20 -36 -4 -8 -24 hvcurveto
            -123 vlineto
            13 31 22 1 13 hhcurveto
            return
          </CharString>
          <CharString index="269">
            -8 15 -5 17 18 vvcurveto
            44 34 25 39 37 30 -15 -11 21 vhcurveto
            return
          </CharString>
          <CharString index="270">
            140 -30 callsubr
          </CharString>
          <CharString index="271">
            142 121 callgsubr
          </CharString>
          <CharString index="272">
            131 112 return
          </CharString>
          <CharString index="273">
            497 rmoveto
            5 -19 -26 3 -25 hhcurveto
            -136 -87 -93 -120 return
          </CharString>
          <CharString index="274">
            -227 45 202 rmoveto
            267 120 -267 hlineto
            endchar
          </CharString>
          <CharString index="275">
            -173 -3 -119 -71 -118 vvcurveto
            return
          </CharString>
          <CharString index="276">
            25 vvcurveto
            21 20 9 37 vhcurveto
            return
          </CharString>
          <CharString index="277">
            -188 -138 -70 -132 return
          </CharString>
          <CharString index="278">
            -134 102 -72 126 return
          </CharString>
          <CharString index="279">
            44 29 2 15 71 return
          </CharString>
          <CharString index="280">
            -185 151 -130 -151 -184 -118 184 return
          </CharString>
          <CharString index="281">
            hlineto
            4 -10 5 -12 7 -14 36 -77 rcurveline
            122 126 return
          </CharString>
          <CharString index="282">
            -2 callsubr
            -293 -153 153 vlineto
            137 callgsubr
            return
          </CharString>
          <CharString index="283">
            -96 -359 151 callsubr
            return
          </CharString>
          <CharString index="284">
            184 callgsubr
            115 callgsubr
            return
          </CharString>
          <CharString index="285">
            vhcurveto
            121 vlineto
            return
          </CharString>
          <CharString index="286">
            -98 -77 -60 -88 -84 62 -54 78 15 20 3 5 16 return
          </CharString>
          <CharString index="287">
            158 callgsubr
            rlinecurve
            -24 -26 -2 -5 -26 hvcurveto
            return
          </CharString>
          <CharString index="288">
            -12 -29 callsubr
            return
          </CharString>
          <CharString index="289">
            296 48 callgsubr
            return
          </CharString>
          <CharString index="290">
            97 46 -36 -55 204 callsubr
            return
          </CharString>
          <CharString index="291">
            -28 callsubr
            vlineto
            -143 return
          </CharString>
          <CharString index="292">
            138 -80 callgsubr
            return
          </CharString>
          <CharString index="293">
            rmoveto
            97 112 return
          </CharString>
          <CharString index="294">
            rlineto
            139 hlineto
            return
          </CharString>
          <CharString index="295">
            81 10 51 44 78 vvcurveto
            29 -9 28 -17 22 vhcurveto
            return
          </CharString>
          <CharString index="296">
            vvcurveto
            -86 69 -76 121 96 57 38 39 28 vhcurveto
            return
          </CharString>
          <CharString index="297">
            16 -33 -49 10 -41 hhcurveto
            -118 -86 -79 -108 return
          </CharString>
          <CharString index="298">
            hlineto
            -85 callsubr
            305 return
          </CharString>
          <CharString index="299">
            17 -25 -31 11 -41 hhcurveto
            -78 -46 -41 -52 -20 hvcurveto
            return
          </CharString>
          <CharString index="300">
            508 -2 callsubr
            -538 -112 538 hlineto
            return
          </CharString>
          <CharString index="301">
            27 callsubr
            176 return
          </CharString>
          <CharString index="302">
            hlineto
            111 177 rlineto
            return
          </CharString>
          <CharString index="303">
            -30 -17 -14 -30 -37 vvcurveto
            return
          </CharString>
          <CharString index="304">
            115 -359 -115 return
          </CharString>
          <CharString index="305">
            33 157 rlineto
            -124 hlineto
            -33 -157 rlineto
            return
          </CharString>
          <CharString index="306">
            vlineto
            61 39 32 50 53 34 -38 -42 11 vhcurveto
            return
          </CharString>
          <CharString index="307">
            -110 83 -47 99 14 25 2 9 22 vhcurveto
            return
          </CharString>
          <CharString index="308">
            hlineto
            196 callsubr
            return
          </CharString>
          <CharString index="309">
            499 120 -499 hlineto
            return
          </CharString>
          <CharString index="310">
            -88 46 -70 78 -27 return
          </CharString>
          <CharString index="311">
            -56 -38 -26 -61 return
          </CharString>
          <CharString index="312">
            hlineto
            238 -11 callsubr
            -921 -112 return
          </CharString>
          <CharString index="313">
            -189 vlineto
            -11 -3 -10 -6 -7 -7 rrcurveto
            return
          </CharString>
          <CharString index="314">
            -8 -18 -17 -3 -16 hhcurveto
            -37 -22 22 25 return
          </CharString>
          <CharString index="315" raw="1">
            1fbbf70a 6306516c 9db60b 
          </CharString>
          <CharString index="316">
            162 147 return
          </CharString>
        <CharString name=".notdef">
          172 160 hmoveto
          436 701 -436 hlineto
          81 -76 rmoveto
          275 -549 -275 hlineto
          endchar
        </CharString>
        <CharString name="A">
          106 262 262 -88 callgsubr
        </CharString>
        <CharString name="AE">
          356 301 262 rmoveto
          12 24 68 134 56 117 30 77 rlinecurve
          -352 vlineto
          149 -139 rmoveto
          153 232 122 -232 153 260 123 -543 vlineto
          -325 -674 rlineto
          161 hlineto
          69 138 rlineto
          229 -138 413 123 hlineto
          endchar
        </CharString>
        <CharString name="Aacute">
          106 527 898 13 callsubr
          -154 -459 -88 callgsubr
        </CharString>
        <CharString name="Abreve">
          106 428 898 18 callgsubr
          -278 -636 -88 callgsubr
        </CharString>
        <CharString name="Acircumflex">
          106 346 817 5 callsubr
          -5 -459 -88 callgsubr
        </CharString>
        <CharString name="Adieresis">
          106 486 728 -56 callgsubr
          44 -466 -88 callgsubr
        </CharString>
        <CharString name="Agrave">
          106 406 721 70 callsubr
          -23 -459 -88 callgsubr
        </CharString>
        <CharString name="Amacron">
          106 527 860 153 callgsubr
          -265 -499 -88 callgsubr
        </CharString>
        <CharString name="Aogonek">
          96 257 262 rmoveto
          7 24 rlineto
          66 221 8 55 0 vvcurveto
          0 8 -55 66 -221 vhcurveto
          7 -24 rlineto
          18 412 rmoveto
          -194 hlineto
          -225 -674 rlineto
          161 hlineto
          41 138 rlineto
          236 hlineto
          41 -138 rlineto
          0 vlineto
          -38 -35 -31 -48 -60 -48 callgsubr
          endchar
        </CharString>
        <CharString name="Aring">
          106 349 905 16 callgsubr
          -87 -448 -88 callgsubr
        </CharString>
        <CharString name="Atilde">
          106 471 887 -60 callsubr
          -283 -564 -88 callgsubr
        </CharString>
        <CharString name="B">
          21 219 123 rmoveto
          156 82 vlineto
          86 27 -36 -42 -50 -36 -28 -78 hvcurveto
          -81 428 rmoveto
          82 hlineto
          67 29 -26 -45 -45 -38 -35 -83 hvcurveto
          -57 hlineto
          -154 274 rmoveto
          -674 291 vlineto
          135 79 79 104 94 -56 46 -61 18 hvcurveto
          59 19 42 57 71 vvcurveto
          101 -71 85 -156 vhcurveto
          endchar
        </CharString>
        <CharString name="C">
          29 563 645 -47 callsubr
          endchar
        </CharString>
        <CharString name="CR">
          -584 endchar
        </CharString>
        <CharString name="Cacute">
          29 563 645 -47 callsubr
          -259 224 -40 callsubr
          endchar
        </CharString>
        <CharString name="Ccaron">
          29 563 645 -47 callsubr
          -141 224 -76 callgsubr
          endchar
        </CharString>
        <CharString name="Ccedilla">
          29 318 -51 rmoveto
          10 -13 16 -23 -26 vvcurveto
          -39 -26 -25 -49 vhcurveto
          -91 vlineto
          124 55 65 78 26 -5 29 -12 19 hvcurveto
          132 696 -47 callsubr
          endchar
        </CharString>
        <CharString name="D">
          99 223 126 rmoveto
          421 55 callsubr
          -674 42 callgsubr
        </CharString>
        <CharString name="Dcaron">
          99 382 721 -76 callgsubr
          -35 -595 rmoveto
          421 55 callsubr
          -674 42 callgsubr
        </CharString>
        <CharString name="Dcroat">
          22 callsubr
        </CharString>
        <CharString name="E">
          -40 220 123 rmoveto
          153 -32 callgsubr
          vlineto
          endchar
        </CharString>
        <CharString name="Eacute">
          -40 454 898 13 callsubr
          -123 -598 rmoveto
          153 -32 callgsubr
          vlineto
          endchar
        </CharString>
        <CharString name="Ecaron">
          -40 341 721 -76 callgsubr
          3 -445 rmoveto
          -32 callgsubr
          -264 hlineto
          endchar
        </CharString>
        <CharString name="Ecircumflex">
          -40 272 817 5 callsubr
          27 -445 rmoveto
          -32 callgsubr
          -264 hlineto
          endchar
        </CharString>
        <CharString name="Edieresis">
          -40 406 727 -56 callgsubr
          82 -451 rmoveto
          -32 callgsubr
          -264 hlineto
          endchar
        </CharString>
        <CharString name="Edotaccent">
          -40 282 728 rmoveto
          -15 callgsubr
          -62 -605 rmoveto
          153 -32 callgsubr
          vlineto
          endchar
        </CharString>
        <CharString name="Egrave">
          -40 346 721 70 callsubr
          -5 -598 rmoveto
          153 -32 callgsubr
          vlineto
          endchar
        </CharString>
        <CharString name="Emacron">
          -40 450 863 153 callgsubr
          -230 -641 rmoveto
          153 -32 callgsubr
          vlineto
          endchar
        </CharString>
        <CharString name="Eogonek">
          -40 484 123 rmoveto
          -264 153 232 122 -232 153 260 123 -415 -674 264 hlineto
          -43 -35 -36 -48 -60 -48 callgsubr
          endchar
        </CharString>
        <CharString name="Eth">
          22 callsubr
        </CharString>
        <CharString name="Euro">
          38 582 625 rmoveto
          24 -40 -41 14 -80 hhcurveto
          -129 -117 -75 -143 -43 hvcurveto
          -92 -90 76 hlineto
          -1 -11 0 -12 -12 vvcurveto
          -10 0 -9 1 -10 vhcurveto
          -76 -90 93 hlineto
          -125 41 106 -84 146 hhcurveto
          88 35 17 18 33 hvcurveto
          148 vlineto
          -26 -32 -43 -23 -67 hhcurveto
          -63 -50 27 48 -29 hvcurveto
          179 90 -207 hlineto
          -1 9 0 9 10 vvcurveto
          12 1 12 1 12 vhcurveto
          206 90 -178 hlineto
          51 30 51 30 65 hhcurveto
          65 40 -22 -26 32 hvcurveto
          endchar
        </CharString>
        <CharString name="F">
          -78 476 551 rmoveto
          123 -411 -674 155 254 223 123 -223 174 vlineto
          endchar
        </CharString>
        <CharString name="G">
          122 646 402 -35 callgsubr
        </CharString>
        <CharString name="Gbreve">
          122 464 898 18 callgsubr
          70 -496 -35 callgsubr
        </CharString>
        <CharString name="H">
          102 466 674 rmoveto
          -274 -247 274 -154 -674 154 269 247 -269 155 674 vlineto
          endchar
        </CharString>
        <CharString name="I">
          71 callgsubr
          endchar
        </CharString>
        <CharString name="Iacute">
          71 callgsubr
          19 47 -40 callsubr
          endchar
        </CharString>
        <CharString name="Icircumflex">
          -280 92 898 -10 callgsubr
          -141 -898 rmoveto
          154 674 -154 hlineto
          endchar
        </CharString>
        <CharString name="Idieresis">
          71 callgsubr
          -134 136 -57 callsubr
          endchar
        </CharString>
        <CharString name="Idotaccent">
          71 callgsubr
          -4 136 -36 callgsubr
          endchar
        </CharString>
        <CharString name="Igrave">
          71 callgsubr
          47 224 56 callgsubr
        </CharString>
        <CharString name="Imacron">
          71 callgsubr
          255 86 144 callgsubr
          endchar
        </CharString>
        <CharString name="Iogonek">
          -280 229 674 rmoveto
          -154 -673 hlineto
          -43 -35 -37 -49 -60 -48 callgsubr
          endchar
        </CharString>
        <CharString name="J">
          -192 30 19 rmoveto
          -13 25 45 -7 37 hhcurveto
          123 72 75 130 hvcurveto
          469 -154 -465 vlineto
          -53 -26 -23 -45 -29 -27 10 13 -21 vhcurveto
          endchar
        </CharString>
        <CharString name="K">
          78 65 hmoveto
          154 674 -154 hlineto
          341 -337 133 callsubr
        </CharString>
        <CharString name="L">
          -96 219 135 rmoveto
          539 157 callgsubr
          vlineto
          endchar
        </CharString>
        <CharString name="Lacute">
          -96 488 898 13 callsubr
          -158 -47 rmoveto
          157 callgsubr
          -249 hlineto
          endchar
        </CharString>
        <CharString name="Lcaron">
          -96 501 699 rmoveto
          -151 hlineto
          -71 -211 rlineto
          106 hlineto
          -166 186 rmoveto
          157 callgsubr
          -249 hlineto
          endchar
        </CharString>
        <CharString name="Lslash">
          -21 279 135 rmoveto
          156 vlineto
          164 92 rlineto
          121 vlineto
          -164 -92 rlineto
          262 -154 -348 vlineto
          -80 -45 rlineto
          -121 vlineto
          80 45 rlineto
          -205 403 135 vlineto
          endchar
        </CharString>
        <CharString name="M">
          309 50 hmoveto
          154 hlineto
          21 261 rlineto
          5 70 4 69 58 vvcurveto
          0 14 -58 51 -139 vhcurveto
          94 -254 rlineto
          91 hlineto
          95 254 rlineto
          46 122 26 75 0 vvcurveto
          0 2 -76 11 -121 vhcurveto
          25 -261 rlineto
          154 hlineto
          -70 674 rlineto
          -169 hlineto
          -95 -244 rlineto
          -54 -138 -16 -66 0 vvcurveto
          0 -15 67 -53 137 vhcurveto
          -94 244 rlineto
          -169 hlineto
          endchar
        </CharString>
        <CharString name="N">
          113 65 hmoveto
          52 callsubr
        </CharString>
        <CharString name="NULL">
          -584 endchar
        </CharString>
        <CharString name="Nacute">
          113 302 721 -40 callsubr
          -323 -898 49 callgsubr
        </CharString>
        <CharString name="Ncaron">
          113 65 hmoveto
          -61 callsubr
          350 47 -76 callgsubr
          endchar
        </CharString>
        <CharString name="Ntilde">
          113 65 hmoveto
          -61 callsubr
          413 213 -60 callsubr
          endchar
        </CharString>
        <CharString name="O">
          30 callsubr
          endchar
        </CharString>
        <CharString name="OE">
          416 363 133 rmoveto
          -100 -58 80 126 126 58 80 100 100 58 -80 -126 -126 -58 -80 -100 hvcurveto
          303 -10 rmoveto
          153 242 122 -242 153 270 123 -415 -39 vlineto
          32 -45 -53 18 -60 hhcurveto
          -200 -123 -140 -206 -207 122 -139 201 60 53 18 33 45 hvcurveto
          -44 419 123 vlineto
          endchar
        </CharString>
        <CharString name="Oacute">
          152 311 721 -40 callsubr
          -357 -559 -83 callgsubr
          endchar
        </CharString>
        <CharString name="Ocircumflex">
          152 205 339 rmoveto
          126 63 80 100 100 63 -80 -126 -126 -63 -80 -100 -100 -63 80 126 vhcurveto
          -165 hmoveto
          -207 127 -139 201 200 128 140 206 207 -127 139 -201 -200 -128 -140 -206 vhcurveto
          270 559 -10 callgsubr
          endchar
        </CharString>
        <CharString name="Odieresis">
          152 160 810 -57 callsubr
          -388 -471 -83 callgsubr
          endchar
        </CharString>
        <CharString name="Ograve">
          30 callsubr
          147 559 56 callgsubr
        </CharString>
        <CharString name="Ohungarumlaut">
          152 415 721 9 callsubr
          -274 -559 -83 callgsubr
          endchar
        </CharString>
        <CharString name="Omacron">
          152 545 760 144 callgsubr
          -149 -421 -83 callgsubr
          endchar
        </CharString>
        <CharString name="Oslash">
          130 519 445 rmoveto
          11 -29 6 -36 -41 vvcurveto
          -131 -66 -83 -104 -27 -24 5 10 -21 vhcurveto
          -80 90 rmoveto
          -12 30 -6 37 42 vvcurveto
          131 66 83 104 28 25 -6 -10 22 vhcurveto
          254 147 rmoveto
          -145 hlineto
          -25 -34 rlineto
          23 -46 -53 12 -60 hhcurveto
          -200 -128 -140 -206 -98 28 -82 51 -60 hvcurveto
          -78 -106 rlineto
          146 hlineto
          25 34 rlineto
          -22 45 52 -12 59 hhcurveto
          200 128 140 206 97 -28 82 -50 59 hvcurveto
          endchar
        </CharString>
        <CharString name="Otilde">
          30 callsubr
          287 547 -60 callsubr
          endchar
        </CharString>
        <CharString name="P">
          -21 219 340 rmoveto
          211 76 vlineto
          64 -4 33 -50 -46 vvcurveto
          -57 -33 -46 -64 -8 vhcurveto
          -230 334 rmoveto
          -674 154 218 78 vlineto
          133 118 77 156 127 -99 96 -152 hvcurveto
          endchar
        </CharString>
        <CharString name="Q">
          157 205 339 rmoveto
          126 63 80 100 100 63 -80 -126 -126 -63 -80 -100 -100 -63 80 126 vhcurveto
          533 -423 rmoveto
          -206 115 rlineto
          103 55 61 111 142 vvcurveto
          207 -127 139 -201 -200 -128 -140 -206 -206 125 -138 199 -2 vhcurveto
          199 -144 rlineto
          endchar
        </CharString>
        <CharString name="R">
          30 219 549 -8 callgsubr
        </CharString>
        <CharString name="Racute">
          30 466 898 13 callsubr
          -136 -172 -8 callgsubr
        </CharString>
        <CharString name="Rcaron">
          30 378 721 -76 callgsubr
          -35 -172 -8 callgsubr
        </CharString>
        <CharString name="S">
          -70 454 644 -79 callgsubr
          endchar
        </CharString>
        <CharString name="Sacute">
          -70 202 721 -40 callsubr
          166 -254 -79 callgsubr
          endchar
        </CharString>
        <CharString name="Scaron">
          -70 454 644 -79 callgsubr
          -126 221 -76 callgsubr
          endchar
        </CharString>
        <CharString name="T">
          -40 514 674 66 callsubr
        </CharString>
        <CharString name="Tcaron">
          -40 334 721 -76 callgsubr
          304 -47 66 callsubr
        </CharString>
        <CharString name="Thorn">
          -21 219 232 rmoveto
          209 66 vlineto
          84 23 -58 -47 -57 -32 -47 -75 hvcurveto
          -66 332 rmoveto
          110 -154 -674 154 110 78 vlineto
          133 118 76 156 127 -99 95 -152 hvcurveto
          endchar
        </CharString>
        <CharString name="U">
          84 454 260 15 callgsubr
        </CharString>
        <CharString name="Uacute">
          84 287 721 -40 callsubr
          81 -638 15 callgsubr
        </CharString>
        <CharString name="Ucircumflex">
          84 454 260 -65 callgsubr
          -184 224 -10 callgsubr
          endchar
        </CharString>
        <CharString name="Udieresis">
          84 122 809 -57 callsubr
          64 -549 15 callgsubr
        </CharString>
        <CharString name="Ugrave">
          84 454 260 -65 callgsubr
          -138 224 56 callgsubr
        </CharString>
        <CharString name="Uhungarumlaut">
          84 454 260 -65 callgsubr
          -77 47 9 callsubr
          endchar
        </CharString>
        <CharString name="Umacron">
          84 454 260 -65 callgsubr
          66 86 144 callgsubr
          endchar
        </CharString>
        <CharString name="Uogonek">
          84 454 674 rmoveto
          -414 vlineto
          -102 -54 -28 -66 -63 -57 28 97 vhcurveto
          419 -154 -420 vlineto
          -152 88 -88 129 -20 vhcurveto
          -35 -34 -28 -43 -52 -48 callgsubr
          98 34 62 85 134 vvcurveto
          413 vlineto
          endchar
        </CharString>
        <CharString name="Uring">
          84 200 846 82 callsubr
          171 -589 15 callgsubr
        </CharString>
        <CharString name="V">
          75 640 674 rmoveto
          -164 hlineto
          -81 -269 rlineto
          -49 -162 -16 -104 0 vvcurveto
          0 -15 104 -49 162 vhcurveto
          -81 269 rlineto
          -166 hlineto
          224 -674 rlineto
          170 hlineto
          endchar
        </CharString>
        <CharString name="W">
          387 431 664 rmoveto
          -67 -238 rlineto
          -51 -180 -17 -78 0 vvcurveto
          0 -9 78 -44 180 vhcurveto
          -62 248 rlineto
          -162 hlineto
          181 -674 rlineto
          172 hlineto
          62 213 rlineto
          51 172 3 41 0 vvcurveto
          0 5 -40 48 -173 vhcurveto
          59 -213 rlineto
          172 hlineto
          180 674 rlineto
          -157 hlineto
          -62 -247 rlineto
          -43 -170 -13 -89 0 vvcurveto
          0 -19 89 -47 169 vhcurveto
          -66 238 rlineto
          endchar
        </CharString>
        <CharString name="X">
          79 240 342 rmoveto
          -213 -342 rlineto
          186 hlineto
          39 70 40 68 39 72 122 -210 rcurveline
          183 hlineto
          -217 341 204 333 rlineto
          -188 hlineto
          -35 -65 -37 -66 -35 -66 -112 197 rcurveline
          -179 hlineto
          endchar
        </CharString>
        <CharString name="Y">
          59 630 674 9 callgsubr
        </CharString>
        <CharString name="Yacute">
          59 507 898 13 callsubr
          234 -47 9 callgsubr
        </CharString>
        <CharString name="Ydieresis">
          59 463 727 -56 callgsubr
          435 -53 9 callgsubr
        </CharString>
        <CharString name="Z">
          37 549 674 11 callgsubr
          endchar
        </CharString>
        <CharString name="Zacute">
          37 272 721 -40 callsubr
          191 -224 11 callgsubr
          endchar
        </CharString>
        <CharString name="Zcaron">
          37 549 674 11 callgsubr
          -167 156 -76 callgsubr
          endchar
        </CharString>
        <CharString name="Zdotaccent">
          37 549 674 11 callgsubr
          -303 245 -36 callgsubr
          endchar
        </CharString>
        <CharString name="a">
          -68 311 208 -94 callgsubr
        </CharString>
        <CharString name="aacute">
          -68 426 731 13 callsubr
          -4 -346 -94 callgsubr
        </CharString>
        <CharString name="abreve">
          -68 343 730 18 callgsubr
          -144 -522 -94 callgsubr
        </CharString>
        <CharString name="acircumflex">
          -68 256 650 5 callsubr
          134 -346 -94 callgsubr
        </CharString>
        <CharString name="acute">
          -84 134 621 -40 callsubr
          endchar
        </CharString>
        <CharString name="adieresis">
          -68 399 561 -56 callgsubr
          180 -353 -94 callgsubr
        </CharString>
        <CharString name="ae">
          224 316 171 rmoveto
          -43 -23 -28 -42 -40 -19 18 33 33 27 24 50 vhcurveto
          47 hlineto
          316 92 rmoveto
          -176 hlineto
          69 13 42 32 43 hhcurveto
          56 18 -40 -50 4 hvcurveto
          128 -115 rmoveto
          3 21 5 36 22 vvcurveto
          162 -89 75 -131 -66 -60 -26 -44 -31 vhcurveto
          44 -21 -55 30 -73 hhcurveto
          -79 -54 -17 -17 -30 hvcurveto
          -131 vlineto
          25 38 55 21 59 hhcurveto
          65 20 -26 -38 hvcurveto
          -35 -64 vlineto
          -144 -68 -60 -94 -88 62 -60 116 105 51 50 42 18 hvcurveto
          -67 40 86 -26 67 hhcurveto
          52 64 11 23 36 hvcurveto
          122 vlineto
          -24 -32 -42 -19 -60 hhcurveto
          -68 -53 31 57 -21 hvcurveto
          endchar
        </CharString>
        <CharString name="agrave">
          -68 326 554 70 callsubr
          106 -346 -94 callgsubr
        </CharString>
        <CharString name="amacron">
          -68 436 692 153 callgsubr
          -125 -385 -94 callgsubr
        </CharString>
        <CharString name="ampersand">
          158 425 130 rmoveto
          -12 -28 -31 -6 -30 hhcurveto
          -79 -58 32 45 34 14 27 65 23 hvcurveto
          7 -7 7 -6 6 -6 rrcurveto
          41 315 rmoveto
          47 30 -27 -50 -29 -13 -38 -62 -34 hvcurveto
          -36 36 -33 38 39 vvcurveto
          44 31 21 36 vhcurveto
          398 -569 rmoveto
          -125 123 rlineto
          36 50 20 61 67 vvcurveto
          -131 hlineto
          -33 -7 -28 -11 -24 vhcurveto
          -98 96 rlineto
          103 52 39 60 76 vvcurveto
          119 -85 69 -139 -118 -97 -62 -124 -58 31 -49 37 -41 vhcurveto
          -105 -34 -37 -58 -78 vvcurveto
          -102 102 -90 183 70 62 17 30 52 vhcurveto
          39 -39 rlineto
          endchar
        </CharString>
        <CharString name="aogonek">
          -73 311 208 rmoveto
          -37 vlineto
          -43 -23 -28 -42 -40 -19 18 33 33 27 24 50 vhcurveto
          197 117 rmoveto
          131 -71 60 -143 -79 -64 -17 -17 -30 vhcurveto
          -131 vlineto
          25 38 55 21 59 hhcurveto
          65 20 -26 -38 hvcurveto
          -35 -64 vlineto
          -144 -68 -60 -94 -81 55 -66 102 74 36 33 32 16 hvcurveto
          -52 vlineto
          -48 -36 -43 -52 -65 -48 callgsubr
          endchar
        </CharString>
        <CharString name="apostrophemod">
          -317 28 433 69 callsubr
        </CharString>
        <CharString name="approxequal">
          5 473 329 85 callgsubr
          -92 278 85 callgsubr
          endchar
        </CharString>
        <CharString name="aring">
          -68 260 738 16 callgsubr
          51 -335 -94 callgsubr
        </CharString>
        <CharString name="asciicircum">
          -93 458 332 rmoveto
          -151 262 rlineto
          -123 hlineto
          -151 -262 rlineto
          135 hlineto
          78 146 77 -146 rlineto
          endchar
        </CharString>
        <CharString name="asciitilde">
          70 524 379 rmoveto
          -35 -30 -25 -24 -48 -62 -41 49 -118 hhcurveto
          -76 -63 -62 -47 -33 hvcurveto
          101 -80 rlineto
          35 30 25 23 48 76 37 -49 107 hhcurveto
          84 56 62 47 33 hvcurveto
          endchar
        </CharString>
        <CharString name="asterisk">
          -76 339 428 rmoveto
          15 16 2 6 19 hvcurveto
          92 30 -36 112 -94 -30 -18 -6 -14 -7 -12 -9 rlinecurve
          4 14 3 17 19 vvcurveto
          98 -118 -98 vlineto
          -19 3 -17 4 -14 vhcurveto
          -12 9 -15 8 -18 6 -93 30 rcurveline
          -37 -112 94 -31 rlineto
          -6 17 17 -3 15 hhcurveto
          -13 -10 -12 -12 -10 -13 -58 -79 rcurveline
          95 -70 59 80 11 15 8 14 5 13 rlinecurve
          4 -14 7 -14 11 -15 57 -79 rcurveline
          96 69 -58 80 -11 15 -13 12 -12 9 rlinecurve
          endchar
        </CharString>
        <CharString name="at">
          393 476 105 rmoveto
          -46 -43 38 64 88 49 45 52 41 40 -30 -66 8 hvcurveto
          -13 -1 -14 -13 vvcurveto
          -67 -14 -45 -32 -41 hhcurveto
          192 -157 rmoveto
          -31 -65 -75 -15 -61 hhcurveto
          -162 -137 107 187 182 133 175 213 168 140 -87 -199 -97 -33 -57 -46 -28 -23 24 84 26 4 55 8 120 hvcurveto
          1 20 rlineto
          -116 hlineto
          -1 -24 -2 -23 -2 -24 rrcurveto
          50 -27 -43 23 -50 hhcurveto
          -106 -99 -87 -144 -114 63 -98 112 66 58 35 73 28 hvcurveto
          -59 19 46 -50 88 hhcurveto
          110 93 117 160 246 -201 148 -222 -261 -218 -207 -264 -221 150 -195 278 58 73 12 29 65 hvcurveto
          endchar
        </CharString>
        <CharString name="atilde">
          -68 380 720 -60 callsubr
          -143 -451 -94 callgsubr
        </CharString>
        <CharString name="b">
          27 318 116 rmoveto
          -66 -46 55 88 90 57 43 56 58 51 -48 -92 -84 -50 -52 -60 hvcurveto
          -112 591 rmoveto
          -146 -707 146 79 hlineto
          -60 36 57 -25 59 hhcurveto
          138 80 125 136 165 -96 93 -123 -60 -56 -27 -57 -35 hvcurveto
          endchar
        </CharString>
        <CharString name="backslash">
          -120 107 707 rmoveto
          -152 hlineto
          360 -810 rlineto
          151 hlineto
          endchar
        </CharString>
        <CharString name="bar">
          -304 70 -194 rmoveto
          140 889 -140 hlineto
          endchar
        </CharString>
        <CharString name="braceleft">
          -204 40 325 rmoveto
          -141 vlineto
          0 7 1 10 55 30 -50 -47 vhcurveto
          -34 -12 -38 -42 vvcurveto
          -104 66 -76 93 21 22 4 8 23 vhcurveto
          135 vlineto
          -6 -10 -11 -3 -10 hhcurveto
          -27 -24 22 33 hvcurveto
          28 12 43 44 vvcurveto
          85 -56 60 -60 8 vhcurveto
          60 8 56 59 85 44 -12 43 28 vvcurveto
          33 24 22 27 10 11 -3 -6 10 vhcurveto
          135 vlineto
          8 -23 -22 4 -21 hhcurveto
          -93 -66 -76 -104 hvcurveto
          -42 12 -38 -34 vvcurveto
          -47 -30 -49 -55 vhcurveto
          endchar
        </CharString>
        <CharString name="braceright">
          -204 323 325 rmoveto
          -55 -30 49 47 hvcurveto
          34 12 38 42 vvcurveto
          104 -66 76 -93 -21 -22 -4 -8 -23 vhcurveto
          -135 vlineto
          6 10 11 3 10 hhcurveto
          27 24 -22 -33 hvcurveto
          -28 -12 -43 -44 vvcurveto
          -85 56 -59 60 -8 vhcurveto
          -60 -8 -56 -60 -85 -44 12 -43 -28 vvcurveto
          -33 -24 -22 -27 -10 -11 3 6 -10 vhcurveto
          -135 vlineto
          -8 23 22 -4 21 hhcurveto
          93 66 76 104 hvcurveto
          42 -12 38 34 vvcurveto
          47 30 50 55 10 7 -1 0 vhcurveto
          141 vlineto
          endchar
        </CharString>
        <CharString name="bracketleft">
          -221 348 580 rmoveto
          127 -283 -903 283 128 -145 648 vlineto
          endchar
        </CharString>
        <CharString name="bracketright">
          -221 298 707 rmoveto
          -283 -127 145 -648 -145 -128 283 hlineto
          endchar
        </CharString>
        <CharString name="breve">
          -84 52 798 rmoveto
          -131 88 -50 110 110 88 50 131 vhcurveto
          -112 hlineto
          -58 -36 -31 -50 -50 -36 31 58 vhcurveto
          endchar
        </CharString>
        <CharString name="brokenbar">
          -304 210 369 rmoveto
          338 -140 -338 vlineto
          140 -486 rmoveto
          338 -140 -338 vlineto
          endchar
        </CharString>
        <CharString name="bullet">
          -159 80 356 rmoveto
          -75 56 -58 77 74 58 58 75 75 -58 58 -75 -76 -56 -58 -75 vhcurveto
          endchar
        </CharString>
        <CharString name="c">
          -115 183 252 rmoveto
          114 callgsubr
          125 vlineto
          -31 callgsubr
          endchar
        </CharString>
        <CharString name="cacute">
          -115 237 553 -40 callsubr
          -140 -478 rmoveto
          114 callgsubr
          125 vlineto
          -31 callgsubr
          endchar
        </CharString>
        <CharString name="caron">
          -84 312 621 -76 callgsubr
          endchar
        </CharString>
        <CharString name="ccaron">
          -115 439 486 rmoveto
          -31 callgsubr
          114 callgsubr
          -102 192 -76 callgsubr
          endchar
        </CharString>
        <CharString name="ccedilla">
          -115 183 252 rmoveto
          114 callgsubr
          125 vlineto
          -31 callgsubr
          186 -377 3 callsubr
        </CharString>
        <CharString name="cedilla">
          -84 339 -125 3 callsubr
        </CharString>
        <CharString name="cent">
          -106 438 483 rmoveto
          -27 14 -26 8 -26 5 rrcurveto
          110 -122 -112 vlineto
          -130 -26 -75 -104 -2 -126 rrcurveto
          -134 87 -97 121 -24 vhcurveto
          -108 121 109 vlineto
          29 5 27 9 23 12 rrcurveto
          122 vlineto
          -23 -38 -43 -12 -40 hhcurveto
          -79 -55 52 89 -5 hvcurveto
          95 1 63 47 78 hhcurveto
          40 43 -11 -22 35 hvcurveto
          endchar
        </CharString>
        <CharString name="circumflex">
          -84 188 798 -10 callgsubr
          endchar
        </CharString>
        <CharString name="colon">
          -298 55 419 rmoveto
          107 callsubr
          -331 vmoveto
          107 callsubr
          endchar
        </CharString>
        <CharString name="comma">
          -290 -7 -127 69 callsubr
        </CharString>
        <CharString name="copyright">
          177 35 338 rmoveto
          -191 155 -155 191 190 155 155 191 190 -155 155 -190 -191 -155 -155 -190 vhcurveto
          97 -1 rmoveto
          143 105 105 144 143 105 -105 -143 -145 -105 -104 -143 -144 -105 104 145 vhcurveto
          202 hmoveto
          53 1 40 22 32 hhcurveto
          28 28 -7 -15 24 hvcurveto
          94 vlineto
          17 -32 -31 5 -27 hhcurveto
          -108 -67 -70 -99 -1 hvcurveto
          -103 82 -63 88 35 35 7 14 26 vhcurveto
          95 vlineto
          -16 -26 -29 -8 -27 hhcurveto
          -36 -32 26 48 -3 hvcurveto
          endchar
        </CharString>
        <CharString name="currency">
          -13 58 311 rmoveto
          -40 11 -40 18 -32 vhcurveto
          -59 -57 85 -82 58 57 rlineto
          -18 34 39 -9 42 hhcurveto
          42 38 9 17 33 hvcurveto
          59 -56 85 82 -59 57 rlineto
          18 32 12 40 40 vvcurveto
          40 -12 39 -17 31 vhcurveto
          58 57 -85 82 -58 -56 rlineto
          17 -33 -39 10 -42 hhcurveto
          -43 -39 -10 -18 -33 hvcurveto
          -58 57 -85 -82 58 -57 rlineto
          -17 -31 -11 -40 -39 vvcurveto
          122 hmoveto
          57 43 50 63 63 43 -50 -57 -57 -43 -50 -63 -63 -43 50 57 vhcurveto
          endchar
        </CharString>
        <CharString name="d">
          27 38 callsubr
          112 591 rmoveto
          -278 vlineto
          56 callsubr
          707 vlineto
          endchar
        </CharString>
        <CharString name="dagger">
          -25 529 523 rmoveto
          173 callsubr
          -405 130 405 185 hlineto
          endchar
        </CharString>
        <CharString name="daggerdbl">
          5 544 405 rmoveto
          118 173 callsubr
          -136 -184 -118 184 -151 130 151 185 118 -185 136 vlineto
          endchar
        </CharString>
        <CharString name="danda">
          -107 215 hmoveto
          203 callgsubr
          endchar
        </CharString>
        <CharString name="dcaron">
          161 38 callsubr
          112 313 rmoveto
          56 callsubr
          707 -146 vlineto
          265 1 rmoveto
          -71 -211 rlineto
          106 hlineto
          116 211 rlineto
          endchar
        </CharString>
        <CharString name="dcroat">
          27 38 callsubr
          315 530 rmoveto
          -57 61 -146 -61 -151 -82 151 -135 hlineto
          56 callsubr
          564 57 vlineto
          endchar
        </CharString>
        <CharString name="degree">
          -144 30 495 97 callsubr
          102 hmoveto
          48 40 40 48 48 40 -40 -48 -48 -40 -40 -48 -48 -40 40 48 vhcurveto
          endchar
        </CharString>
        <CharString name="dieresis">
          -84 33 710 -57 callsubr
          endchar
        </CharString>
        <CharString name="divide">
          5 214 516 155 callsubr
          -169 -241 rmoveto
          499 130 -499 hlineto
          169 -241 155 callsubr
          endchar
        </CharString>
        <CharString name="dollar">
          -70 449 644 rmoveto
          -31 14 -35 10 -34 5 rrcurveto
          117 -122 -115 vlineto
          -123 -15 -70 -75 -101 vvcurveto
          -108 73 -50 71 -33 vhcurveto
          77 -36 60 -18 -49 vvcurveto
          -40 -35 -27 -46 -63 -65 18 48 -66 vhcurveto
          -155 vlineto
          37 -21 49 -13 52 -5 rrcurveto
          -113 121 116 vlineto
          111 21 69 75 102 vvcurveto
          123 -94 48 -84 37 vhcurveto
          -57 25 -43 24 37 vvcurveto
          32 26 25 54 57 61 -18 -29 50 vhcurveto
          endchar
        </CharString>
        <CharString name="dotaccent">
          -84 167 711 -36 callgsubr
          endchar
        </CharString>
        <CharString name="dotlessi">
          71 callsubr
          endchar
        </CharString>
        <CharString name="dottedcircle">
          76 139 517 rmoveto
          -26 18 -19 26 26 18 19 26 25 -18 19 -26 -26 -18 -19 -25 vhcurveto
          -82 -110 rmoveto
          -25 20 -19 26 24 20 19 25 25 -20 19 -24 -26 -20 -19 -25 vhcurveto
          -13 -126 rmoveto
          -25 19 -18 25 26 18 18 205 callgsubr
          52 -116 rmoveto
          -26 18 -18 26 25 19 18 26 25 -19 19 -25 -26 -18 -19 -25 vhcurveto
          101 -75 rmoveto
          -26 19 -20 26 25 19 20 26 24 -19 20 -25 -26 -19 -20 -24 vhcurveto
          127 -16 rmoveto
          -26 18 -18 26 26 19 18 26 26 -19 18 -26 -26 -18 -18 -26 vhcurveto
          121 53 rmoveto
          -26 19 -18 25 25 20 18 26 25 -20 19 -25 -25 -19 -19 -25 vhcurveto
          73 98 rmoveto
          -25 19 -19 26 24 19 19 25 26 -19 19 -24 -26 -19 -19 -26 vhcurveto
          10 134 rmoveto
          -26 18 -18 26 25 19 18 26 26 -19 18 -25 -26 -18 -18 -26 vhcurveto
          -50 118 rmoveto
          -25 19 -19 25 26 18 19 205 callgsubr
          -95 68 rmoveto
          -24 19 -20 26 25 18 20 24 26 -18 19 -25 -26 -19 -19 -26 vhcurveto
          -126 15 rmoveto
          -26 18 -18 26 26 18 18 26 26 -18 18 -26 -26 -18 -18 -26 vhcurveto
          endchar
        </CharString>
        <CharString name="doubledanda">
          143 215 hmoveto
          203 callgsubr
          250 -671 rmoveto
          203 callgsubr
          endchar
        </CharString>
        <CharString name="dvA">
          118 732 -2 callsubr
          -319 -73 callgsubr
          100 vlineto
          endchar
        </CharString>
        <CharString name="dvAA">
          397 1011 -2 callsubr
          -598 -73 callgsubr
          138 91 callgsubr
        </CharString>
        <CharString name="dvAI">
          -7 607 -2 callsubr
          -75 hlineto
          28 callsubr
          -411 -39 callsubr
        </CharString>
        <CharString name="dvAU">
          399 906 -2 callsubr
          -116 191 rlineto
          -52 callsubr
          -323 -73 callgsubr
          140 -82 callsubr
          vlineto
          endchar
        </CharString>
        <CharString name="dvAbbreviationsign">
          -82 63 320 rmoveto
          -16 callgsubr
          endchar
        </CharString>
        <CharString name="dvAnusvara">
          -584 -222 818 rmoveto
          -9 callgsubr
          -46 -36 -36 -46 vhcurveto
          endchar
        </CharString>
        <CharString name="dvAnusvara.amI">
          -584 -65 908 rmoveto
          -9 callgsubr
          -46 -36 -36 -46 vhcurveto
          endchar
        </CharString>
        <CharString name="dvAvagraha">
          -1 296 -3 rmoveto
          155 72 79 103 hvcurveto
          191 -296 46 90 vvcurveto
          28 20 8 28 vhcurveto
          213 129 -229 hlineto
          -119 -69 -60 -94 hvcurveto
          -191 306 -55 -89 vvcurveto
          -37 -26 -19 -56 -81 -97 44 33 -50 vhcurveto
          -145 vlineto
          -26 46 74 -35 109 hhcurveto
          endchar
        </CharString>
        <CharString name="dvB">
          -189 425 -2 callsubr
          -455 -112 455 hlineto
          -62 -356 -72 callsubr
          267 -40 rmoveto
          -13 -22 -15 -21 -17 -19 -96 callgsubr
          125 91 70 98 45 hvcurveto
          endchar
        </CharString>
        <CharString name="dvBA">
          48 363 204 -38 callsubr
          469 325 rmoveto
          -692 -112 450 86 callsubr
          -144 -88 -97 -122 143 callgsubr
          hvcurveto
          -132 -86 callgsubr
        </CharString>
        <CharString name="dvBH">
          -225 453 378 rmoveto
          -223 -57 callgsubr
          126 223 hlineto
          endchar
        </CharString>
        <CharString name="dvBHA">
          7 383 378 rmoveto
          -153 -57 callgsubr
          125 153 -266 185 callsubr
          112 -238 hlineto
          endchar
        </CharString>
        <CharString name="dvBH_LA">
          537 1151 -2 callsubr
          -821 -112 578 84 callgsubr
          -82 -58 -38 -64 -29 hvcurveto
          -186 -57 callgsubr
          126 164 -1 hlineto
          64 callgsubr
          vhcurveto
          -91 callsubr
        </CharString>
        <CharString name="dvBH_NA">
          12 388 -2 callsubr
          -243 -153 65 callgsubr
          153 -59 hlineto
          -235 -145 rlineto
          -42 -26 -17 -30 -34 callgsubr
          6 14 13 8 vhcurveto
          132 84 rlineto
          -125 138 -30 callsubr
        </CharString>
        <CharString name="dvBH_R">
          -186 245 428 rmoveto
          65 callgsubr
          173 hlineto
          -345 -357 rlineto
          183 hlineto
          316 357 rlineto
          111 vlineto
          endchar
        </CharString>
        <CharString name="dvBH_RA">
          22 397 -2 callsubr
          1 -243 rlineto
          -153 64 callsubr
          153 -44 hlineto
          -365 -313 rlineto
          193 hlineto
          172 151 rlineto
          -111 185 callsubr
          112 vlineto
          endchar
        </CharString>
        <CharString name="dvBH_R_YA">
          -1 callgsubr
          -19 -7 -18 -15 -15 vhcurveto
          -288 64 callsubr
          165 hlineto
          2 -6 -339 -351 rlineto
          183 hlineto
          211 239 rlineto
          -61 48 67 -32 74 -102 callsubr
          112 vlineto
          endchar
        </CharString>
        <CharString name="dvBH_VA">
          379 993 -2 callsubr
          -663 -112 421 -268 hlineto
          -103 callsubr
          -101 -74 -51 -76 -31 hvcurveto
          -182 -57 callgsubr
          126 166 hlineto
          -118 12 95 -63 109 hhcurveto
          -68 callgsubr
        </CharString>
        <CharString name="dvBH_YA">
          -1 callgsubr
          -46 -42 -39 -101 -17 vhcurveto
          -182 -57 callgsubr
          126 197 hlineto
          -104 45 86 -57 98 -102 callsubr
          112 vlineto
          endchar
        </CharString>
        <CharString name="dvB_BA">
          458 773 204 -38 callsubr
          -240 -143 -72 callsubr
          879 325 rmoveto
          -1102 -112 860 86 callsubr
          -144 -88 -97 -122 hvcurveto
          -9 vlineto
          -9 -14 -10 -13 -11 -12 -96 callgsubr
          89 71 35 56 50 hvcurveto
          -57 43 70 -34 75 hhcurveto
          64 52 22 36 39 hvcurveto
          -132 -86 callgsubr
        </CharString>
        <CharString name="dvB_BHA">
          417 363 203 -72 callsubr
          600 325 rmoveto
          -293 -153 153 vlineto
          137 callgsubr
          -20 -23 -4 -6 -19 vhcurveto
          5 -455 -112 431 181 callsubr
          -143 vlineto
          -29 -8 -17 -24 -33 vvcurveto
          -8 vlineto
          -12 -19 -13 -19 -15 -16 -96 callgsubr
          96 77 42 64 50 hvcurveto
          18 -39 rlineto
          39 callgsubr
        </CharString>
        <CharString name="dvB_BH_RA">
          402 363 203 -72 callsubr
          584 325 rmoveto
          1 -243 rlineto
          -153 103 hlineto
          137 callgsubr
          -15 -17 -2 -4 -15 vhcurveto
          1 -455 -112 416 -12 vlineto
          8 4 12 5 14 3 rrcurveto
          5 1 hlineto
          1 5 5 0 5 hhcurveto
          32 14 -18 -29 hvcurveto
          -93 vlineto
          -29 -8 -17 -24 -33 vvcurveto
          -16 4 -18 10 -25 vhcurveto
          -11 -19 -13 -18 -15 -16 -96 callgsubr
          102 79 47 70 51 hvcurveto
          116 107 callgsubr
        </CharString>
        <CharString name="dvB_DA">
          395 363 203 -72 callsubr
          704 37 rmoveto
          68 callsubr
          -1039 -112 784 21 callgsubr
          hvcurveto
          -5 0 -6 -5 vvcurveto
          -4 -6 -5 -6 -6 -6 -96 callgsubr
          79 65 28 45 49 hvcurveto
          -52 36 62 -33 78 hhcurveto
          40 67 15 38 26 hvcurveto
          -87 callsubr
          endchar
        </CharString>
        <CharString name="dvB_DHA">
          459 363 203 -72 callsubr
          880 325 -11 callgsubr
          -725 -112 527 -7 callgsubr
          -73 -5 -52 -27 -22 -47 -10 -16 -11 -15 -13 -14 -96 callgsubr
          78 65 27 45 49 hvcurveto
          -50 38 70 -27 80 hhcurveto
          65 70 19 48 41 hvcurveto
          -136 -3 callsubr
        </CharString>
        <CharString name="dvB_DH_VA">
          819 363 203 -72 callsubr
          1240 325 rmoveto
          -603 -112 361 -268 hlineto
          96 callgsubr
          -19 2 -17 4 -16 hvcurveto
          -39 -48 -48 -15 -62 hhcurveto
          -60 -42 136 callgsubr
          17 59 hvcurveto
          -67 callsubr
          -725 -112 527 -7 callgsubr
          -73 -5 -52 -27 -22 -47 -10 -16 -11 -15 -13 -14 -96 callgsubr
          78 65 28 44 49 hvcurveto
          -50 39 74 -27 85 hhcurveto
          94 79 27 44 59 hvcurveto
          -36 39 55 -18 59 hhcurveto
          -68 callgsubr
        </CharString>
        <CharString name="dvB_JA">
          474 363 203 -72 callsubr
          896 325 rmoveto
          -1119 -112 876 176 callsubr
          -11 -11 1 1 -11 hvcurveto
          16 20 13 22 11 23 -78 64 rcurveline
          -13 -22 -15 -21 -17 -19 -96 callgsubr
          59 51 16 26 43 hvcurveto
          -40 -53 callsubr
        </CharString>
        <CharString name="dvB_JHA">
          587 669 336 rmoveto
          0 -14 vlineto
          33 callgsubr
          115 -223 hlineto
          -453 -149 rmoveto
          11 15 9 16 8 16 rrcurveto
          -13 35 43 -4 43 hhcurveto
          47 40 -8 -46 -36 -27 -20 -40 -46 -42 31 49 -23 hvcurveto
          -201 16 -72 callsubr
          1008 325 rmoveto
          -1231 -112 734 172 callgsubr
          -43 -111 -22 4 -19 6 -16 hvcurveto
          -12 -21 -15 -20 -16 -18 -96 callgsubr
          61 53 17 28 43 hvcurveto
          -170 140 84 vlineto
          -19 33 41 -12 45 hhcurveto
          113 75 68 101 21 -2 20 -6 17 hvcurveto
          86 -229 48 callsubr
          hlineto
          endchar
        </CharString>
        <CharString name="dvB_J_YA">
          843 1216 -105 callgsubr
          -853 -356 -72 callsubr
          1264 325 rmoveto
          -1487 -112 969 -15 callsubr
          -26 -13 -24 -30 -18 vhcurveto
          18 -20 -55 33 -122 hhcurveto
          -250 151 callsubr
          -8 -9 0 1 -8 hvcurveto
          16 20 14 22 11 24 -78 64 rcurveline
          -13 -22 -15 -21 -17 -19 -96 callgsubr
          55 48 14 23 41 hvcurveto
          -35 -96 callsubr
          52 hlineto
          31 23 -5 -7 17 hvcurveto
          -148 31 101 -82 118 -102 callsubr
          vlineto
          endchar
        </CharString>
        <CharString name="dvB_JxA">
          474 363 203 -72 callsubr
          896 325 rmoveto
          -1119 -112 876 176 callsubr
          -11 -11 1 1 -11 hvcurveto
          16 20 13 22 11 23 -78 64 rcurveline
          -13 -22 -15 -21 -17 -19 -96 callgsubr
          59 51 16 26 43 hvcurveto
          -40 -53 callsubr
        </CharString>
        <CharString name="dvB_LA">
          587 363 203 -72 callsubr
          1008 325 rmoveto
          -1231 -112 988 -73 hlineto
          1 -8 -9 1 -8 -26 callsubr
          6 5 0 -1 6 vhcurveto
          -376 143 -80 callgsubr
          vlineto
          endchar
        </CharString>
        <CharString name="dvB_L_YA">
          970 1343 -105 callgsubr
          -980 -356 -72 callsubr
          1391 325 rmoveto
          -1614 -112 1096 -15 callsubr
          -18 -6 -17 -14 -15 vhcurveto
          34 -31 -46 24 -65 -26 callsubr
          vhcurveto
          4 hlineto
          -6 -1 rlineto
          -173 21 108 -97 128 -102 callsubr
          vlineto
          endchar
        </CharString>
        <CharString name="dvB_NA">
          48 362 203 rmoveto
          -12 -23 -28 -7 -26 hhcurveto
          -62 -45 40 64 23 5 19 9 16 hvcurveto
          470 325 rmoveto
          -692 -112 450 -268 hlineto
          -16 -4 -14 -7 -12 vhcurveto
          -166 136 rlineto
          4 11 12 2 13 hhcurveto
          21 27 -3 -7 21 0 callgsubr
          -22 -33 3 -26 hhcurveto
          -144 -88 -97 -122 -100 66 -76 86 -29 hvcurveto
          -21 -12 rlineto
          -44 -24 -15 -32 32 callsubr
          128 108 8 5 8 7 7 6 rlinecurve
          -132 -86 callgsubr
        </CharString>
        <CharString name="dvB_R">
          -207 407 -2 callsubr
          -437 -112 437 hlineto
          -45 -355 rmoveto
          -15 -23 -25 -5 -29 hhcurveto
          -62 -45 40 64 23 5 19 10 16 hvcurveto
          255 -36 rmoveto
          -13 -25 -13 -20 -12 -16 -166 137 rcurveline
          -90 callgsubr
          -98 67 -79 84 -26 hvcurveto
          -162 -154 rlineto
          194 hlineto
          314 302 rlineto
          endchar
        </CharString>
        <CharString name="dvB_RA">
          49 363 204 -38 callsubr
          470 325 rmoveto
          -693 -112 451 -269 hlineto
          -1 1 rlineto
          -73 callsubr
          -144 -88 -97 -122 -98 67 -76 80 -29 hvcurveto
          -158 -154 rlineto
          194 hlineto
          203 200 rlineto
          -66 callgsubr
        </CharString>
        <CharString name="dvB_SA">
          508 712 152 callgsubr
          148 -205 vlineto
          -518 -151 -72 callsubr
          929 325 rmoveto
          -1152 -112 623 123 callgsubr
          3 -4 -6 -7 -6 -7 -6 -7 rlinecurve
          -171 142 rlineto
          -93 callsubr
          94 75 40 62 51 hvcurveto
          126 -176 16 callsubr
        </CharString>
        <CharString name="dvB_SHA">
          546 425 -2 callsubr
          -455 -112 455 hlineto
          -62 -356 -72 callsubr
          427 93 20 callgsubr
          -112 -76 hlineto
          -8 -11 -8 -10 -9 -10 -96 callgsubr
          94 75 39 62 50 hvcurveto
          165 -175 rlineto
          180 hlineto
          -237 239 rlineto
          121 7 127 72 161 vvcurveto
          115 -78 83 -124 -113 -70 -77 -87 -25 6 -26 12 -23 vhcurveto
          433 232 rmoveto
          -671 142 -30 callsubr
        </CharString>
        <CharString name="dvB_TA">
          424 363 203 -72 callsubr
          845 325 rmoveto
          -1068 -112 826 -85 -74 hlineto
          -167 -88 -75 -111 -18 hvcurveto
          -11 -16 -11 -15 -12 -13 -96 callgsubr
          74 63 25 41 48 hvcurveto
          -85 30 71 -54 106 22 callgsubr
        </CharString>
        <CharString name="dvB_VA">
          419 363 203 -72 callsubr
          840 325 rmoveto
          -1063 -112 821 -268 hlineto
          96 callgsubr
          -8 0 -7 1 -8 hvcurveto
          -7 -8 -6 -9 -8 -8 -96 callgsubr
          85 69 32 52 50 hvcurveto
          -47 40 63 -25 68 hhcurveto
          -68 callgsubr
        </CharString>
        <CharString name="dvB_YA">
          450 823 -105 callgsubr
          -460 -356 -72 callsubr
          871 325 rmoveto
          -1094 -112 576 8 callgsubr
          4 -36 8 -32 12 -29 -9 -13 -9 -11 -10 -11 -96 callgsubr
          98 76 43 65 51 hvcurveto
          -50 46 61 -26 67 -102 callsubr
          vlineto
          endchar
        </CharString>
        <CharString name="dvC">
          -155 459 -2 callsubr
          -489 -112 489 hlineto
          46 -203 rmoveto
          -87 -31 -71 -65 -96 -40 callgsubr
          151 104 100 95 24 vhcurveto
          endchar
        </CharString>
        <CharString name="dvCA">
          76 690 -2 callsubr
          -720 -112 480 -236 hlineto
          33 callsubr
          -359 -115 112 vlineto
          -30 -19 -23 -32 -55 189 callsubr
          -168 -3 callsubr
        </CharString>
        <CharString name="dvCH">
          73 687 129 callsubr
          -717 -112 118 vlineto
          102 callsubr
          120 -84 66 -114 -22 -32 -3 -5 -18 vhcurveto
          -111 vlineto
          3 11 20 2 18 hhcurveto
          42 36 -27 -57 -89 -72 -56 -107 -65 -48 24 40 39 23 21 58 hvcurveto
          37 118 -37 hlineto
          27 callsubr
          endchar
        </CharString>
        <CharString name="dvCHA">
          73 414 508 -13 callgsubr
        </CharString>
        <CharString name="dvCH_RA">
          73 414 -53 callgsubr
          -717 -112 118 vlineto
          51 callgsubr
          139 callsubr
        </CharString>
        <CharString name="dvCH_R_YA">
          680 1053 27 callgsubr
          -52 -86 -12 -20 -67 vhcurveto
          74 505 vlineto
          -748 54 callsubr
          1045 382 rmoveto
          -1343 -112 118 hlineto
          51 callgsubr
          25 -4 22 -6 20 vhcurveto
          13 52 54 9 35 -4 callsubr
        </CharString>
        <CharString name="dvCH_YA">
          700 1073 27 callgsubr
          -57 -98 -15 -23 -70 vhcurveto
          80 525 vlineto
          -768 54 callsubr
          1065 382 rmoveto
          -1363 -112 118 hlineto
          102 callsubr
          23 -3 20 -6 19 vhcurveto
          16 58 62 11 40 -4 callsubr
        </CharString>
        <CharString name="dvC_CA">
          456 1070 -2 callsubr
          -1100 -112 860 -236 hlineto
          33 callsubr
          -329 -115 82 vlineto
          -6 -4 -1 1 -1 -2 -21 -16 -17 -25 -5 -36 rlinecurve
          -44 -38 -52 -29 -64 -40 callgsubr
          82 68 29 42 49 vhcurveto
          -42 31 54 -29 75 hhcurveto
          96 57 38 39 28 hvcurveto
          -168 -3 callsubr
        </CharString>
        <CharString name="dvC_CHA">
          473 814 -53 callgsubr
          -1117 -112 518 57 callsubr
          -71 -4 -47 -29 -17 -47 rrcurveto
          -40 -37 -50 -24 -59 -40 callgsubr
          70 60 22 32 47 vhcurveto
          -64 41 93 -32 98 hhcurveto
          80 callsubr
          hvcurveto
          85 vlineto
          endchar
        </CharString>
        <CharString name="dvC_CH_VA">
          493 834 508 rmoveto
          -21 -1 -26 -3 -15 -4 rrcurveto
          -111 vlineto
          3 11 20 2 18 hhcurveto
          42 36 -27 -57 -89 -72 -56 -107 -87 -47 28 44 30 29 22 53 hvcurveto
          37 118 -37 hlineto
          27 callsubr
          196 hlineto
          -3 -598 rmoveto
          -56 -61 -37 -49 -65 -38 33 58 62 41 28 50 vhcurveto
          0 10 vlineto
          40 37 5 9 35 hvcurveto
          276 496 rmoveto
          112 -1137 -112 518 57 callsubr
          -71 -4 -47 -28 -17 -48 rrcurveto
          -39 -37 -49 -25 -60 -40 callgsubr
          71 60 22 34 47 vhcurveto
          16 -23 22 -18 26 -15 rrcurveto
          -36 -33 -21 -45 -51 vvcurveto
          -134 101 -72 116 60 47 19 36 32 vhcurveto
          -131 137 459 vlineto
          47 46 27 62 75 vvcurveto
          139 callsubr
        </CharString>
        <CharString name="dvC_MA">
          431 807 -23 callsubr
          238 -11 callsubr
          -1075 -112 540 -193 hlineto
          -29 -8 -16 -17 -30 vvcurveto
          -7 1 -8 2 -9 vhcurveto
          -50 -37 -56 -33 -68 -40 callgsubr
          95 76 39 53 49 vhcurveto
          20 -44 -8 callsubr
        </CharString>
        <CharString name="dvC_NA">
          76 690 -2 callsubr
          -720 -112 480 -236 hlineto
          33 callsubr
          -359 -115 112 vlineto
          -30 -19 -23 -32 -55 vvcurveto
          -67 42 -62 77 -23 vhcurveto
          -51 -30 118 callsubr
          157 116 20 12 15 15 11 15 rlinecurve
          -168 -3 callsubr
        </CharString>
        <CharString name="dvC_R">
          177 callgsubr
          39 -221 rmoveto
          -81 -51 -65 -53 -65 hhcurveto
          100 callsubr
          hvcurveto
          197 callsubr
          112 vlineto
          -30 -19 -23 -32 -55 vvcurveto
          -74 56 -66 77 -13 vhcurveto
          -150 -145 rlineto
          184 hlineto
          309 300 rlineto
          endchar
        </CharString>
        <CharString name="dvC_RA">
          76 690 -2 callsubr
          -720 -112 480 -236 hlineto
          -68 -70 -51 -73 100 callsubr
          vhcurveto
          197 callsubr
          112 vlineto
          -30 -19 -23 -32 -55 vvcurveto
          -68 44 -63 79 -22 vhcurveto
          -150 -145 rlineto
          184 hlineto
          214 212 rlineto
          -167 -3 callsubr
        </CharString>
        <CharString name="dvC_YA">
          480 853 -105 callgsubr
          241 -11 callsubr
          -1124 -112 606 hlineto
          118 callgsubr
          -29 9 -27 rrcurveto
          -51 -37 -56 -33 -69 -40 callgsubr
          101 81 45 59 49 vhcurveto
          -58 47 66 -31 72 -102 callsubr
          vlineto
          endchar
        </CharString>
        <CharString name="dvCandrabindu">
          -584 -139 -13 callsubr
          endchar
        </CharString>
        <CharString name="dvD">
          -5 667 -251 43 callgsubr
          -529 922 36 callsubr
        </CharString>
        <CharString name="dvDA">
          -5 -30 671 36 callsubr
        </CharString>
        <CharString name="dvDA_mvR">
          -103 382 403 rmoveto
          10 -3 9 -3 8 -3 rrcurveto
          165 102 112 -541 -112 299 -55 vlineto
          1 -13 -13 0 -13 hhcurveto
          -114 -70 -47 -77 -70 46 -42 90 -2 hvcurveto
          -91 -2 -56 -41 -79 vvcurveto
          -108 125 -46 130 68 65 21 18 28 vhcurveto
          127 vlineto
          -27 -35 -60 -27 -66 hhcurveto
          -68 -45 12 39 30 28 21 71 hvcurveto
          79 118 -71 hlineto
          -74 -19 21 25 34 45 13 51 22 23 -2 -4 21 hvcurveto
          endchar
        </CharString>
        <CharString name="dvDD">
          -50 194 -65 20 callsubr
          96 624 185 callgsubr
          -594 -112 323 177 callsubr
          -86 callsubr
        </CharString>
        <CharString name="dvDDA">
          -50 433 171 callgsubr
          -594 -112 323 177 callsubr
          -86 callsubr
        </CharString>
        <CharString name="dvDDH">
          -20 266 200 -42 callgsubr
          256 -531 43 callgsubr
          endchar
        </CharString>
        <CharString name="dvDDHA">
          -20 266 200 -42 callgsubr
          endchar
        </CharString>
        <CharString name="dvDDH_DDHA">
          50 514 559 rmoveto
          150 112 -694 -112 404 -43 -17 hlineto
          -168 -4 -149 -68 -163 vvcurveto
          -85 52 -69 80 -41 vhcurveto
          -69 -32 -52 -53 -76 vvcurveto
          -142 136 -80 209 callsubr
          114 73 101 83 -64 56 -108 -45 -49 -9 -14 -27 vhcurveto
          -99 vlineto
          12 26 46 10 30 hhcurveto
          36 21 -17 -25 -40 -72 -18 -47 -93 -70 43 65 93 86 21 75 11 hvcurveto
          139 5 105 64 99 vvcurveto
          93 -77 46 -99 -47 -46 -11 -12 -24 vhcurveto
          -99 vlineto
          11 26 43 11 33 hhcurveto
          36 21 -17 -25 -40 -50 -12 -69 -90 -73 40 78 95 111 33 109 35 46 -4 -7 30 hvcurveto
          endchar
        </CharString>
        <CharString name="dvDDH_R">
          -16 234 -205 20 callsubr
          87 764 -5 callgsubr
        </CharString>
        <CharString name="dvDDH_RA">
          -16 464 559 -5 callgsubr
        </CharString>
        <CharString name="dvDDH_YA">
          584 618 393 rmoveto
          67 29 -10 -31 125 callgsubr
          112 -1228 -112 354 -71 vlineto
          -161 -9 -133 -63 -165 vvcurveto
          -135 106 -107 209 callsubr
          84 73 101 41 callgsubr
          -99 vlineto
          11 15 35 11 22 hhcurveto
          36 21 -17 -25 -40 -42 -18 -47 -82 -51 63 65 117 106 6 170 12 hvcurveto
          5 66 65 3 38 hhcurveto
          -154 166 rmoveto
          493 -267 hlineto
          -90 -49 -42 -74 -57 -35 11 45 -16 vhcurveto
          70 24 56 44 71 vvcurveto
          103 -77 45 -138 -41 -76 -1 -4 -56 vhcurveto
          endchar
        </CharString>
        <CharString name="dvDDHxA">
          -20 211 -132 rmoveto
          -42 34 -34 42 42 34 34 42 42 -34 34 -42 -42 -34 -34 -42 vhcurveto
          55 332 -42 callgsubr
          endchar
        </CharString>
        <CharString name="dvDD_DDA">
          124 callsubr
          -70 49 -65 112 hvcurveto
          34 37 5 45 hhcurveto
          38 20 -13 -24 -38 -38 -6 -67 -71 -95 25 40 -63 hvcurveto
          -130 vlineto
          16 -9 23 -9 28 -8 rrcurveto
          -19 -22 -13 -34 -33 vvcurveto
          -78 76 -39 87 vhcurveto
          93 8 rlineto
          37 -2 16 -15 -27 vvcurveto
          -31 -34 -16 -61 -78 -105 23 42 -66 vhcurveto
          -130 vlineto
          -31 65 95 -21 86 hhcurveto
          130 108 59 117 81 -52 59 -127 4 hvcurveto
          -92 -6 rlineto
          -28 2 -10 13 16 vvcurveto
          13 8 14 9 10 vhcurveto
          -1 15 14 -1 15 hhcurveto
          117 121 46 125 78 -56 59 -104 hvcurveto
          -67 -42 -4 -23 hhcurveto
          -30 -10 12 16 24 23 8 33 hvcurveto
          endchar
        </CharString>
        <CharString name="dvDD_DDHA">
          124 callsubr
          -83 66 -55 107 hvcurveto
          31 32 6 38 hhcurveto
          38 23 -12 -24 -37 -39 -6 -66 -71 -95 25 40 -63 hvcurveto
          -130 vlineto
          17 -9 24 -10 28 -8 rrcurveto
          -50 -33 -33 -50 -67 vvcurveto
          -135 106 -87 209 callsubr
          84 73 101 41 callgsubr
          -99 vlineto
          11 15 35 11 22 hhcurveto
          36 21 -17 -25 -40 -42 -18 -47 -82 -51 43 65 119 111 1 79 14 hvcurveto
          -1 1 rlineto
          84 18 72 48 92 vvcurveto
          83 -55 58 -116 vhcurveto
          -56 -37 -4 -25 hhcurveto
          -34 -9 12 17 23 26 8 28 hvcurveto
          endchar
        </CharString>
        <CharString name="dvDD_R">
          -45 194 -214 20 callsubr
          101 773 -25 callsubr
        </CharString>
        <CharString name="dvDD_RA">
          -45 438 559 -25 callsubr
        </CharString>
        <CharString name="dvDD_VA">
          5 375 -23 rmoveto
          -56 -40 -37 -54 -52 -36 26 50 55 37 24 47 2 vhcurveto
          -1 10 9 0 10 hhcurveto
          23 24 2 4 22 hvcurveto
          113 358 rmoveto
          155 165 callsubr
          -649 -112 378 -43 -98 vlineto
          -92 -99 -39 -109 -76 54 -59 115 hvcurveto
          31 43 5 45 hhcurveto
          38 19 -14 -24 -38 -52 -5 -53 -71 -105 26 39 -63 hvcurveto
          -130 vlineto
          12 -7 17 -7 19 -6 rrcurveto
          -35 -27 -23 -39 -53 162 callgsubr
          401 vlineto
          22 25 13 33 40 vvcurveto
          75 -50 65 -112 vhcurveto
          -68 -46 -5 -26 hhcurveto
          -30 -10 13 16 26 26 4 30 hvcurveto
          endchar
        </CharString>
        <CharString name="dvDD_YA">
          553 926 292 rmoveto
          -78 -49 -54 -74 -48 -41 16 42 -16 vhcurveto
          77 17 46 50 66 vvcurveto
          99 -71 55 -144 vhcurveto
          -173 54 493 hlineto
          241 -11 callsubr
          -1197 -112 323 -53 -68 hlineto
          -92 -99 -43 -109 -87 74 -56 95 -6 hvcurveto
          87 8 rlineto
          37 -2 22 -11 -27 vvcurveto
          -44 -47 -12 -58 -79 -67 25 40 -63 vhcurveto
          60 callgsubr
          115 123 56 119 92 -56 54 -129 4 hvcurveto
          -86 -6 rlineto
          -28 2 -13 12 22 vvcurveto
          28 26 11 25 vhcurveto
          366 hlineto
          74 13 -24 -28 -44 -84 -8 -63 -7 hvcurveto
          -163 20 103 -84 122 hhcurveto
          63 68 30 34 16 hvcurveto
          -100 165 callgsubr
        </CharString>
        <CharString name="dvDDxA">
          -50 245 -56 rmoveto
          -100 callgsubr
          188 615 185 callgsubr
          -594 -112 323 177 callsubr
          -86 callsubr
        </CharString>
        <CharString name="dvDH">
          -162 513 315 rmoveto
          -95 -76 -62 -34 -92 -52 callgsubr
          135 103 56 81 59 vhcurveto
          endchar
        </CharString>
        <CharString name="dvDHA">
          59 673 671 -11 callgsubr
          -325 -112 127 hlineto
          76 callgsubr
        </CharString>
        <CharString name="dvDH_MA">
          411 787 377 rmoveto
          -158 182 158 hlineto
          -377 109 callsubr
          80 -189 vlineto
          -29 -8 -16 -23 -33 vvcurveto
          -14 4 -16 8 -22 vhcurveto
          -49 -53 -52 -19 -69 -52 callgsubr
          98 81 29 47 59 vhcurveto
          5 -10 rlineto
          119 119 158 -254 76 callsubr
        </CharString>
        <CharString name="dvDH_NA">
          60 674 128 callsubr
          18 44 35 40 16 55 10 callgsubr
          -326 -112 128 -7 callgsubr
          -94 -7 -63 -42 -75 vvcurveto
          -86 63 -54 85 -18 vhcurveto
          -40 -24 rlineto
          -43 -25 -16 -31 -34 callgsubr
          6 13 13 9 vhcurveto
          150 127 rlineto
          0 vlineto
          12 8 11 10 10 11 rrcurveto
          -146 -3 callsubr
        </CharString>
        <CharString name="dvDH_N_YA">
          -1 callgsubr
          -48 -45 -40 -111 -16 vhcurveto
          6 -47 12 -41 17 -36 rrcurveto
          -39 -46 -49 -17 -65 hhcurveto
          -52 -40 18 44 35 40 16 55 hvcurveto
          -67 callsubr
          -326 -112 128 -7 callgsubr
          -94 -7 -63 -42 -75 vvcurveto
          -86 63 -54 85 -18 vhcurveto
          -40 -24 rlineto
          -43 -25 -16 -31 -34 callgsubr
          6 13 13 9 vhcurveto
          148 125 32 17 29 22 27 23 rlinecurve
          -47 46 59 -24 64 -102 callsubr
          112 vlineto
          endchar
        </CharString>
        <CharString name="dvDH_R">
          -132 499 351 rmoveto
          -111 -47 -81 -44 -92 hhcurveto
          -52 -40 16 40 36 36 21 59 hvcurveto
          -67 callsubr
          -331 -112 133 -7 callgsubr
          -101 -4 -56 -51 -71 vvcurveto
          -95 82 -61 93 vhcurveto
          -146 -131 rlineto
          191 hlineto
          330 325 rlineto
          endchar
        </CharString>
        <CharString name="dvDH_RA">
          65 679 128 callsubr
          16 40 36 36 21 24 callgsubr
          -331 -112 133 -7 callgsubr
          -101 -4 -56 -51 -71 vvcurveto
          -86 69 -54 81 -16 vhcurveto
          -141 -131 rlineto
          191 hlineto
          194 191 rlineto
          -146 -3 callsubr
        </CharString>
        <CharString name="dvDH_VA">
          439 1053 -2 callsubr
          -603 -112 361 -268 hlineto
          96 callgsubr
          -13 1 -13 2 -11 hvcurveto
          -50 -54 -52 -19 -69 -52 callgsubr
          100 83 31 49 60 vhcurveto
          -42 40 59 -21 63 hhcurveto
          -68 callgsubr
        </CharString>
        <CharString name="dvDH_YA">
          470 843 362 62 callgsubr
          5 -42 10 -37 14 -32 rrcurveto
          -57 -57 -55 -22 -73 -52 callgsubr
          114 91 40 61 61 vhcurveto
          -42 45 57 -22 61 -102 callsubr
          112 vlineto
          endchar
        </CharString>
        <CharString name="dvD_BA">
          15 callsubr
          -110 93 -70 120 63 46 19 32 32 vhcurveto
          96 callsubr
        </CharString>
        <CharString name="dvD_BHA">
          232 729 383 152 callsubr
          -876 -112 616 21 callgsubr
          -81 36 -68 64 -38 hvcurveto
          -75 -38 -51 94 rlineto
          47 -26 -33 25 -46 hhcurveto
          -49 -54 -28 -47 -30 hvcurveto
          45 -85 rlineto
          14 9 23 26 26 hhcurveto
          15 11 -8 -16 7 hvcurveto
          47 -87 rlineto
          -12 -11 -7 -13 -15 vvcurveto
          -29 21 -33 110 -69 vhcurveto
          92 49 -53 99 199 103 32 8 32 14 16 24 rlinecurve
          -87 callsubr
          endchar
        </CharString>
        <CharString name="dvD_B_RA">
          15 callsubr
          -88 60 -63 85 -21 vhcurveto
          -119 -109 rlineto
          171 hlineto
          137 135 rlineto
          0 vlineto
          7 5 7 6 6 6 rrcurveto
          96 callsubr
        </CharString>
        <CharString name="dvD_DA">
          -8 476 559 rmoveto
          130 112 -636 -112 366 -49 hlineto
          2 -20 -19 1 -17 hhcurveto
          -152 -73 -64 -84 -61 45 -52 92 -2 hvcurveto
          -91 -2 -57 -54 -73 vvcurveto
          -94 91 -58 107 59 73 25 37 17 vhcurveto
          -111 140 289 -138 vlineto
          -87 -60 -40 -63 -48 -37 18 34 38 41 23 60 vhcurveto
          42 114 -43 hlineto
          -52 -33 15 32 32 39 15 57 57 66 -12 -17 57 hvcurveto
          endchar
        </CharString>
        <CharString name="dvD_DHA">
          184 314 92 rmoveto
          21 -13 24 -9 26 -4 rrcurveto
          -65 -15 -36 -32 -31 hhcurveto
          -27 -12 17 22 25 15 28 21 19 hvcurveto
          381 303 152 callsubr
          -828 -112 568 21 callgsubr
          -43 10 -40 20 -33 hvcurveto
          -5 -4 rlineto
          -13 -14 -19 -7 -18 hhcurveto
          -24 -19 12 26 50 27 1 2 84 hvcurveto
          -109 39 rlineto
          -2 -101 -36 -2 -81 vvcurveto
          -76 55 -41 65 11 14 1 3 12 vhcurveto
          -17 -21 -7 -29 -24 vvcurveto
          -67 55 -46 78 95 76 75 130 27 vhcurveto
          29 8 28 14 15 22 rrcurveto
          -87 callsubr
          endchar
        </CharString>
        <CharString name="dvD_GA">
          0 502 383 rmoveto
          68 callsubr
          -644 -112 389 21 callgsubr
          -87 42 -73 73 -35 hvcurveto
          -89 vlineto
          -21 -8 -21 -32 -25 -20 11 0 vhcurveto
          -100 vlineto
          -11 32 20 -2 29 hhcurveto
          72 60 37 92 hvcurveto
          85 vlineto
          38 5 47 16 21 30 rrcurveto
          -87 callsubr
          endchar
        </CharString>
        <CharString name="dvD_GHA">
          177 288 104 rmoveto
          22 -16 25 -12 29 -7 rrcurveto
          -54 -17 -33 -26 -28 hhcurveto
          -27 -12 17 22 24 15 29 22 19 hvcurveto
          -62 77 rmoveto
          -12 -14 -19 -7 -18 hhcurveto
          -24 -19 12 26 28 26 33 53 7 hvcurveto
          2 -30 7 -28 11 -25 rrcurveto
          447 202 152 callsubr
          -821 -112 561 -64 -71 vlineto
          -128 -80 -54 -80 -30 hvcurveto
          -106 -5 -106 -60 -111 vvcurveto
          -72 55 -44 65 12 13 1 3 12 vhcurveto
          -17 -22 -6 -28 -24 vvcurveto
          -67 54 -46 78 89 73 66 115 31 vhcurveto
          33 7 37 15 17 26 rrcurveto
          -87 callsubr
          endchar
        </CharString>
        <CharString name="dvD_G_RA">
          51 507 383 rmoveto
          176 158 112 -695 -112 394 21 callgsubr
          -68 25 -56 45 -38 hvcurveto
          -116 vlineto
          -20 -7 -21 -31 -24 -19 11 0 vhcurveto
          -96 vlineto
          -10 31 19 -2 27 hhcurveto
          69 58 35 88 hvcurveto
          79 vlineto
          -3 16 18 -1 18 hhcurveto
          11 11 1 2 11 hvcurveto
          -120 vlineto
          -265 -201 rlineto
          161 hlineto
          104 84 rlineto
          -61 120 358 vlineto
          1 2 50 -135 rlineto
          140 hlineto
          -110 289 rlineto
          -118 hlineto
          -72 -11 -43 -28 -62 hhcurveto
          -62 -40 36 65 63 45 40 71 hvcurveto
          endchar
        </CharString>
        <CharString name="dvD_MA">
          265 641 93 rmoveto
          -137 212 -138 hlineto
          -61 -15 -48 -16 -40 hhcurveto
          -45 -40 25 53 63 45 30 71 hvcurveto
          208 160 139 hlineto
          238 -11 callsubr
          -909 -112 389 -48 -71 hlineto
          -168 -85 -83 -124 -108 75 -88 121 50 59 23 40 24 hvcurveto
          -85 vlineto
          -29 -8 -16 -23 -33 vvcurveto
          -37 32 -50 33 -64 vhcurveto
          119 99 138 -174 138 763 100 hlineto
          endchar
        </CharString>
        <CharString name="dvD_NA">
          5 507 383 rmoveto
          68 callsubr
          -649 -112 394 21 callgsubr
          -90 46 -76 78 -32 hvcurveto
          -47 -28 rlineto
          -43 -25 -16 -31 -34 callgsubr
          6 13 13 9 vhcurveto
          142 110 rlineto
          0 vlineto
          11 7 9 8 7 10 rrcurveto
          -87 callsubr
          endchar
        </CharString>
        <CharString name="dvD_R">
          0 552 -296 43 callgsubr
          -414 967 21 callsubr
        </CharString>
        <CharString name="dvD_RA">
          0 -30 671 21 callsubr
        </CharString>
        <CharString name="dvD_VA">
          4 383 89 callgsubr
          -648 -112 388 21 callgsubr
          -77 33 -66 58 -38 hvcurveto
          74 callgsubr
        </CharString>
        <CharString name="dvD_YA">
          115 489 311 rmoveto
          -104 -99 -51 -101 -42 -61 6 37 38 50 5 50 vhcurveto
          49 118 -50 hlineto
          -44 -40 7 32 24 16 22 56 41 39 -8 -13 36 hvcurveto
          135 100 vlineto
          240 -11 callsubr
          -759 -112 279 -35 hlineto
          1 -9 -8 0 -9 hhcurveto
          -104 -63 -49 -71 -62 57 -37 79 -2 hvcurveto
          -91 -2 -56 -43 -69 vvcurveto
          -103 100 -48 144 90 70 34 37 40 vhcurveto
          -110 -3 callsubr
        </CharString>
        <CharString name="dvE">
          -7 607 -2 callsubr
          -637 -39 callsubr
        </CharString>
        <CharString name="dvEcandra">
          -7 398 922 rmoveto
          63 callsubr
          123 100 69 120 vhcurveto
          73 -251 rmoveto
          -637 -39 callsubr
        </CharString>
        <CharString name="dvEight">
          -3 callgsubr
        </CharString>
        <CharString name="dvEyelash">
          -392 6 400 rmoveto
          -116 vlineto
          -15 31 39 -11 54 hhcurveto
          86 69 27 19 35 hvcurveto
          -32 111 rlineto
          -23 -40 -49 -24 -71 hhcurveto
          -61 -38 18 14 -23 hvcurveto
          216 159 rmoveto
          112 -252 -112 vlineto
          endchar
        </CharString>
        <CharString name="dvEyelash_HA">
          159 675 101 callgsubr
          -803 -112 565 -48 -144 129 callgsubr
          hvcurveto
          -7 vlineto
          -10 -27 -32 -6 -40 hhcurveto
          -61 -48 18 14 -23 hvcurveto
          -116 vlineto
          -15 31 49 -11 54 hhcurveto
          66 55 14 14 38 hvcurveto
          8 -5 rlineto
          -44 -34 -22 -48 -48 vvcurveto
          -94 84 -101 188 172 callsubr
          vhcurveto
          -78 callgsubr
        </CharString>
        <CharString name="dvEyelash_YA">
          220 593 -105 callgsubr
          241 -11 callsubr
          -864 -112 346 -15 callsubr
          -36 -25 -31 -58 -20 vhcurveto
          0 vlineto
          -13 -41 -44 -7 -41 hhcurveto
          -47 -45 9 20 -38 hvcurveto
          -114 vlineto
          -15 31 39 -11 54 hhcurveto
          31 30 2 5 26 hvcurveto
          -106 44 86 -57 99 -102 callsubr
          vlineto
          endchar
        </CharString>
        <CharString name="dvFive">
          -69 215 37 callgsubr
        </CharString>
        <CharString name="dvFour">
          -7 178 77 callsubr
        </CharString>
        <CharString name="dvG">
          -260 354 -2 callsubr
          -384 -112 153 -198 hlineto
          -97 callgsubr
          90 vlineto
          endchar
        </CharString>
        <CharString name="dvGA">
          1 -30 671 rmoveto
          -112 153 19 callsubr
          112 vlineto
          endchar
        </CharString>
        <CharString name="dvGH">
          -235 412 261 rmoveto
          -50 -31 -46 -25 -67 hhcurveto
          -52 -40 21 44 41 36 27 59 hvcurveto
          79 callsubr
          158 112 -409 -112 108 88 callgsubr
          -108 99 -60 119 88 65 32 55 45 vhcurveto
          endchar
        </CharString>
        <CharString name="dvGHA">
          54 428 -22 callgsubr
          -698 -112 108 88 callgsubr
          -108 99 -60 119 65 75 21 50 36 vhcurveto
          -140 -3 callsubr
        </CharString>
        <CharString name="dvGH_MA">
          351 727 -23 callsubr
          -408 159 callgsubr
          209 -193 hlineto
          -29 -8 -16 -17 -30 vvcurveto
          -17 6 -20 11 -27 vhcurveto
          -41 -30 -44 -20 -60 208 callgsubr
          694 352 rmoveto
          -995 -112 108 88 callgsubr
          -108 99 -60 119 85 63 30 51 45 vhcurveto
          5 -11 -8 callsubr
        </CharString>
        <CharString name="dvGH_NA">
          54 428 -22 callgsubr
          -698 -112 108 88 callgsubr
          -85 61 -55 84 -20 vhcurveto
          -45 -26 118 callsubr
          160 117 13 9 12 11 9 13 rlinecurve
          -140 -3 callsubr
        </CharString>
        <CharString name="dvGH_R">
          -204 487 365 rmoveto
          -75 -37 -66 -104 -110 hhcurveto
          -52 -40 21 44 41 36 27 59 hvcurveto
          79 callsubr
          183 112 -440 83 callgsubr
          334 284 rlineto
          endchar
        </CharString>
        <CharString name="dvGH_RA">
          60 434 -22 callgsubr
          -704 83 callgsubr
          204 185 rlineto
          -140 -3 callsubr
        </CharString>
        <CharString name="dvGH_YA">
          420 793 111 callsubr
          159 callgsubr
          295 8 callgsubr
          5 -40 10 -37 13 -32 rrcurveto
          -56 -34 -53 -25 -62 208 callgsubr
          763 352 rmoveto
          -1064 -112 108 88 callgsubr
          -108 99 -60 119 97 74 41 69 52 vhcurveto
          -48 46 60 -25 65 -102 callsubr
          vlineto
          endchar
        </CharString>
        <CharString name="dvG_BA">
          388 703 204 -38 callsubr
          469 325 rmoveto
          -1032 -112 153 -198 hlineto
          -97 callgsubr
          496 -268 vlineto
          -73 callsubr
          -144 -88 -97 -122 143 callgsubr
          hvcurveto
          -132 -86 callgsubr
        </CharString>
        <CharString name="dvG_BHA">
          337 713 141 callgsubr
          90 callgsubr
          57 -12 -44 callsubr
          125 153 -266 185 callsubr
          112 hlineto
          endchar
        </CharString>
        <CharString name="dvG_BH_YA">
          700 1073 -105 callgsubr
          -393 109 callsubr
          116 25 callgsubr
          -46 -42 -39 -101 -17 vhcurveto
          -102 153 hlineto
          137 callgsubr
          -24 -29 -6 -8 -20 vhcurveto
          9 90 callgsubr
          77 -12 -44 callsubr
          126 117 hlineto
          -104 45 86 -57 98 -102 callsubr
          112 vlineto
          endchar
        </CharString>
        <CharString name="dvG_DA">
          325 827 383 rmoveto
          68 callsubr
          -969 102 callgsubr
          420 21 callgsubr
          122 callsubr
          hvcurveto
          -87 callsubr
          endchar
        </CharString>
        <CharString name="dvG_DHA">
          379 993 671 -11 callgsubr
          -645 -112 153 -198 hlineto
          -97 callgsubr
          153 vlineto
          76 callgsubr
        </CharString>
        <CharString name="dvG_DH_VA">
          759 1373 -2 callsubr
          -613 -112 371 -268 hlineto
          96 callgsubr
          -19 2 -17 4 -16 hvcurveto
          -39 -48 -48 -15 -62 hhcurveto
          -60 -42 136 callgsubr
          17 59 hvcurveto
          -67 callsubr
          -665 -112 153 -198 hlineto
          -97 callgsubr
          173 vlineto
          -21 callgsubr
          94 79 27 44 59 vhcurveto
          -36 39 55 -18 59 hhcurveto
          -68 callgsubr
        </CharString>
        <CharString name="dvG_DH_YA">
          780 1153 -5 callsubr
          6 -50 13 -44 19 -37 rrcurveto
          -42 -50 -49 -17 -65 hhcurveto
          -60 -42 136 callgsubr
          17 59 hvcurveto
          -67 callsubr
          -665 -112 153 -198 hlineto
          -97 callgsubr
          173 vlineto
          -21 callgsubr
          105 86 34 54 61 vhcurveto
          -34 42 51 -17 54 -102 callsubr
          112 vlineto
          endchar
        </CharString>
        <CharString name="dvG_GA">
          321 935 -2 callsubr
          -965 -112 153 -198 hlineto
          -97 callgsubr
          179 19 callsubr
          vlineto
          endchar
        </CharString>
        <CharString name="dvG_GHA">
          384 758 -22 callgsubr
          -1028 -112 153 -198 hlineto
          -97 callgsubr
          144 vlineto
          -23 callgsubr
          -108 99 -60 119 65 75 21 50 36 vhcurveto
          -140 -3 callsubr
        </CharString>
        <CharString name="dvG_JA">
          394 1009 -2 callsubr
          -1039 -112 153 -198 hlineto
          -97 callgsubr
          502 -96 -359 -115 vlineto
          -102 callgsubr
          141 -348 142 559 101 hlineto
          endchar
        </CharString>
        <CharString name="dvG_LA">
          507 1121 -2 callsubr
          -1151 -112 153 -198 hlineto
          -97 callgsubr
          614 -73 vlineto
          1 -8 -9 1 -8 -107 callgsubr
          64 6 5 0 -1 6 vhcurveto
          -376 143 -80 callgsubr
          vlineto
          endchar
        </CharString>
        <CharString name="dvG_MA">
          321 697 -23 callsubr
          238 -11 callsubr
          -965 -112 153 -198 hlineto
          -97 callgsubr
          136 -193 vlineto
          120 callgsubr
          hlineto
          endchar
        </CharString>
        <CharString name="dvG_NA">
          1 -30 671 rmoveto
          102 callgsubr
          111 -313 vlineto
          -231 -143 rlineto
          -42 -26 -17 -30 -34 callgsubr
          6 14 13 8 vhcurveto
          128 82 rlineto
          -113 163 callsubr
        </CharString>
        <CharString name="dvG_NNA">
          524 641 342 -58 callgsubr
          497 -11 callsubr
          -1168 -112 153 -198 hlineto
          -97 callgsubr
          120 112 callsubr
        </CharString>
        <CharString name="dvG_N_YA">
          710 1083 -105 callgsubr
          241 -11 callsubr
          -1354 -112 153 -198 hlineto
          -97 callgsubr
          542 25 callgsubr
          -33 -21 -28 -48 -21 vhcurveto
          19 -33 -56 21 -84 hhcurveto
          -113 hlineto
          -103 callgsubr
          61 hlineto
          51 27 -11 -9 12 hvcurveto
          -129 38 95 -71 110 -102 callsubr
          vlineto
          endchar
        </CharString>
        <CharString name="dvG_R">
          36 callgsubr
          endchar
        </CharString>
        <CharString name="dvG_RA">
          16 -30 671 31 callsubr
        </CharString>
        <CharString name="dvG_R_YA">
          440 813 -105 callgsubr
          241 -11 callsubr
          -1084 -112 168 -198 hlineto
          -97 callgsubr
          257 -41 callsubr
          2 -18 3 -18 4 -16 -389 -344 rcurveline
          189 hlineto
          256 223 rlineto
          -63 48 69 -34 75 -102 callsubr
          vlineto
          endchar
        </CharString>
        <CharString name="dvG_SA">
          448 652 152 callgsubr
          148 -205 vlineto
          241 317 rmoveto
          -1092 -112 153 -198 hlineto
          -97 callgsubr
          269 -115 vlineto
          78 callgsubr
        </CharString>
        <CharString name="dvG_VA">
          349 963 -2 callsubr
          -993 -112 153 -198 hlineto
          -97 callgsubr
          457 41 callsubr
        </CharString>
        <CharString name="dvG_YA">
          400 773 -105 callgsubr
          241 -11 callsubr
          -1044 -112 153 -198 hlineto
          -97 callgsubr
          232 -41 callsubr
          -173 21 108 -97 128 -102 callsubr
          vlineto
          endchar
        </CharString>
        <CharString name="dvGx">
          -262 165 94 rmoveto
          -100 callgsubr
          187 577 rmoveto
          -382 -112 153 -198 hlineto
          -97 callgsubr
          88 vlineto
          endchar
        </CharString>
        <CharString name="dvGxA">
          1 165 94 rmoveto
          -100 callgsubr
          -195 577 rmoveto
          -112 153 19 callsubr
          112 vlineto
          endchar
        </CharString>
        <CharString name="dvGx_R">
          36 callgsubr
          -100 -213 rmoveto
          -100 callgsubr
          endchar
        </CharString>
        <CharString name="dvGx_RA">
          16 315 -56 rmoveto
          -100 callgsubr
          -345 727 31 callsubr
        </CharString>
        <CharString name="dvH">
          -83 588 219 rmoveto
          112 -287 vlineto
          -29 -26 -2 -5 -24 hvcurveto
          -20 15 -11 17 18 vvcurveto
          18 14 9 23 vhcurveto
          255 158 48 112 -561 -112 373 -48 -144 hlineto
          -87 -67 -40 -80 -64 47 -33 25 -13 hvcurveto
          -46 -34 -22 -47 -49 vvcurveto
          -94 84 -101 188 172 callsubr
          vhcurveto
          115 vlineto
          -18 -82 -22 -1 -34 hhcurveto
          -101 -35 35 46 40 35 29 70 hvcurveto
          endchar
        </CharString>
        <CharString name="dvHA">
          -33 67 callsubr
          -63 46 -33 24 -14 hvcurveto
          -44 -34 -22 -48 -48 vvcurveto
          -94 84 -101 188 172 callsubr
          vhcurveto
          -78 callgsubr
        </CharString>
        <CharString name="dvHA_mU">
          -36 67 callsubr
          -61 43 -33 26 -15 hvcurveto
          -44 -35 -21 -48 -48 vvcurveto
          -150 126 -41 96 8 7 0 1 8 vhcurveto
          8 8 20 9 16 hhcurveto
          35 19 -22 -26 -28 -20 -24 -56 -59 -100 38 35 -59 hvcurveto
          -136 vlineto
          -33 63 85 -19 75 hhcurveto
          142 64 79 99 76 -58 73 -119 -22 -36 -10 -8 -14 hvcurveto
          -57 -30 26 52 40 35 34 70 45 26 -17 -30 -9 -2 -11 -6 -12 hvcurveto
          138 hlineto
          5 14 2 13 14 vvcurveto
          82 -68 71 -135 -32 -29 -3 -6 -26 vhcurveto
          -15 13 -8 16 15 50 callgsubr
        </CharString>
        <CharString name="dvHA_mUU">
          -33 67 callsubr
          -63 46 -33 24 -14 hvcurveto
          -44 -34 -22 -48 -48 vvcurveto
          -56 29 -58 64 -31 vhcurveto
          -18 -25 -10 -30 -31 vvcurveto
          200 callsubr
          106 vlineto
          207 callsubr
          27 20 15 31 94 47 -93 -104 1 hvcurveto
          131 hlineto
          152 -1 -68 157 -205 hhcurveto
          -76 5 -30 34 41 vvcurveto
          40 35 29 70 46 27 -20 -24 -9 0 -22 -10 -19 vhcurveto
          138 hlineto
          9 20 0 24 14 vvcurveto
          86 -83 65 -122 -30 -28 -3 -5 -24 vhcurveto
          -18 14 58 callgsubr
        </CharString>
        <CharString name="dvHA_mvR">
          -2 487 401 rmoveto
          158 125 112 -642 -112 377 -48 -134 129 callgsubr
          -68 54 -34 22 -11 hvcurveto
          -64 -46 -28 -68 -72 11 callsubr
          79 58 61 79 24 7 -11 -12 hvcurveto
          -26 -63 -49 -48 vvcurveto
          -68 68 -29 64 57 53 12 18 31 vhcurveto
          101 vlineto
          -16 -21 -50 -16 -36 hhcurveto
          -20 -18 2 17 hvcurveto
          32 68 50 54 vvcurveto
          62 -58 37 -87 -38 -35 -4 -7 -30 vhcurveto
          -21 15 -11 18 18 50 callgsubr
        </CharString>
        <CharString name="dvH_LA">
          110 591 401 rmoveto
          158 134 112 -755 -112 481 -48 -234 129 callgsubr
          -71 59 -33 20 -10 hvcurveto
          -70 -55 -27 -80 -80 vvcurveto
          -219 169 -106 191 26 33 1 4 19 vhcurveto
          104 vlineto
          -4 -16 -26 0 -27 hhcurveto
          -144 -85 96 115 108 64 70 130 62 43 -14 -30 26 hvcurveto
          -43 -33 -18 -39 -12 hvcurveto
          27 -6 -28 26 -50 hhcurveto
          -72 -41 -51 -76 -94 63 -61 102 11 15 1 1 8 hvcurveto
          68 vlineto
          -2 -5 -8 0 -9 hhcurveto
          -61 -31 33 53 36 14 19 21 22 11 -17 -29 hvcurveto
          -40 90 37 vlineto
          39 14 19 35 8 7 -1 -1 8 vhcurveto
          1 -11 1 -13 -13 vvcurveto
          -60 -17 -64 -18 -41 vhcurveto
          126 hlineto
          21 44 15 70 66 vvcurveto
          139 -105 110 -185 -55 -46 -7 -12 -40 vhcurveto
          -19 15 58 callgsubr
        </CharString>
        <CharString name="dvH_MA">
          277 653 182 rmoveto
          -143 22 hlineto
          87 -83 43 -104 -27 -25 -2 -5 -23 vhcurveto
          -17 14 -9 17 16 vvcurveto
          18 14 9 23 vhcurveto
          235 158 159 205 callsubr
          384 -48 -124 hlineto
          -87 -67 -40 -80 -60 41 -33 26 -15 hvcurveto
          -57 -41 -27 -64 -72 130 callsubr
          -126 -110 72 111 91 54 39 63 33 26 -8 -26 hvcurveto
          -10 vlineto
          -27 -7 -16 -22 -31 vvcurveto
          -30 30 -52 32 -61 vhcurveto
          113 81 143 -169 138 669 100 hlineto
          endchar
        </CharString>
        <CharString name="dvH_NA">
          95 587 401 rmoveto
          158 122 112 -739 -112 477 -48 -234 129 callgsubr
          -76 67 -33 16 -7 hvcurveto
          -69 -45 -30 -68 -70 11 callsubr
          82 66 55 113 23 21 -2 -5 19 hvcurveto
          -91 -43 rlineto
          -41 -19 -19 -26 -31 vvcurveto
          -51 57 -56 26 -20 vhcurveto
          87 41 rlineto
          -26 36 -13 27 13 vvcurveto
          11 7 6 11 5 vhcurveto
          91 43 rlineto
          8 -17 5 -20 -23 75 callgsubr
          -50 -44 -5 -10 -38 vhcurveto
          -25 16 -13 19 20 50 callgsubr
        </CharString>
        <CharString name="dvH_NNA">
          118 412 116 rmoveto
          -30 -8 -11 -23 -22 -11 11 30 vhcurveto
          104 vlineto
          1 10 11 0 11 hhcurveto
          11 11 0 -1 10 hvcurveto
          192 181 rmoveto
          158 128 112 -762 -112 494 -48 -234 129 callgsubr
          -76 67 -33 16 -7 hvcurveto
          -69 -45 -30 -68 -70 11 callsubr
          49 15 40 42 23 hvcurveto
          -78 vlineto
          -80 43 -40 78 76 47 41 81 vhcurveto
          72 vlineto
          29 -21 14 -33 -48 75 callgsubr
          -50 -44 -5 -10 -38 vhcurveto
          -25 16 -13 19 20 50 callgsubr
        </CharString>
        <CharString name="dvH_RA">
          113 604 401 rmoveto
          158 123 112 -757 -112 494 -48 -234 129 callgsubr
          -70 56 -33 22 -10 hvcurveto
          -66 -46 -28 -69 -71 11 callsubr
          82 66 55 93 19 17 -1 -2 16 hvcurveto
          -152 -206 rlineto
          152 hlineto
          96 152 rlineto
          12 -20 5 -24 -30 75 callgsubr
          -44 -38 -4 -8 -34 vhcurveto
          -22 15 -12 18 19 50 callgsubr
        </CharString>
        <CharString name="dvH_VA">
          108 599 401 rmoveto
          158 123 112 -752 -112 489 -48 -234 129 callgsubr
          -77 69 -33 14 -6 hvcurveto
          -75 -51 -34 -78 -74 vvcurveto
          -201 163 -116 200 27 28 2 5 28 vhcurveto
          104 vlineto
          -3 -21 -21 -2 -21 hhcurveto
          -121 -121 52 140 97 69 71 110 111 45 -55 -86 7 hvcurveto
          0 vlineto
          -41 -15 -39 -21 -38 hhcurveto
          -33 -18 14 27 26 20 13 21 11 13 -3 -4 9 hvcurveto
          82 vlineto
          5 -13 -23 4 -19 hhcurveto
          -82 -64 -50 -76 -80 63 -49 79 45 41 13 28 32 hvcurveto
          -4 -19 -6 -18 -6 -16 rrcurveto
          129 hlineto
          16 40 12 68 47 vvcurveto
          145 -96 119 -186 -46 -41 -5 -10 -36 vhcurveto
          -24 16 -13 19 20 50 callgsubr
        </CharString>
        <CharString name="dvH_YA">
          277 653 192 rmoveto
          -84 -59 -49 -69 -31 -28 11 19 -16 vhcurveto
          52 18 41 41 57 vvcurveto
          99 -94 40 -107 -35 -33 -4 -9 -30 vhcurveto
          -15 13 -7 15 15 vvcurveto
          18 14 9 23 vhcurveto
          255 158 139 205 callsubr
          404 -48 -144 hlineto
          -87 -67 -40 -80 -61 43 -33 25 -14 hvcurveto
          -53 -42 -32 -61 -74 130 callsubr
          -116 -120 72 111 92 55 47 98 33 22 -15 -21 -35 -49 -21 -65 -14 hvcurveto
          -130 22 103 -48 83 hhcurveto
          66 54 19 39 29 hvcurveto
          -118 138 669 100 vlineto
          endchar
        </CharString>
        <CharString name="dvI">
          -55 454 559 rmoveto
          105 112 -589 -112 344 -45 -56 35 callgsubr
          202 146 callsubr
        </CharString>
        <CharString name="dvII">
          -55 444 559 rmoveto
          115 112 -142 hlineto
          -11 17 -19 34 33 vvcurveto
          31 21 27 37 39 40 -13 -18 25 vhcurveto
          130 188 callgsubr
          -47 19 -33 12 -17 hvcurveto
          -304 -112 334 -45 -46 35 callgsubr
          192 146 callsubr
        </CharString>
        <CharString name="dvII_Anusvara">
          -55 567 982 rmoveto
          190 callsubr
          -64 22 -47 30 -39 hvcurveto
          -322 -112 354 -43 -75 hlineto
          -92 -99 -43 -109 -87 74 -60 95 -6 hvcurveto
          91 6 rlineto
          29 -5 13 -21 -23 vvcurveto
          -42 -33 -24 -38 -52 -40 34 45 -17 vhcurveto
          -130 -252 140 95 hlineto
          -17 32 39 -10 43 hhcurveto
          115 80 67 102 94 -56 61 -111 8 hvcurveto
          -90 -4 rlineto
          -28 2 -13 16 22 vvcurveto
          28 26 11 25 vhcurveto
          212 69 callgsubr
          152 95 112 -127 hlineto
          -17 19 -30 40 53 vvcurveto
          55 46 40 52 160 callgsubr
          vhcurveto
          -136 -79 rmoveto
          12 callsubr
          -32 -25 -25 -32 vhcurveto
          endchar
        </CharString>
        <CharString name="dvJ">
          -164 190 callgsubr
          125 -96 rmoveto
          -488 -115 hlineto
          -102 callgsubr
          270 hlineto
          endchar
        </CharString>
        <CharString name="dvJA">
          74 158 callsubr
          476 -96 -359 -115 vlineto
          -102 callgsubr
          141 -348 142 559 101 140 callsubr
        </CharString>
        <CharString name="dvJH">
          -55 686 336 rmoveto
          -407 0 -14 hlineto
          33 callgsubr
          105 112 -589 -50 callsubr
          203 hlineto
          endchar
        </CharString>
        <CharString name="dvJHA">
          197 279 336 rmoveto
          0 -14 vlineto
          33 callgsubr
          115 -223 hlineto
          242 335 rmoveto
          -841 -50 callsubr
          86 -229 48 callsubr
          hlineto
          endchar
        </CharString>
        <CharString name="dvJH_MA">
          561 937 -23 callsubr
          -483 -157 rmoveto
          -1 3 rlineto
          1 154 186 -193 hlineto
          -20 -5 -13 -10 -7 -15 rrcurveto
          -321 0 -14 hlineto
          -39 -25 6 26 28 26 6 37 hvcurveto
          911 269 rmoveto
          -1205 -50 callsubr
          137 hlineto
          4 -10 150 callsubr
        </CharString>
        <CharString name="dvJH_NA">
          322 283 345 rmoveto
          -43 -19 9 21 23 21 9 42 hvcurveto
          216 152 194 -214 hlineto
          242 326 rmoveto
          -966 -112 390 -43 -82 hlineto
          -109 -91 -37 -111 -110 104 -32 101 47 40 -8 -46 -36 -27 -17 -40 -46 -44 33 49 -23 hvcurveto
          -130 -242 140 87 hlineto
          -20 34 41 -12 46 hhcurveto
          113 75 65 101 21 -2 20 -6 17 hvcurveto
          193 -33 hlineto
          -208 -184 rlineto
          -35 -31 -14 -32 -30 vvcurveto
          -50 41 -46 53 -26 vhcurveto
          76 46 rlineto
          -23 23 -16 21 21 vvcurveto
          12 5 11 12 13 vhcurveto
          109 116 rlineto
          -69 -86 callgsubr
        </CharString>
        <CharString name="dvJH_R">
          44 729 264 rmoveto
          72 -463 vlineto
          -39 -25 6 26 28 26 8 37 hvcurveto
          200 155 193 112 -688 37 callsubr
          207 hlineto
          -380 -347 rlineto
          188 hlineto
          306 289 rlineto
          endchar
        </CharString>
        <CharString name="dvJH_RA">
          297 266 336 rmoveto
          -39 -25 6 26 28 26 8 37 hvcurveto
          200 155 204 -223 hlineto
          242 335 rmoveto
          -941 37 callsubr
          185 -21 hlineto
          -358 -326 rlineto
          188 hlineto
          170 178 rlineto
          -60 -86 callgsubr
        </CharString>
        <CharString name="dvJH_YA">
          610 983 -105 callgsubr
          -704 -223 rmoveto
          0 -14 vlineto
          33 callgsubr
          252 8 callgsubr
          2 -14 2 -13 3 -13 rrcurveto
          638 335 rmoveto
          -1254 -50 callsubr
          144 hlineto
          -80 47 77 -43 85 -102 callsubr
          vlineto
          endchar
        </CharString>
        <CharString name="dvJ_BA">
          498 813 204 -38 callsubr
          469 325 rmoveto
          -1142 -112 900 86 callsubr
          -62 -51 -18 -30 -39 hvcurveto
          -478 -115 hlineto
          -102 callgsubr
          187 hlineto
          -5 -18 -2 -19 -19 131 callsubr
        </CharString>
        <CharString name="dvJ_DA">
          415 917 383 rmoveto
          68 callsubr
          -1059 -112 804 -64 -71 vlineto
          -59 -49 -12 -20 -39 hvcurveto
          -469 -115 hlineto
          -102 callgsubr
          155 hlineto
          -7 -22 -3 -23 -25 vvcurveto
          122 callsubr
          vhcurveto
          -87 callsubr
          endchar
        </CharString>
        <CharString name="dvJ_DDA">
          430 913 171 callgsubr
          -1074 -112 803 -43 -68 hlineto
          -56 -58 -16 -37 -37 hvcurveto
          -467 -115 hlineto
          -102 callgsubr
          210 hlineto
          -108 8 107 -29 93 hhcurveto
          -86 callsubr
        </CharString>
        <CharString name="dvJ_JA">
          474 1089 -2 callsubr
          -1119 -112 876 -96 -759 -115 hlineto
          -102 callgsubr
          182 62 callsubr
        </CharString>
        <CharString name="dvJ_JHA">
          647 729 336 rmoveto
          0 -14 vlineto
          33 callgsubr
          115 -223 hlineto
          242 335 rmoveto
          -1291 -112 794 -45 -56 hlineto
          -65 -58 -15 -36 -37 hvcurveto
          -461 -115 hlineto
          -102 callgsubr
          203 hlineto
          -106 7 97 -25 103 hhcurveto
          -22 callsubr
          86 -229 48 callsubr
          hlineto
          endchar
        </CharString>
        <CharString name="dvJ_J_NYA">
          637 1251 -2 callsubr
          -1281 -112 1039 -53 -315 hlineto
          -53 -55 -12 -31 -38 hvcurveto
          -461 -115 hlineto
          -102 callgsubr
          198 hlineto
          -85 7 70 -42 126 hhcurveto
          67 27 -18 1 callsubr
          57 170 callgsubr
          8 169 callsubr
          306 -394 48 callsubr
          hlineto
          endchar
        </CharString>
        <CharString name="dvJ_J_VA">
          839 1453 -2 callsubr
          -1483 -112 1241 -268 hlineto
          -103 callsubr
          -56 -47 -15 -27 -36 hvcurveto
          -852 -115 hlineto
          -102 callgsubr
          192 hlineto
          -102 callgsubr
          147 hlineto
          -5 -18 -2 -19 -19 -64 callgsubr
        </CharString>
        <CharString name="dvJ_J_YA">
          860 1233 -105 callgsubr
          241 -11 callsubr
          -1504 -112 986 -15 callsubr
          -26 -13 -23 -30 -19 vhcurveto
          19 -32 -72 32 -115 hhcurveto
          -636 -115 hlineto
          -102 callgsubr
          182 hlineto
          -102 callgsubr
          25 hlineto
          49 30 -4 -10 27 hvcurveto
          -147 32 101 -81 117 -102 callsubr
          vlineto
          endchar
        </CharString>
        <CharString name="dvJ_KA">
          645 1259 129 callsubr
          -1289 -112 783 4 callgsubr
          -35 -32 -6 -11 -28 hvcurveto
          1 -488 -115 vlineto
          -102 callgsubr
          156 hlineto
          -8 -22 -4 -24 -27 -71 callgsubr
        </CharString>
        <CharString name="dvJ_MA">
          451 827 -23 callsubr
          238 -11 callsubr
          -1095 -112 560 -96 -443 -115 hlineto
          -102 callgsubr
          193 hlineto
          -9 -9 -4 -12 -16 -50 callgsubr
          hlineto
          endchar
        </CharString>
        <CharString name="dvJ_NA">
          74 158 callsubr
          476 -96 -359 -115 vlineto
          97 46 -36 -45 -56 -38 -16 -61 80 callgsubr
          109 94 64 101 47 -20 36 -40 25 hvcurveto
          143 -185 hlineto
          -212 -119 rlineto
          -42 -26 -17 -30 -34 callgsubr
          6 14 13 8 vhcurveto
          109 70 rlineto
          -42 142 -30 callsubr
        </CharString>
        <CharString name="dvJ_NY">
          -39 575 -2 callsubr
          -605 -112 605 hlineto
          121 -175 rmoveto
          112 -442 vlineto
          -92 -99 -36 -109 -94 71 -41 132 67 27 -13 1 callsubr
          52 170 callgsubr
          3 169 callsubr
          endchar
        </CharString>
        <CharString name="dvJ_NYA">
          174 158 callsubr
          599 -53 -315 vlineto
          -92 -99 -36 -109 -94 71 -46 132 67 27 -18 1 callsubr
          57 170 callgsubr
          8 169 callsubr
          306 -394 164 callsubr
        </CharString>
        <CharString name="dvJ_NY_YA">
          580 953 -105 callgsubr
          241 -11 callsubr
          -1224 -112 706 -15 callsubr
          -25 -12 -23 -27 -18 vhcurveto
          50 -52 -74 32 -127 hhcurveto
          -159 hlineto
          -92 -99 -36 -109 -94 71 -41 132 67 27 -13 1 callsubr
          52 170 callgsubr
          3 169 callsubr
          137 hlineto
          78 46 -9 -30 30 hvcurveto
          -153 29 103 -86 120 -102 callsubr
          vlineto
          endchar
        </CharString>
        <CharString name="dvJ_R">
          181 callgsubr
          -431 -659 rmoveto
          179 hlineto
          351 304 -78 84 rlineto
          -452 175 rmoveto
          -16 callsubr
          315 115 hlineto
          endchar
        </CharString>
        <CharString name="dvJ_RA">
          74 158 callsubr
          476 -96 -359 -16 callsubr
          140 -140 hlineto
          -359 -308 rlineto
          179 hlineto
          180 156 rlineto
          -56 142 -30 callsubr
        </CharString>
        <CharString name="dvJ_TA">
          454 1068 -2 callsubr
          -1098 -112 856 -85 -74 hlineto
          -6 0 -659 -115 hlineto
          -102 callgsubr
          198 hlineto
          -19 -34 -9 -39 -44 vvcurveto
          -70 callgsubr
        </CharString>
        <CharString name="dvJ_TTA">
          356 873 559 186 callsubr
          -1000 -112 763 -83 -10 hlineto
          -33 -1 -29 -4 -27 -8 rrcurveto
          -547 -115 hlineto
          -102 callgsubr
          182 hlineto
          -15 -30 -8 -33 -35 -58 callsubr
        </CharString>
        <CharString name="dvJ_VA">
          449 1063 -2 callsubr
          -1093 -112 851 -268 hlineto
          -103 callsubr
          -56 -47 -15 -27 -36 hvcurveto
          -462 -115 hlineto
          -102 callgsubr
          167 hlineto
          -5 -18 -2 -19 -19 -64 callgsubr
        </CharString>
        <CharString name="dvJ_YA">
          452 825 -105 callgsubr
          241 -11 callsubr
          -1096 -112 578 -15 callsubr
          -26 -13 -24 -30 -18 vhcurveto
          18 -20 -55 33 -122 hhcurveto
          -250 -115 hlineto
          -102 callgsubr
          52 hlineto
          31 23 -5 -7 17 hvcurveto
          -148 31 101 -82 118 -102 callsubr
          vlineto
          endchar
        </CharString>
        <CharString name="dvJx">
          -142 190 callgsubr
          -277 -565 rmoveto
          -100 callgsubr
          402 469 rmoveto
          -488 -115 hlineto
          -102 callgsubr
          270 hlineto
          endchar
        </CharString>
        <CharString name="dvJxA">
          74 173 -6 rmoveto
          -100 callgsubr
          -203 677 rmoveto
          -112 476 -96 -359 -115 vlineto
          -102 callgsubr
          141 -348 142 559 101 140 callsubr
        </CharString>
        <CharString name="dvJx_JxA">
          494 173 -6 rmoveto
          -100 callgsubr
          420 hmoveto
          -100 callgsubr
          516 677 rmoveto
          -1139 -112 896 -96 -779 -115 hlineto
          -102 callgsubr
          202 62 callsubr
        </CharString>
        <CharString name="dvJx_R">
          181 callgsubr
          7 -555 rmoveto
          -100 callgsubr
          -438 -104 rmoveto
          179 hlineto
          351 304 -78 84 rlineto
          -452 175 rmoveto
          -16 callsubr
          315 115 hlineto
          endchar
        </CharString>
        <CharString name="dvJx_RA">
          74 422 -56 rmoveto
          -100 callgsubr
          -452 727 rmoveto
          -112 476 -96 -359 -16 callsubr
          140 -140 hlineto
          -359 -308 rlineto
          179 hlineto
          180 156 rlineto
          -56 142 -30 callsubr
        </CharString>
        <CharString name="dvJx_YA">
          452 173 -6 rmoveto
          -100 callgsubr
          652 368 -106 callgsubr
          241 -11 callsubr
          -1096 -112 578 -15 callsubr
          -6 -1 -5 -1 -6 vhcurveto
          -488 -115 hlineto
          -102 callgsubr
          120 hlineto
          -155 29 103 -87 121 -102 callsubr
          vlineto
          endchar
        </CharString>
        <CharString name="dvK">
          -38 475 559 rmoveto
          101 112 -606 29 callgsubr
          26 -25 -32 9 vhcurveto
          101 103 rlineto
          41 -34 -53 25 -66 -14 callgsubr
          endchar
        </CharString>
        <CharString name="dvKA">
          225 839 129 callsubr
          -869 -89 callgsubr
          56 26 -43 -44 -49 -29 -40 -57 -5 -5 0 1 -6 vhcurveto
          -113 vlineto
          -1 8 8 0 7 hhcurveto
          127 94 78 126 113 -77 84 -121 -62 callsubr
          109 vlineto
          endchar
        </CharString>
        <CharString name="dvKH">
          44 544 312 -51 callgsubr
          340 196 callgsubr
          208 -92 vlineto
          -62 callgsubr
          180 159 108 175 105 -71 99 -146 -59 callgsubr
          endchar
        </CharString>
        <CharString name="dvKHA">
          257 871 -2 callsubr
          -901 -112 233 -116 hlineto
          -45 -27 -32 -65 vhcurveto
          -76 -110 hlineto
          198 -256 -84 callgsubr
        </CharString>
        <CharString name="dvKH_KHA">
          832 1204 17 callsubr
          -436 -92 rmoveto
          -40 -11 -21 -27 -7 vhcurveto
          62 -32 -64 45 -99 hhcurveto
          -111 -71 -68 -88 -84 62 -56 78 15 20 3 5 16 hvcurveto
          94 vlineto
          -49 callsubr
          450 vlineto
          678 -11 callsubr
          -1476 110 callgsubr
          hlineto
          -62 callgsubr
          123 113 50 88 59 hvcurveto
          -86 68 94 -52 121 hhcurveto
          80 76 26 46 57 hvcurveto
          -91 -86 callgsubr
        </CharString>
        <CharString name="dvKH_MA">
          651 1027 -23 callsubr
          -483 -247 -51 callgsubr
          412 -161 vlineto
          62 -31 -65 46 -99 hhcurveto
          -59 callgsubr
          721 453 rmoveto
          -1295 110 callgsubr
          hlineto
          -62 callgsubr
          137 126 63 108 51 hvcurveto
          23 -51 -8 callsubr
        </CharString>
        <CharString name="dvKH_NA">
          242 614 17 callsubr
          242 112 rmoveto
          -886 110 callgsubr
          hlineto
          -51 -18 -20 -46 vhcurveto
          -69 -110 hlineto
          45 -114 74 -87 100 -40 -77 -27 rcurveline
          -59 -16 -21 -34 -40 vvcurveto
          -49 33 -56 39 -35 vhcurveto
          91 29 rlineto
          -15 30 -13 29 21 vvcurveto
          18 9 12 18 7 vhcurveto
          264 110 rlineto
          0 vlineto
          30 12 27 16 24 19 rrcurveto
          -91 -86 callgsubr
        </CharString>
        <CharString name="dvKH_R">
          13 540 322 -17 callgsubr
        </CharString>
        <CharString name="dvKH_RA">
          238 610 488 -38 callgsubr
          -882 -112 204 -86 hlineto
          -51 -14 -16 -46 vhcurveto
          -69 -110 hlineto
          30 callgsubr
        </CharString>
        <CharString name="dvKH_SHA">
          816 890 137 callsubr
          -75 hlineto
          85 -19 -70 70 -123 hhcurveto
          -111 -71 -68 -88 -84 62 -56 78 15 20 3 5 16 hvcurveto
          94 vlineto
          -49 callsubr
          340 196 callgsubr
          208 -92 vlineto
          -62 callgsubr
          145 131 70 119 46 hvcurveto
          196 -208 rlineto
          180 hlineto
          -237 239 rlineto
          121 7 127 72 161 vvcurveto
          115 -78 83 -124 -113 -70 -77 -87 -25 6 -26 12 -23 vhcurveto
          433 232 rmoveto
          -671 142 -30 callsubr
        </CharString>
        <CharString name="dvKH_TA">
          614 986 474 rmoveto
          -74 hlineto
          -85 -65 -20 -33 -45 hvcurveto
          50 -35 -60 35 -87 hhcurveto
          -111 -71 -68 -88 -84 62 -56 78 15 20 3 5 16 hvcurveto
          94 vlineto
          -49 callsubr
          668 48 callgsubr
          -1258 110 callgsubr
          hlineto
          -62 callgsubr
          98 91 32 57 64 hvcurveto
          -66 35 66 -41 92 22 callgsubr
        </CharString>
        <CharString name="dvKH_VA">
          609 981 291 rmoveto
          -103 callsubr
          -64 -54 -21 -34 -38 hvcurveto
          34 -36 -52 22 -69 hhcurveto
          -111 -71 -68 -88 -84 62 -56 78 15 20 3 5 16 hvcurveto
          94 vlineto
          -49 callsubr
          663 48 callgsubr
          -1253 110 callgsubr
          hlineto
          -62 callgsubr
          113 105 42 75 62 hvcurveto
          -33 39 53 -17 57 hhcurveto
          -68 callgsubr
        </CharString>
        <CharString name="dvKH_YA">
          650 1023 -105 callgsubr
          -479 -247 -51 callgsubr
          428 25 callgsubr
          -28 -15 -25 -35 -20 vhcurveto
          58 -33 -63 41 -94 hhcurveto
          -59 callgsubr
          720 453 rmoveto
          -1294 110 callgsubr
          hlineto
          -62 callgsubr
          128 117 55 94 58 hvcurveto
          -41 44 56 -21 60 -102 callsubr
          vlineto
          endchar
        </CharString>
        <CharString name="dvKHx">
          46 105 34 rmoveto
          -100 callgsubr
          439 278 -51 callgsubr
          340 196 callgsubr
          208 -92 vlineto
          -62 callgsubr
          180 159 108 175 105 -71 99 -146 -59 callgsubr
          endchar
        </CharString>
        <CharString name="dvKHxA">
          257 95 14 rmoveto
          -100 callgsubr
          776 657 rmoveto
          -901 -112 233 -116 hlineto
          -45 -27 -32 -65 vhcurveto
          -76 -110 hlineto
          198 -256 -84 callgsubr
        </CharString>
        <CharString name="dvKHx_MA">
          641 105 34 rmoveto
          -100 callgsubr
          912 339 rmoveto
          -158 186 158 hlineto
          -699 hmoveto
          402 -143 hlineto
          53 -34 -61 37 -90 hhcurveto
          -111 -71 -68 -88 -84 62 -56 78 15 20 3 5 16 hvcurveto
          94 vlineto
          -92 callgsubr
          937 234 rmoveto
          -1285 110 callgsubr
          hlineto
          -62 callgsubr
          133 121 59 101 55 hvcurveto
          18 -40 -8 callsubr
        </CharString>
        <CharString name="dvKHx_R">
          13 575 -36 rmoveto
          -100 callgsubr
          -35 358 -17 callgsubr
        </CharString>
        <CharString name="dvKHx_RA">
          238 535 -56 rmoveto
          -100 callgsubr
          75 544 -38 callgsubr
          -882 -112 204 -86 hlineto
          -51 -14 -16 -46 vhcurveto
          -69 -110 hlineto
          30 callgsubr
        </CharString>
        <CharString name="dvKHx_SA">
          738 105 34 rmoveto
          -100 callgsubr
          837 320 rmoveto
          -70 callsubr
          148 -205 vlineto
          -793 205 rmoveto
          505 -115 hlineto
          -42 -24 -31 -57 -4 vhcurveto
          78 -24 -68 61 -115 hhcurveto
          -111 -71 -68 -88 -84 62 -56 78 15 20 3 5 16 hvcurveto
          94 vlineto
          -92 callgsubr
          1034 234 rmoveto
          -1382 110 callgsubr
          hlineto
          -62 callgsubr
          134 122 60 102 54 hvcurveto
          130 -181 16 callsubr
        </CharString>
        <CharString name="dvKHx_SHA">
          776 105 34 rmoveto
          -100 callgsubr
          745 405 20 callgsubr
          -35 hlineto
          85 -19 -70 70 -123 hhcurveto
          -111 -71 -68 -88 -84 62 -56 78 15 20 3 5 16 hvcurveto
          94 vlineto
          -49 callsubr
          340 196 callgsubr
          208 -92 vlineto
          -62 callgsubr
          133 121 59 101 55 hvcurveto
          169 -179 rlineto
          180 hlineto
          -237 239 rlineto
          121 7 127 72 161 vvcurveto
          115 -78 83 -124 -113 -70 -77 -87 -25 6 -26 12 -23 vhcurveto
          433 232 rmoveto
          -671 142 -30 callsubr
        </CharString>
        <CharString name="dvKHx_TA">
          610 105 34 rmoveto
          -100 callgsubr
          877 440 rmoveto
          -74 hlineto
          -84 -63 -19 -32 -46 hvcurveto
          49 -34 -60 34 -86 hhcurveto
          -111 -71 -68 -88 -84 62 -56 78 15 20 3 5 16 hvcurveto
          94 vlineto
          -49 callsubr
          664 48 callgsubr
          -1254 110 callgsubr
          hlineto
          -62 callgsubr
          96 91 31 56 63 hvcurveto
          -65 36 65 -40 91 22 callgsubr
        </CharString>
        <CharString name="dvKHx_VA">
          619 105 34 rmoveto
          -100 callgsubr
          886 257 rmoveto
          -103 callsubr
          -67 -55 -23 -37 -39 hvcurveto
          37 -36 -54 24 -72 hhcurveto
          -111 -71 -68 -88 -84 62 -56 78 15 20 3 5 16 hvcurveto
          94 vlineto
          -49 callsubr
          673 48 callgsubr
          -1263 110 callgsubr
          hlineto
          -62 callgsubr
          115 107 44 78 62 hvcurveto
          -36 40 56 -19 59 hhcurveto
          -68 callgsubr
        </CharString>
        <CharString name="dvKHx_YA">
          660 105 34 rmoveto
          -100 callgsubr
          928 328 -106 callgsubr
          -489 -247 -51 callgsubr
          438 25 callgsubr
          -30 -18 -27 -40 -20 vhcurveto
          60 -32 -64 43 -96 hhcurveto
          -59 callgsubr
          730 453 rmoveto
          -1304 110 callgsubr
          hlineto
          -62 callgsubr
          131 119 57 98 56 hvcurveto
          -44 46 58 -24 63 -102 callsubr
          vlineto
          endchar
        </CharString>
        <CharString name="dvK_CA">
          676 1051 301 rmoveto
          33 callsubr
          -279 vlineto
          22 -27 -35 15 -52 hhcurveto
          -49 -36 -17 -23 -27 hvcurveto
          110 576 vlineto
          240 -11 callsubr
          -1321 -112 363 -276 hlineto
          -106 callsubr
          32 37 46 40 22 -20 -20 12 vhcurveto
          106 hlineto
          -30 -19 -23 -32 -55 189 callsubr
          -146 -3 callsubr
        </CharString>
        <CharString name="dvK_DA">
          542 475 559 rmoveto
          410 -43 -68 hlineto
          -52 -54 -14 -32 -38 hvcurveto
          12 -26 -31 7 -35 -14 callgsubr
          550 109 185 callgsubr
          -1186 -112 363 -276 hlineto
          -104 callgsubr
          37 25 -19 -26 12 vhcurveto
          -95 17 101 -26 88 hhcurveto
          -86 callsubr
        </CharString>
        <CharString name="dvK_JA">
          594 686 463 rmoveto
          17 -29 -36 9 -40 -14 callgsubr
          109 491 -96 vlineto
          243 208 rmoveto
          -1239 -112 363 -276 hlineto
          -104 callgsubr
          22 17 -6 -11 13 vhcurveto
          -12 12 vlineto
          7 -8 4 -10 3 -10 24 24 rcurveline
          63 -10 30 -32 -45 -61 callgsubr
        </CharString>
        <CharString name="dvK_KA">
          770 878 -24 callsubr
          -38 -34 -7 -13 -31 hvcurveto
          19 -30 -38 11 -43 -14 callgsubr
          109 403 vlineto
          506 hmoveto
          112 -1414 -89 callgsubr
          15 13 -3 -6 11 vhcurveto
          -13 -27 -7 -31 -35 -71 callgsubr
        </CharString>
        <CharString name="dvK_KHA">
          854 800 443 rmoveto
          -35 -16 -27 -37 -10 vhcurveto
          77 -25 -65 41 -71 hhcurveto
          -48 -36 -17 -23 -27 hvcurveto
          110 325 vlineto
          668 -11 callsubr
          -1498 -112 363 -276 hlineto
          -105 callsubr
          55 34 31 -24 -37 3 vhcurveto
          -60 vlineto
          198 -256 -84 callgsubr
        </CharString>
        <CharString name="dvK_LA">
          767 1138 486 rmoveto
          -47 callgsubr
          -43 -37 -11 -19 -29 hvcurveto
          25 -32 -43 14 -50 -14 callgsubr
          109 663 vlineto
          243 -11 callsubr
          -1411 -112 363 -276 hlineto
          -104 callgsubr
          39 25 -21 -27 11 vhcurveto
          -4 -20 -2 -21 -22 vvcurveto
          64 callgsubr
          vhcurveto
          -91 callsubr
        </CharString>
        <CharString name="dvK_MA">
          596 972 -23 callsubr
          -497 hmoveto
          200 -90 hlineto
          13 -27 -32 7 -35 -14 callgsubr
          735 221 rmoveto
          -1240 -112 363 -276 hlineto
          34 callsubr
          -1 -4 0 -5 -5 -50 callgsubr
          hlineto
          endchar
        </CharString>
        <CharString name="dvK_NA">
          240 855 129 callsubr
          -885 -112 379 -266 vlineto
          -56 -34 -37 -46 -56 -26 36 44 49 29 37 57 5 5 0 -1 6 vhcurveto
          113 vlineto
          -64 callsubr
          -127 -94 -75 -126 -84 43 -65 72 -27 hvcurveto
          -51 -36 rlineto
          -37 -25 -14 -28 -28 vvcurveto
          -57 60 -57 58 -25 vhcurveto
          77 57 rlineto
          -29 29 -26 27 25 vvcurveto
          10 5 10 11 9 vhcurveto
          119 101 6 4 5 4 5 4 rlinecurve
          -126 -98 callsubr
        </CharString>
        <CharString name="dvK_NNA">
          770 887 342 -58 callgsubr
          -412 hmoveto
          155 -75 hlineto
          3 -15 -17 2 -17 -14 callgsubr
          909 221 rmoveto
          -1414 -112 363 -276 hlineto
          -104 callgsubr
          40 25 -22 -28 11 vhcurveto
          -114 8 70 -56 117 hhcurveto
          123 77 66 131 hvcurveto
          205 117 91 callgsubr
        </CharString>
        <CharString name="dvK_PA">
          561 933 376 88 callsubr
          700 221 rmoveto
          -1205 -112 363 -276 hlineto
          34 callsubr
          -107 16 69 -47 100 -25 callgsubr
        </CharString>
        <CharString name="dvK_PHA">
          829 934 -77 callgsubr
          -459 hmoveto
          154 -75 hlineto
          3 -15 -16 2 -17 -14 callgsubr
          968 109 rmoveto
          112 -1473 -89 callgsubr
          43 26 -25 -32 9 vhcurveto
          0 vlineto
          -104 17 69 -45 98 hhcurveto
          49 39 16 25 29 hvcurveto
          -212 142 295 -100 callsubr
          100 vlineto
          endchar
        </CharString>
        <CharString name="dvK_P_RA">
          560 932 -29 callgsubr
          -457 hmoveto
          152 -74 hlineto
          3 -14 -16 1 -16 -14 callgsubr
          699 221 rmoveto
          -1204 29 callgsubr
          26 -25 -32 9 vhcurveto
          13 -66 36 -41 52 -19 -30 callgsubr
        </CharString>
        <CharString name="dvK_R">
          1 491 559 -6 callsubr
        </CharString>
        <CharString name="dvK_RA">
          240 855 129 callsubr
          -885 -112 379 85 callsubr
          203 callsubr
          hvcurveto
          -118 -135 rlineto
          167 hlineto
          131 163 rlineto
          -118 -98 callsubr
        </CharString>
        <CharString name="dvK_SA">
          710 914 152 callgsubr
          148 -205 vlineto
          -608 205 rmoveto
          320 -115 hlineto
          -31 -13 -25 -29 -12 vhcurveto
          68 -31 -49 45 -92 -14 callgsubr
          849 221 rmoveto
          -1354 -112 363 -276 hlineto
          -107 callsubr
          58 35 35 50 36 33 -21 -36 3 vhcurveto
          -51 -43 callgsubr
        </CharString>
        <CharString name="dvK_SHA">
          736 663 351 rmoveto
          71 72 -5 6 -5 5 -5 5 rlinecurve
          91 hlineto
          -74 callsubr
          -267 208 rmoveto
          101 112 -606 -112 363 -276 hlineto
          -104 callgsubr
          39 25 -21 -27 11 vhcurveto
          -95 89 callsubr
          -13 2 -13 3 -12 vhcurveto
          9 -24 -27 5 -30 -14 callgsubr
          633 221 rmoveto
          -671 142 -30 callsubr
        </CharString>
        <CharString name="dvK_SS">
          -21 280 566 -56 callsubr
          399 -254 rmoveto
          107 -256 vlineto
          -94 callsubr
          endchar
        </CharString>
        <CharString name="dvK_SSA">
          210 280 566 -56 callsubr
          302 105 rmoveto
          -252 -159 vlineto
          -94 callsubr
          214 -312 164 callsubr
        </CharString>
        <CharString name="dvK_SS_MA">
          546 922 -23 callsubr
          -642 7 -56 callsubr
          235 105 rmoveto
          136 callsubr
          -140 -202 vlineto
          -94 callsubr
          212 -1 hlineto
          -48 callsubr
          112 hlineto
          endchar
        </CharString>
        <CharString name="dvK_SS_M_YA">
          910 1283 60 callsubr
          -606 189 -56 callsubr
          1244 105 rmoveto
          -1014 136 callsubr
          -140 -197 hlineto
          -94 callsubr
          207 -6 hlineto
          -22 10 -26 19 -43 vhcurveto
          -18 callsubr
          119 154 hlineto
          -96 46 83 -52 94 -102 callsubr
          vlineto
          endchar
        </CharString>
        <CharString name="dvK_SS_VA">
          549 280 566 -56 callsubr
          883 105 rmoveto
          -643 -112 401 -268 hlineto
          -103 callsubr
          -82 -63 -33 -53 -39 hvcurveto
          -181 hlineto
          -94 callsubr
          198 hlineto
          -1 -7 0 -6 -7 -64 callgsubr
        </CharString>
        <CharString name="dvK_SS_YA">
          560 933 -105 callgsubr
          -653 7 -56 callsubr
          240 105 rmoveto
          -112 136 25 callgsubr
          -23 -10 -21 -22 -17 vhcurveto
          -230 hlineto
          -94 callsubr
          174 hlineto
          -133 37 96 -73 111 -102 callsubr
          112 vlineto
          endchar
        </CharString>
        <CharString name="dvK_S_DDA">
          510 280 566 -56 callsubr
          713 -7 185 callgsubr
          -594 -112 323 -43 -68 hlineto
          -74 -79 -29 -68 -27 hvcurveto
          -182 hlineto
          -94 callsubr
          234 hlineto
          -79 27 92 -22 82 hhcurveto
          -86 callsubr
        </CharString>
        <CharString name="dvK_S_P_LA">
          1487 1858 486 rmoveto
          -47 callgsubr
          -111 -67 -70 -110 -11 hvcurveto
          -11 -21 -23 -6 -26 86 callgsubr
          190 656 vlineto
          -956 -205 rmoveto
          -70 callsubr
          137 168 callgsubr
          -586 125 callsubr
          1626 221 rmoveto
          -2131 0 callsubr
          170 hlineto
          -50 31 54 -23 74 hhcurveto
          38 34 7 12 31 hvcurveto
          -116 30 98 -72 143 -69 callgsubr
        </CharString>
        <CharString name="dvK_S_P_RA">
          1018 1390 -29 callgsubr
          -488 -205 rmoveto
          -70 callsubr
          162 -174 vlineto
          -11 0 -10 1 -10 vhcurveto
          -611 125 callsubr
          1157 221 rmoveto
          -1662 0 callsubr
          203 hlineto
          17 -23 23 -16 28 -10 -30 callgsubr
        </CharString>
        <CharString name="dvK_S_TA">
          554 280 566 -56 callsubr
          888 105 rmoveto
          -638 -112 396 -85 -74 hlineto
          -87 -65 -20 -35 -45 hvcurveto
          -232 hlineto
          -94 callsubr
          216 hlineto
          -6 -22 -3 -23 -25 vvcurveto
          -70 callgsubr
        </CharString>
        <CharString name="dvK_S_TTA">
          456 280 566 -56 callsubr
          693 -7 186 callsubr
          -540 -112 303 -83 -10 hlineto
          -76 -2 -59 -22 -43 -33 rrcurveto
          -222 hlineto
          -94 callsubr
          205 hlineto
          -6 -20 -3 -21 -21 -58 callsubr
        </CharString>
        <CharString name="dvK_TA">
          360 974 129 callsubr
          -1004 -112 468 -87 -393 -111 74 vlineto
          -12 callsubr
          104 hvcurveto
          56 -360 142 256 hlineto
          62 38 42 53 61 40 -32 -68 -71 -33 -40 -55 -10 -14 1 2 -10 vhcurveto
          -113 vlineto
          -2 10 24 -1 7 hhcurveto
          131 92 80 146 125 -84 85 -133 -52 -38 -15 -24 -27 hvcurveto
          126 vlineto
          endchar
        </CharString>
        <CharString name="dvK_THA">
          700 1072 671 94 callsubr
          2 -16 2 -10 vhcurveto
          131 hlineto
          -2 8 0 10 8 vvcurveto
          29 13 23 32 29 14 -22 -30 -54 -51 -31 -100 -31 vhcurveto
          53 -31 -53 40 -72 -14 callgsubr
          109 101 112 -606 -89 callgsubr
          46 24 -26 -29 11 vhcurveto
          -143 27 114 -89 127 8 callsubr
        </CharString>
        <CharString name="dvK_TTA">
          506 475 559 rmoveto
          408 -83 -10 hlineto
          -61 -2 -51 -14 -40 -23 rrcurveto
          32 -34 -48 20 -58 -14 callgsubr
          548 109 186 callsubr
          -1150 -112 363 -276 hlineto
          -104 callgsubr
          38 25 -19 -27 11 vhcurveto
          -10 -25 -5 -28 -28 -58 callsubr
        </CharString>
        <CharString name="dvK_T_RA">
          614 986 414 rmoveto
          51 -50 -65 26 -79 hhcurveto
          -37 -45 -8 -13 -38 hvcurveto
          12 -26 -31 7 -34 -14 callgsubr
          109 511 48 callgsubr
          -1258 -112 363 -276 hlineto
          -104 callgsubr
          30 22 -12 -18 13 vhcurveto
          -28 vlineto
          11 7 2 -6 13 13 rlineto
          19 38 53 17 49 hhcurveto
          62 48 -24 -37 33 hvcurveto
          -288 -173 104 callgsubr
        </CharString>
        <CharString name="dvK_T_VA">
          909 1281 291 rmoveto
          -103 callsubr
          -47 -42 -11 -20 -34 hvcurveto
          -163 hlineto
          -61 -50 -10 -18 -40 hvcurveto
          27 -33 -45 16 -52 -14 callgsubr
          109 806 48 callgsubr
          -1553 -112 363 -276 hlineto
          -104 callgsubr
          24 19 -8 -13 13 vhcurveto
          -17 -33 -9 -38 -43 vvcurveto
          -28 callgsubr
          vhcurveto
          -42 callsubr
          69 hlineto
          -7 -21 -3 -23 -24 -64 callgsubr
        </CharString>
        <CharString name="dvK_T_YA">
          900 1293 -105 callgsubr
          -818 hmoveto
          541 -15 callsubr
          -21 -9 -20 -19 -17 vhcurveto
          22 -25 -49 30 -84 hhcurveto
          -58 -48 -11 -19 -39 hvcurveto
          28 -34 -45 17 -54 -14 callgsubr
          1059 221 rmoveto
          -1564 -112 363 -276 hlineto
          -104 callgsubr
          29 21 -11 -17 13 vhcurveto
          -15 -31 -8 -36 -40 vvcurveto
          -28 callgsubr
          vhcurveto
          117 vlineto
          -1 -6 -6 0 -5 hhcurveto
          -73 -32 46 76 78 55 41 70 12 10 -2 -2 8 hvcurveto
          -160 27 104 -90 123 -102 callsubr
          vlineto
          endchar
        </CharString>
        <CharString name="dvK_VA">
          564 936 291 rmoveto
          -103 callsubr
          -49 -43 -12 -22 -35 hvcurveto
          12 -26 -30 6 -33 -14 callgsubr
          109 455 48 callgsubr
          -1202 -112 363 -276 hlineto
          -104 callgsubr
          12 11 -2 -4 10 vhcurveto
          -9 -24 -5 -27 -28 -64 callgsubr
        </CharString>
        <CharString name="dvK_V_YA">
          950 1323 -105 callgsubr
          -435 -62 rmoveto
          5 -19 -26 3 -25 hhcurveto
          -54 -46 -15 -25 -36 hvcurveto
          16 -29 -34 8 -38 -14 callgsubr
          109 571 -41 callsubr
          6 -48 12 -42 18 -35 rrcurveto
          -32 -30 -36 -21 -48 167 callgsubr
          676 296 rmoveto
          -1594 -112 363 -276 hlineto
          -104 callgsubr
          21 17 -6 -10 13 vhcurveto
          -7 -21 -4 -24 -24 vvcurveto
          171 callsubr
          84 64 32 48 47 vhcurveto
          -39 44 55 -21 59 -102 callsubr
          vlineto
          endchar
        </CharString>
        <CharString name="dvK_YA">
          657 1030 -105 callgsubr
          -555 hmoveto
          278 -15 callsubr
          -28 -16 -26 -36 -20 vhcurveto
          49 -31 -51 34 -67 -14 callgsubr
          796 221 rmoveto
          -1301 -112 363 -276 hlineto
          -104 callgsubr
          47 24 -28 -29 10 vhcurveto
          -138 36 98 -76 113 -102 callsubr
          vlineto
          endchar
        </CharString>
        <CharString name="dvKx">
          2 -26 callgsubr
          300 535 rmoveto
          101 112 -606 29 callgsubr
          26 -25 -32 9 vhcurveto
          101 103 rlineto
          41 -34 -53 25 -66 -14 callgsubr
          endchar
        </CharString>
        <CharString name="dvKxA">
          225 -26 callgsubr
          664 535 rmoveto
          112 -869 -89 callgsubr
          56 26 -43 -44 -49 -29 -40 -57 -5 -5 0 1 -6 vhcurveto
          -113 vlineto
          -1 8 8 0 7 hhcurveto
          127 94 78 126 113 -77 84 -121 -62 callsubr
          109 vlineto
          endchar
        </CharString>
        <CharString name="dvKx_BA">
          644 -26 callgsubr
          841 267 94 callgsubr
          -68 -55 -21 -36 -40 hvcurveto
          22 -31 -41 13 -47 -14 callgsubr
          109 541 vlineto
          -57 -355 -38 callsubr
          469 325 rmoveto
          -1288 29 callgsubr
          25 -24 -32 10 vhcurveto
          -1 -9 -1 -10 -10 131 callsubr
        </CharString>
        <CharString name="dvKx_KxA">
          823 -26 callgsubr
          598 hmoveto
          -100 callgsubr
          158 259 rmoveto
          -56 -34 -37 -46 -56 -26 43 44 49 29 40 57 5 5 0 -1 6 vhcurveto
          113 vlineto
          -64 callsubr
          -51 -46 -13 -23 -36 hvcurveto
          29 -34 -46 17 -54 -14 callgsubr
          109 456 vlineto
          506 hmoveto
          112 -1467 -89 callgsubr
          41 26 -23 -31 10 vhcurveto
          -3 -15 -2 -16 -17 -71 callgsubr
        </CharString>
        <CharString name="dvKx_MA">
          596 -26 callgsubr
          797 349 rmoveto
          -158 186 158 hlineto
          -497 hmoveto
          200 -90 hlineto
          13 -27 -32 7 -35 -14 callgsubr
          735 221 rmoveto
          -1240 -112 363 -276 hlineto
          34 callsubr
          -1 -4 0 -5 -5 -50 callgsubr
          hlineto
          endchar
        </CharString>
        <CharString name="dvKx_PHA">
          828 -26 callgsubr
          758 352 88 callsubr
          967 109 rmoveto
          112 -1472 -89 callgsubr
          41 25 -22 -30 10 vhcurveto
          -107 16 69 -47 100 hhcurveto
          49 39 16 25 29 hvcurveto
          -212 142 295 -100 callsubr
          100 vlineto
          endchar
        </CharString>
        <CharString name="dvKx_PHxA">
          828 -26 callgsubr
          538 80 rmoveto
          -100 callgsubr
          220 272 88 callsubr
          967 109 rmoveto
          112 -1472 -89 callgsubr
          41 25 -22 -30 10 vhcurveto
          -107 16 69 -47 100 hhcurveto
          49 39 16 25 29 hvcurveto
          -212 142 295 -100 callsubr
          100 vlineto
          endchar
        </CharString>
        <CharString name="dvKx_R">
          1 315 -56 rmoveto
          -100 callgsubr
          176 615 -6 callsubr
        </CharString>
        <CharString name="dvKx_RA">
          240 315 -56 rmoveto
          -100 callgsubr
          540 615 rmoveto
          112 -885 -112 379 85 callsubr
          203 callsubr
          hvcurveto
          -118 -135 rlineto
          167 hlineto
          131 163 rlineto
          -118 -98 callsubr
        </CharString>
        <CharString name="dvKx_TA">
          596 -26 callgsubr
          793 450 rmoveto
          -74 hlineto
          -71 -58 -14 -24 -43 hvcurveto
          33 -34 -48 20 -59 -14 callgsubr
          109 493 48 callgsubr
          -1240 -112 363 -276 hlineto
          -104 callgsubr
          40 25 -21 -29 11 vhcurveto
          -10 -26 -4 -28 -31 vvcurveto
          -70 callgsubr
        </CharString>
        <CharString name="dvL">
          -70 373 120 rmoveto
          -87 callgsubr
          37 34 -28 -21 12 vhcurveto
          68 81 rlineto
          45 -31 -50 34 -78 hhcurveto
          -75 -59 -28 -36 callsubr
          -48 138 callgsubr
          -403 554 rmoveto
          574 112 -574 hlineto
          endchar
        </CharString>
        <CharString name="dvLA">
          177 791 -2 callsubr
          -821 -112 578 -73 hlineto
          1 -8 -9 1 -8 -107 callgsubr
          64 6 5 0 -1 6 vhcurveto
          -376 143 -80 callgsubr
          vlineto
          endchar
        </CharString>
        <CharString name="dvLL">
          218 552 87 rmoveto
          125 95 80 123 124 -93 81 -129 -74 -40 -24 -31 -35 hvcurveto
          46 callsubr
          -4 296 rmoveto
          51 30 -38 -54 -54 -30 -38 -49 192 callgsubr
          -295 -184 rmoveto
          84 callsubr
          -283 360 rmoveto
          862 112 -862 hlineto
          endchar
        </CharString>
        <CharString name="dvLLA">
          218 550 199 rmoveto
          192 callgsubr
          51 30 -38 -54 -54 -30 -38 -49 hvcurveto
          -297 hmoveto
          84 callsubr
          579 360 rmoveto
          112 -862 -112 524 -70 vlineto
          -41 -8 -27 -19 -25 -22 rrcurveto
          46 callsubr
          125 95 80 123 98 -58 71 -87 25 hvcurveto
          75 vlineto
          endchar
        </CharString>
        <CharString name="dvLL_YA">
          646 1019 -105 callgsubr
          -392 -245 rmoveto
          1 -7 1 -8 -8 vvcurveto
          -54 -30 -38 -49 -34 -36 23 21 -23 vhcurveto
          54 7 20 86 64 hhcurveto
          38 26 -21 -33 11 hvcurveto
          -370 -130 rmoveto
          84 callsubr
          1007 472 rmoveto
          -1290 -112 772 -15 callsubr
          -25 -12 -22 -27 -19 vhcurveto
          51 -39 -65 30 -78 hhcurveto
          -74 -40 -24 -31 -35 hvcurveto
          46 callsubr
          71 61 26 45 40 hvcurveto
          -34 42 51 -18 55 -102 callsubr
          vlineto
          endchar
        </CharString>
        <CharString name="dvL_BA">
          568 883 204 -38 callsubr
          469 325 rmoveto
          -1212 -112 970 86 callsubr
          -64 -53 -19 -33 -40 hvcurveto
          18 -27 -36 11 -44 -107 callgsubr
          64 13 12 -3 -6 12 vhcurveto
          -9 -23 -4 -26 -27 131 callsubr
        </CharString>
        <CharString name="dvL_BHA">
          527 903 141 callgsubr
          -574 -112 541 181 callsubr
          -44 vlineto
          11 -24 -29 7 -35 -107 callgsubr
          64 20 20 -8 -11 15 vhcurveto
          -14 -12 -7 -18 -22 vvcurveto
          -22 7 -24 20 -42 vhcurveto
          36 -77 rlineto
          39 callgsubr
        </CharString>
        <CharString name="dvL_DA">
          535 1037 383 rmoveto
          68 callsubr
          -1179 -112 924 -64 -71 vlineto
          -74 -58 -18 -31 -42 hvcurveto
          25 -30 -41 17 -55 -107 callgsubr
          64 19 19 -8 -10 15 vhcurveto
          -9 -25 -5 -27 -29 vvcurveto
          122 callsubr
          vhcurveto
          -87 callsubr
          endchar
        </CharString>
        <CharString name="dvL_DDA">
          490 973 171 callgsubr
          -1134 -112 863 -43 -68 hlineto
          -54 -56 -15 -34 -37 hvcurveto
          13 -26 -31 8 -38 -107 callgsubr
          64 15 15 -5 -7 13 vhcurveto
          -3 vlineto
          115 callgsubr
          -21 callsubr
          vhcurveto
          -65 callsubr
          hlineto
          endchar
        </CharString>
        <CharString name="dvL_DDHA">
          510 994 559 rmoveto
          130 112 -1154 -112 884 -73 -9 hlineto
          -72 -1 -65 -15 -51 -32 rrcurveto
          30 -31 -43 20 -60 -107 callgsubr
          64 19 19 -8 -10 15 vhcurveto
          -16 -30 -8 -36 -42 vvcurveto
          -135 106 -107 209 callsubr
          84 73 101 7 callsubr
        </CharString>
        <CharString name="dvL_D_RA">
          510 1012 383 rmoveto
          68 callsubr
          -1154 -112 899 -64 -71 vlineto
          -67 -53 -15 -25 -41 hvcurveto
          20 -29 -37 13 -48 -107 callgsubr
          64 11 11 -3 -4 10 vhcurveto
          -12 -27 -6 -32 -33 vvcurveto
          -98 54 -74 82 -31 vhcurveto
          83 callsubr
          endchar
        </CharString>
        <CharString name="dvL_GA">
          501 1115 -2 callsubr
          -1145 -112 653 -95 hlineto
          15 -27 -33 9 -40 -107 callgsubr
          64 37 33 -27 -21 13 vhcurveto
          -9 -7 -11 -5 -17 hhcurveto
          -27 -22 12 0 hvcurveto
          -110 vlineto
          -12 35 22 -2 32 hhcurveto
          79 66 41 101 hvcurveto
          214 111 -559 -3 callsubr
        </CharString>
        <CharString name="dvL_HA">
          477 993 101 callgsubr
          -1121 -112 883 -48 -144 vlineto
          -46 -41 -11 -23 -28 hvcurveto
          7 -21 -23 4 -27 -107 callgsubr
          64 9 8 -2 -2 8 vhcurveto
          8 -51 39 -29 22 -12 rrcurveto
          -44 -34 -22 -48 -48 vvcurveto
          -94 84 -101 188 172 callsubr
          vhcurveto
          -78 callgsubr
        </CharString>
        <CharString name="dvL_JA">
          584 1199 -2 callsubr
          -1229 -112 986 -96 -332 hlineto
          16 -27 -33 9 -41 -107 callgsubr
          64 25 25 -13 -15 16 vhcurveto
          -1 1 vlineto
          7 -7 5 -7 4 -6 16 18 rcurveline
          74 -7 36 -34 -48 -61 callgsubr
        </CharString>
        <CharString name="dvL_JxA">
          594 693 -6 rmoveto
          -100 callgsubr
          516 677 rmoveto
          -1239 -112 996 -96 -342 hlineto
          16 -27 -33 9 -41 -107 callgsubr
          64 37 34 -28 -21 12 vhcurveto
          16 19 rlineto
          81 -5 39 -35 -50 -61 callgsubr
        </CharString>
        <CharString name="dvL_KA">
          745 1359 129 callsubr
          -1389 -112 883 4 callgsubr
          -47 -43 -11 -20 -34 hvcurveto
          24 -30 -40 16 -53 -107 callgsubr
          64 13 13 -4 -5 12 vhcurveto
          -13 -27 -7 -31 -35 -71 callgsubr
        </CharString>
        <CharString name="dvL_KHA">
          787 1401 -2 callsubr
          -1431 -112 763 -116 hlineto
          -30 -12 -24 -27 -13 vhcurveto
          75 -18 -83 37 -70 -107 callgsubr
          42 45 10 -21 -25 1 vhcurveto
          -75 vlineto
          198 -256 -84 callgsubr
        </CharString>
        <CharString name="dvL_K_YA">
          1150 1523 -105 callgsubr
          -528 hmoveto
          251 -15 callsubr
          -23 -10 -21 -23 -17 vhcurveto
          41 -25 -52 29 -64 -14 callgsubr
          769 221 rmoveto
          -1794 -112 883 -276 hlineto
          -56 -34 -37 -46 -56 -26 43 44 49 29 40 57 5 5 0 -1 6 vhcurveto
          113 vlineto
          -64 callsubr
          -47 -43 -11 -20 -34 hvcurveto
          24 -30 -40 16 -53 -107 callgsubr
          64 13 13 -4 -5 12 vhcurveto
          -13 -27 -7 -31 -35 vvcurveto
          14 callgsubr
          vhcurveto
          109 callgsubr
          62 40 34 54 12 10 -3 -5 9 vhcurveto
          -171 22 107 -95 127 -102 callsubr
          vlineto
          endchar
        </CharString>
        <CharString name="dvL_LA">
          687 1301 -2 callsubr
          -1331 -112 1088 84 callgsubr
          -39 -33 -8 -16 -27 hvcurveto
          20 -29 -37 12 -47 -107 callgsubr
          64 11 11 -2 -5 10 vhcurveto
          -13 -29 -6 -36 -39 vvcurveto
          64 callgsubr
          vhcurveto
          -91 callsubr
        </CharString>
        <CharString name="dvL_L_YA">
          1094 1467 -105 callgsubr
          241 -11 callsubr
          -1738 -112 1220 -15 callsubr
          -21 -9 -19 -19 -17 vhcurveto
          38 -31 -47 27 -70 hhcurveto
          -75 -59 -28 -36 callsubr
          -48 42 -85 hhcurveto
          -41 -35 -10 -17 -29 hvcurveto
          21 -29 -38 14 -50 -107 callgsubr
          64 14 14 -4 -6 12 vhcurveto
          -11 -30 -6 -33 -38 vvcurveto
          64 callgsubr
          vhcurveto
          -88 callsubr
          4 4 0 -1 4 vhcurveto
          0 vlineto
          -173 21 108 -97 128 -102 callsubr
          vlineto
          endchar
        </CharString>
        <CharString name="dvL_MA">
          531 907 -23 callsubr
          238 -11 callsubr
          -1175 -112 640 -89 hlineto
          12 -24 -29 6 -34 -107 callgsubr
          64 21 20 -9 -12 16 vhcurveto
          -15 -9 -8 -15 -21 -50 callgsubr
          hlineto
          endchar
        </CharString>
        <CharString name="dvL_PA">
          503 875 -77 callgsubr
          242 112 rmoveto
          -1147 -112 600 -76 hlineto
          3 -14 -16 2 -17 -107 callgsubr
          64 14 13 -4 -6 12 vhcurveto
          -137 3 73 -59 112 -25 callgsubr
        </CharString>
        <CharString name="dvL_PHA">
          780 885 75 callsubr
          -1424 -112 610 -78 vlineto
          5 -17 -19 2 -21 -107 callgsubr
          64 18 17 -6 -10 14 vhcurveto
          -133 5 73 -57 110 hhcurveto
          49 39 16 25 29 hvcurveto
          -212 142 295 -100 callsubr
          100 vlineto
          endchar
        </CharString>
        <CharString name="dvL_SA">
          668 862 152 callgsubr
          148 -205 vlineto
          241 317 rmoveto
          -1302 -112 773 -115 hlineto
          -35 -16 -27 -37 -10 vhcurveto
          74 -20 -70 42 -77 -107 callgsubr
          52 41 18 -30 -24 2 vhcurveto
          -54 -43 callgsubr
        </CharString>
        <CharString name="dvL_TA">
          534 1148 -2 callsubr
          -1178 -112 936 -85 -74 hlineto
          -72 -57 -14 -24 -43 hvcurveto
          31 -31 -44 21 -62 -107 callgsubr
          64 19 18 -7 -10 15 vhcurveto
          -19 -34 -9 -40 -44 vvcurveto
          -70 callgsubr
        </CharString>
        <CharString name="dvL_THA">
          590 544 -2 callsubr
          -574 -112 574 hlineto
          158 -102 rmoveto
          -7 16 -5 21 18 vvcurveto
          29 13 23 32 29 14 -22 -30 -43 -33 -29 -66 -26 vhcurveto
          -12 16 -15 15 -18 12 rrcurveto
          328 214 94 callsubr
          1 -13 3 -14 vhcurveto
          2 -12 -13 1 -13 -107 callgsubr
          64 7 7 -1 -2 7 vhcurveto
          -32 -8 rlineto
          -169 11 124 -107 139 8 callsubr
        </CharString>
        <CharString name="dvL_TH_YA">
          1040 504 -2 callsubr
          -534 -112 534 hlineto
          909 58 callsubr
          -32 7 -30 9 -27 rrcurveto
          -47 -49 -58 -29 -73 hhcurveto
          -61 -65 26 52 -21 hvcurveto
          25 callsubr
          -34 callsubr
          -9 2 -19 2 -9 vhcurveto
          132 hlineto
          -1 5 -2 15 5 vvcurveto
          29 13 23 32 29 14 -22 -30 -56 -55 -32 -110 -32 vhcurveto
          43 -23 -44 47 -77 hhcurveto
          -41 -59 -22 -36 callsubr
          -48 42 -85 hhcurveto
          -122 -69 -85 -129 -160 108 -105 172 -99 callgsubr
          67 23 20 36 29 13 -23 -21 5 vhcurveto
          0 vlineto
          -159 35 124 -70 143 hhcurveto
          102 75 42 55 62 hvcurveto
          -53 46 63 -28 69 -102 callsubr
          112 vlineto
          endchar
        </CharString>
        <CharString name="dvL_TTA">
          456 973 559 186 callsubr
          -1100 -112 863 -83 -10 hlineto
          -65 -2 -54 -16 -40 -26 rrcurveto
          33 -32 -45 23 -64 -107 callgsubr
          64 22 21 -10 -13 16 vhcurveto
          -17 -31 -9 -36 -37 -58 callsubr
        </CharString>
        <CharString name="dvL_TTHA">
          521 821 169 rmoveto
          -63 -51 37 64 70 52 29 59 hvcurveto
          67 -1 44 -32 -67 vvcurveto
          -61 -41 -39 -67 vhcurveto
          314 390 rmoveto
          112 -1165 -112 801 -82 vlineto
          -41 -6 -39 -12 -34 -21 rrcurveto
          30 -31 -43 20 -60 -107 callgsubr
          64 19 19 -8 -10 15 vhcurveto
          -12 -25 -7 -29 -34 vvcurveto
          -134 107 -80 157 callsubr
          95 85 124 104 callsubr
        </CharString>
        <CharString name="dvL_VA">
          539 1153 -2 callsubr
          -1183 -112 941 -268 hlineto
          -103 callsubr
          -59 -49 -17 -30 -38 hvcurveto
          19 -28 -36 11 -45 -107 callgsubr
          64 13 12 -3 -6 12 vhcurveto
          -9 -23 -4 -26 -27 -64 callgsubr
        </CharString>
        <CharString name="dvL_V_DDA">
          820 1303 171 callgsubr
          -1464 -112 1193 184 callgsubr
          -17 2 -16 5 -13 hvcurveto
          -74 -15 -43 -44 -61 hhcurveto
          -59 -35 35 58 23 callgsubr
          -59 -49 -17 -30 -38 hvcurveto
          19 -28 -36 11 -45 -107 callgsubr
          64 13 12 -3 -6 12 vhcurveto
          -9 -23 -4 -26 -27 vvcurveto
          -134 98 -72 127 122 65 69 74 32 vhcurveto
          -13 35 41 -5 38 hhcurveto
          75 31 -6 -38 -27 -31 -23 -66 -48 -63 12 21 -46 hvcurveto
          -124 vlineto
          -20 51 46 -6 59 hhcurveto
          148 90 77 98 86 -50 67 -150 150 callgsubr
        </CharString>
        <CharString name="dvL_YA">
          570 943 -105 callgsubr
          241 -11 callsubr
          -1214 -112 696 -15 callsubr
          -20 -8 -19 -17 -16 vhcurveto
          37 -32 -47 26 -68 -107 callgsubr
          64 3 4 0 -1 3 vhcurveto
          -2 hlineto
          -173 21 108 -97 128 -102 callsubr
          vlineto
          endchar
        </CharString>
        <CharString name="dvM">
          -231 477 377 rmoveto
          -258 182 165 112 -414 136 callsubr
          -189 hlineto
          -85 callgsubr
          258 hlineto
          endchar
        </CharString>
        <CharString name="dvMA">
          1 -30 559 rmoveto
          110 -193 hlineto
          111 callgsubr
          -645 hlineto
          407 -112 rmoveto
          -186 -158 186 vlineto
          endchar
        </CharString>
        <CharString name="dvM_BA">
          379 751 291 94 callgsubr
          -108 -77 -55 -79 -31 hvcurveto
          -163 182 532 hlineto
          -57 -355 -38 callsubr
          469 325 rmoveto
          -1023 136 callsubr
          -189 hlineto
          -85 callgsubr
          150 hlineto
          -107 19 99 -73 109 hhcurveto
          64 52 22 36 39 hvcurveto
          -132 -86 callgsubr
        </CharString>
        <CharString name="dvM_BHA">
          357 219 559 rmoveto
          112 callgsubr
          514 294 rmoveto
          -293 -153 153 vlineto
          137 callgsubr
          -14 -15 -2 -3 -14 vhcurveto
          0 -414 136 callsubr
          -189 vlineto
          -85 callgsubr
          187 hlineto
          4 -10 5 -12 7 -14 36 -77 rcurveline
          39 callgsubr
        </CharString>
        <CharString name="dvM_BH_RA">
          332 219 559 rmoveto
          97 81 callsubr
          34 1 hlineto
          22 -5 10 -17 -24 vvcurveto
          -93 vlineto
          -22 -6 -16 -16 -5 -22 rrcurveto
          -154 hlineto
          488 294 rmoveto
          1 -243 rlineto
          -153 103 hlineto
          108 callsubr
          -390 136 callsubr
          -189 hlineto
          -85 callgsubr
          185 hlineto
          29 -63 rlineto
          122 107 callgsubr
        </CharString>
        <CharString name="dvM_BH_VA">
          689 219 559 rmoveto
          102 81 callsubr
          29 1 hlineto
          26 -3 11 -17 -26 vvcurveto
          -137 -202 vlineto
          1084 294 rmoveto
          -598 -112 356 -268 hlineto
          -103 callsubr
          -101 -74 -51 -76 -31 hvcurveto
          -162 153 hlineto
          108 callsubr
          -395 136 callsubr
          -189 hlineto
          -85 callgsubr
          167 174 callsubr
          146 hlineto
          -118 12 95 -63 109 hhcurveto
          -68 callgsubr
        </CharString>
        <CharString name="dvM_BH_YA">
          750 110 callsubr
          -904 hmoveto
          112 callgsubr
          501 294 154 callgsubr
          -152 153 hlineto
          137 callgsubr
          -14 -15 -2 -3 -14 vhcurveto
          0 -414 136 callsubr
          -189 vlineto
          -85 callgsubr
          187 174 callsubr
          167 hlineto
          -104 45 86 -57 98 -102 callsubr
          112 vlineto
          endchar
        </CharString>
        <CharString name="dvM_B_RA">
          369 741 290 rmoveto
          -1 1 rlineto
          -73 callsubr
          -108 -77 -55 -79 -31 hvcurveto
          -152 182 522 hlineto
          -58 -355 -38 callsubr
          470 325 rmoveto
          -1013 136 callsubr
          -189 hlineto
          -85 callgsubr
          139 hlineto
          15 -79 60 -61 69 -25 -158 -154 rcurveline
          194 hlineto
          203 200 rlineto
          -66 callgsubr
        </CharString>
        <CharString name="dvM_B_YA">
          770 1143 -105 callgsubr
          -569 -173 rmoveto
          -95 callsubr
          -108 -77 -55 -79 -31 hvcurveto
          -162 182 647 8 callgsubr
          5 -39 9 -36 13 -31 -6 -9 -7 -9 -8 -8 rrcurveto
          -52 -41 -72 callsubr
          861 325 rmoveto
          -1414 136 callsubr
          -189 hlineto
          -85 callgsubr
          149 hlineto
          -110 19 100 -70 120 hhcurveto
          95 75 40 62 50 hvcurveto
          -46 46 59 -24 64 -102 callsubr
          vlineto
          endchar
        </CharString>
        <CharString name="dvM_DA">
          355 219 377 rmoveto
          182 495 -64 -71 vlineto
          -119 -77 -47 -71 -35 hvcurveto
          445 6 rmoveto
          68 callsubr
          -999 136 callsubr
          -189 vlineto
          -85 callgsubr
          172 hlineto
          -110 10 81 -82 124 hhcurveto
          40 67 15 38 26 hvcurveto
          -87 callsubr
          endchar
        </CharString>
        <CharString name="dvM_HA">
          287 219 377 rmoveto
          182 444 -48 -144 129 callgsubr
          -5 0 -5 1 -4 hvcurveto
          437 24 rmoveto
          158 98 112 -931 136 callsubr
          -189 vlineto
          -85 callgsubr
          188 hlineto
          -26 -30 -12 -36 -37 vvcurveto
          -94 84 -101 188 172 callsubr
          vhcurveto
          -78 callgsubr
        </CharString>
</ttFont>
